Ayanna-sinhala-0.ufo
<glyph name="anusvara" format="1">
  <advance width="272"/>
  <unicode hex="0D82"/>
  <outline>
    <contour>
      <point x="62.1006" y="265.612" type="curve" smooth="yes"/>
      <point x="62.1006" y="217.121"/>
      <point x="74.4678" y="149.976"/>
      <point x="136.051" y="149.976" type="curve" smooth="yes"/>
      <point x="197.633" y="149.976"/>
      <point x="210" y="217.121"/>
      <point x="210" y="265.612" type="curve" smooth="yes"/>
      <point x="210" y="314.104"/>
      <point x="197.633" y="381.249"/>
      <point x="136.051" y="381.249" type="curve" smooth="yes"/>
      <point x="74.4678" y="381.249"/>
      <point x="62.1006" y="314.104"/>
    </contour>
    <contour>
      <point x="25.1006" y="265.612" type="curve" smooth="yes"/>
      <point x="25.1006" y="357.278"/>
      <point x="66.2168" y="418.249"/>
      <point x="136.051" y="418.249" type="curve" smooth="yes"/>
      <point x="205.886" y="418.249"/>
      <point x="247" y="357.279"/>
      <point x="247" y="265.612" type="curve" smooth="yes"/>
      <point x="247" y="172.62"/>
      <point x="215.063" y="113"/>
      <point x="136.051" y="113" type="curve" smooth="yes"/>
      <point x="57.0381" y="113"/>
      <point x="25.1006" y="172.621"/>
    </contour>
  </outline>
</glyph>
<glyph name="visarga" format="1">
  <advance width="0"/>
  <unicode hex="0D83"/>
  <outline>
    <contour>
      <point x="106.328" y="152.197" type="curve" smooth="yes"/>
      <point x="106.328" y="127.951"/>
      <point x="127.882" y="106.396"/>
      <point x="152.13" y="106.396" type="curve" smooth="yes"/>
      <point x="176.379" y="106.396"/>
      <point x="197.933" y="127.951"/>
      <point x="197.933" y="152.197" type="curve" smooth="yes"/>
      <point x="197.933" y="176.446"/>
      <point x="176.379" y="198"/>
      <point x="152.13" y="198" type="curve" smooth="yes"/>
      <point x="127.882" y="198"/>
      <point x="106.328" y="176.446"/>
    </contour>
    <contour>
      <point x="71.835" y="152.197" type="curve" smooth="yes"/>
      <point x="71.835" y="196.669"/>
      <point x="107.659" y="232.492"/>
      <point x="152.13" y="232.492" type="curve" smooth="yes"/>
      <point x="196.601" y="232.492"/>
      <point x="232.425" y="196.669"/>
      <point x="232.425" y="152.197" type="curve" smooth="yes"/>
      <point x="232.425" y="107.726"/>
      <point x="196.601" y="71.9023"/>
      <point x="152.13" y="71.9023" type="curve" smooth="yes"/>
      <point x="107.659" y="71.9023"/>
      <point x="71.835" y="107.726"/>
    </contour>
    <contour>
      <point x="106.328" y="405" type="curve" smooth="yes"/>
      <point x="106.328" y="380.753"/>
      <point x="127.882" y="359.198"/>
      <point x="152.13" y="359.198" type="curve" smooth="yes"/>
      <point x="176.379" y="359.198"/>
      <point x="197.933" y="380.753"/>
      <point x="197.933" y="405" type="curve" smooth="yes"/>
      <point x="197.933" y="429.249"/>
      <point x="176.379" y="450.803"/>
      <point x="152.13" y="450.803" type="curve" smooth="yes"/>
      <point x="127.882" y="450.803"/>
      <point x="106.328" y="429.249"/>
    </contour>
    <contour>
      <point x="71.835" y="405" type="curve" smooth="yes"/>
      <point x="71.835" y="449.471"/>
      <point x="107.659" y="485.295"/>
      <point x="152.13" y="485.295" type="curve" smooth="yes"/>
      <point x="196.601" y="485.295"/>
      <point x="232.425" y="449.471"/>
      <point x="232.425" y="405" type="curve" smooth="yes"/>
      <point x="232.425" y="360.529"/>
      <point x="196.601" y="324.705"/>
      <point x="152.13" y="324.705" type="curve" smooth="yes"/>
      <point x="107.659" y="324.705"/>
      <point x="71.835" y="360.529"/>
    </contour>
  </outline>
</glyph>
<glyph name="si_A" format="1">
  <advance width="561"/>
  <unicode hex="0D85"/>
  <outline>
    <contour>
      <point x="326" y="-205" type="line"/>
      <point x="323.645" y="408" type="line"/>
      <point x="326" y="425"/>
      <point x="337.934" y="469.962"/>
      <point x="348" y="490" type="curve"/>
      <point x="372" y="539"/>
      <point x="419.001" y="585.236"/>
      <point x="487" y="599" type="curve"/>
      <point x="497.844" y="574.562" type="line"/>
      <point x="485.433" y="565.217"/>
      <point x="481" y="551.492"/>
      <point x="481" y="535" type="curve" smooth="yes"/>
      <point x="481" y="499.148"/>
      <point x="511" y="454.956"/>
      <point x="511" y="411" type="curve" smooth="yes"/>
      <point x="511" y="358.442"/>
      <point x="481.578" y="320.267"/>
      <point x="413.747" y="320.267" type="curve" smooth="yes"/>
      <point x="397.69" y="320.267"/>
      <point x="373" y="326"/>
      <point x="359" y="333" type="curve"/>
      <point x="359" y="367" type="line"/>
      <point x="377" y="357"/>
      <point x="394.825" y="354.142"/>
      <point x="408.957" y="354.142" type="curve" smooth="yes"/>
      <point x="455.079" y="354.142"/>
      <point x="475" y="377.225"/>
      <point x="475" y="411" type="curve" smooth="yes"/>
      <point x="475" y="441.546"/>
      <point x="449.85" y="489.447"/>
      <point x="449.85" y="528.16" type="curve" smooth="yes"/>
      <point x="449.85" y="536.64"/>
      <point x="451.057" y="544.68"/>
      <point x="454" y="552" type="curve"/>
      <point x="426" y="542"/>
      <point x="367.5" y="487.691"/>
      <point x="363" y="422.986" type="curve"/>
      <point x="363" y="-205" type="line"/>
    </contour>
    <contour>
      <point x="30" y="212" type="curve" smooth="yes"/>
      <point x="30" y="312.682"/>
      <point x="103" y="411"/>
      <point x="226.945" y="411" type="curve" smooth="yes"/>
      <point x="251.226" y="411"/>
      <point x="299" y="411"/>
      <point x="322.802" y="411" type="curve"/>
      <point x="324.802" y="422"/>
      <point x="328" y="438.288"/>
      <point x="328" y="454" type="curve" smooth="yes"/>
      <point x="328" y="524.746"/>
      <point x="285.918" y="557"/>
      <point x="237.556" y="557" type="curve" smooth="yes"/>
      <point x="197.171" y="557"/>
      <point x="154.723" y="530.043"/>
      <point x="154.723" y="474" type="curve" smooth="yes"/>
      <point x="154.723" y="431.347"/>
      <point x="176.467" y="406.53"/>
      <point x="185.63" y="398" type="curve"/>
      <point x="161.723" y="376" type="line"/>
      <point x="149.723" y="387"/>
      <point x="121.247" y="419"/>
      <point x="121.247" y="474" type="curve" smooth="yes"/>
      <point x="121.247" y="553"/>
      <point x="180.85" y="591"/>
      <point x="237.556" y="591" type="curve" smooth="yes"/>
      <point x="302.112" y="591"/>
      <point x="362" y="548.099"/>
      <point x="362" y="454" type="curve" smooth="yes"/>
      <point x="362" y="424.453"/>
      <point x="357" y="399.965"/>
      <point x="348" y="374" type="curve"/>
      <point x="348" y="374"/>
      <point x="270" y="374"/>
      <point x="226.945" y="374" type="curve" smooth="yes"/>
      <point x="127.144" y="374"/>
      <point x="67" y="295.036"/>
      <point x="67" y="212" type="curve" smooth="yes"/>
      <point x="67" y="107.483"/>
      <point x="145.333" y="40"/>
      <point x="252" y="40" type="curve" smooth="yes"/>
      <point x="380" y="40"/>
      <point x="439.476" y="105.71"/>
      <point x="472" y="138" type="curve"/>
      <point x="495" y="113" type="line"/>
      <point x="459.963" y="76.9199"/>
      <point x="396" y="3"/>
      <point x="252" y="3" type="curve" smooth="yes"/>
      <point x="124" y="3"/>
      <point x="30" y="85"/>
    </contour>
  </outline>
</glyph>
<glyph name="si_I" format="1">
  <advance width="510"/>
  <unicode hex="0D89"/>
  <outline>
    <contour>
      <point x="112" y="-137.54" type="curve"/>
      <point x="140" y="-114" type="line"/>
      <point x="167.146" y="-148.369"/>
      <point x="200.619" y="-163.339"/>
      <point x="231.71" y="-163.339" type="curve" smooth="yes"/>
      <point x="290.534" y="-163.339"/>
      <point x="325" y="-121.752"/>
      <point x="325" y="-70" type="curve" smooth="yes"/>
      <point x="325" y="-24.293"/>
      <point x="312.221" y="28"/>
      <point x="207" y="28" type="curve"/>
      <point x="230" y="56" type="line"/>
      <point x="276" y="45" type="line"/>
      <point x="319" y="43"/>
      <point x="362" y="6"/>
      <point x="362" y="-70" type="curve" smooth="yes"/>
      <point x="362" y="-142.267"/>
      <point x="313.684" y="-200.339"/>
      <point x="231.71" y="-200.339" type="curve" smooth="yes"/>
      <point x="191.127" y="-200.339"/>
      <point x="147.435" y="-181.285"/>
    </contour>
    <contour>
      <point x="38" y="375" type="curve" smooth="yes"/>
      <point x="38" y="476.045"/>
      <point x="106.125" y="591"/>
      <point x="256" y="591" type="curve" smooth="yes"/>
      <point x="377.701" y="591"/>
      <point x="485" y="515.195"/>
      <point x="485" y="322" type="curve" smooth="yes"/>
      <point x="485" y="127.572"/>
      <point x="354.991" y="33.7555"/>
      <point x="207" y="28" type="curve"/>
      <point x="205.999" y="65.7744" type="line"/>
      <point x="309" y="65.7744"/>
      <point x="448" y="136.219"/>
      <point x="448" y="322" type="curve" smooth="yes"/>
      <point x="448" y="488.622"/>
      <point x="358.037" y="554"/>
      <point x="256" y="554" type="curve" smooth="yes"/>
      <point x="138.621" y="554"/>
      <point x="72" y="467.325"/>
      <point x="72" y="375" type="curve" smooth="yes"/>
      <point x="72" y="302.069"/>
      <point x="107" y="248"/>
      <point x="107" y="248" type="curve"/>
      <point x="119" y="218" type="line"/>
      <point x="85" y="223" type="line"/>
      <point x="54" y="260"/>
      <point x="38" y="307"/>
    </contour>
    <contour>
      <point x="63" y="300" type="curve" smooth="yes"/>
      <point x="63" y="367.725"/>
      <point x="109" y="423.869"/>
      <point x="181" y="423.869" type="curve" smooth="yes"/>
      <point x="207.995" y="423.869"/>
      <point x="232.884" y="414.98"/>
      <point x="253.058" y="400" type="curve" smooth="yes"/>
      <point x="283.496" y="377.398"/>
      <point x="303.198" y="340.928"/>
      <point x="303.198" y="300.198" type="curve" smooth="yes"/>
      <point x="303.198" y="232.474"/>
      <point x="248.725" y="178"/>
      <point x="181" y="178" type="curve" smooth="yes"/>
      <point x="127.373" y="178"/>
      <point x="81.131" y="212.156"/>
      <point x="64.2032" y="260" type="curve" smooth="yes"/>
      <point x="62.3937" y="265.114"/>
      <point x="61.8569" y="270.352"/>
      <point x="61.8569" y="275.716" type="curve" smooth="yes"/>
      <point x="61.8569" y="283.542"/>
      <point x="63" y="291.635"/>
    </contour>
    <contour>
      <point x="93.0986" y="299.957" type="curve" smooth="yes"/>
      <point x="93.0986" y="251.448"/>
      <point x="132.189" y="212.307"/>
      <point x="180.749" y="212.307" type="curve" smooth="yes"/>
      <point x="229.254" y="212.307"/>
      <point x="268.401" y="251.393"/>
      <point x="268.401" y="299.957" type="curve" smooth="yes"/>
      <point x="268.401" y="348.466"/>
      <point x="229.31" y="387.611"/>
      <point x="180.749" y="387.611" type="curve" smooth="yes"/>
      <point x="132.24" y="387.611"/>
      <point x="93.0986" y="348.518"/>
    </contour>
  </outline>
</glyph>
<glyph name="si_Ii" format="1">
  <advance width="456"/>
  <unicode hex="0D8A"/>
  <outline>
    <contour>
      <point x="-1" y="745" type="curve" smooth="yes"/>
      <point x="-1" y="761"/>
      <point x="12" y="774"/>
      <point x="28" y="774" type="curve" smooth="yes"/>
      <point x="44" y="774"/>
      <point x="57" y="761"/>
      <point x="57" y="745" type="curve" smooth="yes"/>
      <point x="57" y="729"/>
      <point x="44" y="716"/>
      <point x="28" y="716" type="curve" smooth="yes"/>
      <point x="12" y="716"/>
      <point x="-1" y="729"/>
    </contour>
    <contour>
      <point x="223" y="680" type="curve" smooth="yes"/>
      <point x="223" y="696"/>
      <point x="236" y="709"/>
      <point x="252" y="709" type="curve" smooth="yes"/>
      <point x="268" y="709"/>
      <point x="281" y="696"/>
      <point x="281" y="680" type="curve" smooth="yes"/>
      <point x="281" y="664"/>
      <point x="268" y="651"/>
      <point x="252" y="651" type="curve" smooth="yes"/>
      <point x="236" y="651"/>
      <point x="223" y="664"/>
    </contour>
    <component base="si_Ra" xOffset="-172" yOffset="-4"/>
  </outline>
</glyph>
<glyph name="si_U" format="1">
  <advance width="540"/>
  <unicode hex="0D8B"/>
  <outline>
    <contour>
      <point x="33" y="132.999" type="curve" smooth="yes"/>
      <point x="33" y="327"/>
      <point x="156.295" y="411"/>
      <point x="280.24" y="411" type="curve" smooth="yes"/>
      <point x="304.521" y="411"/>
      <point x="352.295" y="411"/>
      <point x="376.097" y="411" type="curve"/>
      <point x="378.097" y="422"/>
      <point x="381.295" y="438.288"/>
      <point x="381.295" y="454" type="curve" smooth="yes"/>
      <point x="381.295" y="524.746"/>
      <point x="339.213" y="557"/>
      <point x="290.851" y="557" type="curve" smooth="yes"/>
      <point x="250.466" y="557"/>
      <point x="208.018" y="530.043"/>
      <point x="208.018" y="474" type="curve" smooth="yes"/>
      <point x="208.018" y="431.347"/>
      <point x="229.762" y="406.53"/>
      <point x="238.925" y="398" type="curve"/>
      <point x="215.018" y="376" type="line"/>
      <point x="203.018" y="387"/>
      <point x="174.542" y="419"/>
      <point x="174.542" y="474" type="curve" smooth="yes"/>
      <point x="174.542" y="553"/>
      <point x="234.145" y="591"/>
      <point x="290.851" y="591" type="curve" smooth="yes"/>
      <point x="355.407" y="591"/>
      <point x="415.295" y="548.099"/>
      <point x="415.295" y="454" type="curve" smooth="yes"/>
      <point x="415.295" y="424.453"/>
      <point x="410.295" y="399.965"/>
      <point x="401.295" y="374" type="curve"/>
      <point x="401.295" y="374"/>
      <point x="323.295" y="374"/>
      <point x="280.24" y="374" type="curve" smooth="yes"/>
      <point x="176.348" y="374"/>
      <point x="73" y="301.18"/>
      <point x="73" y="133" type="curve" smooth="yes"/>
      <point x="73" y="8.2666"/>
      <point x="134.573" y="-113"/>
      <point x="274" y="-113" type="curve" smooth="yes"/>
      <point x="389.818" y="-113"/>
      <point x="451.86" y="-36.1826"/>
      <point x="470" y="35" type="curve"/>
      <point x="507" y="29" type="line"/>
      <point x="485.436" y="-57.5742"/>
      <point x="420" y="-151"/>
      <point x="274" y="-151" type="curve" smooth="yes"/>
      <point x="106.826" y="-151"/>
      <point x="33" y="-11.002"/>
    </contour>
  </outline>
</glyph>
<glyph name="si_vocalicR" format="1">
  <advance width="815"/>
  <unicode hex="0D8D"/>
  <outline>
    <contour>
      <point x="268.978" y="454" type="curve" smooth="yes"/>
      <point x="268.978" y="466.186"/>
      <point x="269.982" y="477.513"/>
      <point x="271.872" y="488" type="curve" smooth="yes"/>
      <point x="284.568" y="558.491"/>
      <point x="337.227" y="591"/>
      <point x="393.423" y="591" type="curve" smooth="yes"/>
      <point x="450.129" y="591"/>
      <point x="509.731" y="553"/>
      <point x="509.731" y="474" type="curve" smooth="yes"/>
      <point x="509.731" y="429.732"/>
      <point x="489.414" y="385.565"/>
      <point x="457.867" y="361" type="curve"/>
      <point x="431.867" y="382" type="line"/>
      <point x="458.867" y="402"/>
      <point x="476.256" y="437.959"/>
      <point x="476.256" y="474" type="curve" smooth="yes"/>
      <point x="476.256" y="530.043"/>
      <point x="433.808" y="557"/>
      <point x="393.423" y="557" type="curve" smooth="yes"/>
      <point x="345.061" y="557"/>
      <point x="302.979" y="524.746"/>
      <point x="302.979" y="454" type="curve" smooth="yes"/>
      <point x="302.979" y="435"/>
      <point x="302.979" y="416"/>
      <point x="302.979" y="402" type="curve"/>
      <point x="285.979" y="369" type="line"/>
      <point x="276.262" y="397.663"/>
      <point x="268.978" y="421.384"/>
    </contour>
    <contour>
      <point x="70" y="194.103" type="curve" smooth="yes"/>
      <point x="70" y="107.481"/>
      <point x="101.954" y="40"/>
      <point x="167.979" y="40" type="curve" smooth="yes"/>
      <point x="259.145" y="40"/>
      <point x="265.736" y="148.886"/>
      <point x="268.979" y="224.5" type="curve"/>
      <point x="302.979" y="224.5" type="line"/>
      <point x="306.221" y="148.886"/>
      <point x="312.812" y="40"/>
      <point x="403.979" y="40" type="curve" smooth="yes"/>
      <point x="470.003" y="40"/>
      <point x="501.957" y="107.481"/>
      <point x="501.957" y="194.103" type="curve" smooth="yes"/>
      <point x="501.957" y="252"/>
      <point x="491.145" y="369"/>
      <point x="406.979" y="369" type="curve" smooth="yes"/>
      <point x="164.979" y="369" type="line" smooth="yes"/>
      <point x="81.1299" y="369"/>
      <point x="70" y="252"/>
    </contour>
    <contour>
      <point x="33" y="194.103" type="curve" smooth="yes"/>
      <point x="33" y="255.352"/>
      <point x="45.7002" y="336.482"/>
      <point x="91.1104" y="378" type="curve" smooth="yes"/>
      <point x="109.385" y="394.708"/>
      <point x="133.145" y="405"/>
      <point x="163.129" y="405" type="curve" smooth="yes"/>
      <point x="408.828" y="405" type="line" smooth="yes"/>
      <point x="439.145" y="405"/>
      <point x="462.572" y="394.708"/>
      <point x="480.847" y="378" type="curve" smooth="yes"/>
      <point x="526.257" y="336.482"/>
      <point x="538.957" y="255.352"/>
      <point x="538.957" y="194.103" type="curve" smooth="yes"/>
      <point x="538.957" y="86.6836"/>
      <point x="494.936" y="3"/>
      <point x="403.979" y="3" type="curve" smooth="yes"/>
      <point x="308.812" y="3"/>
      <point x="289.812" y="85"/>
      <point x="285.979" y="115" type="curve"/>
      <point x="282.145" y="85"/>
      <point x="263.145" y="3"/>
      <point x="167.979" y="3" type="curve" smooth="yes"/>
      <point x="77.0215" y="3"/>
      <point x="33" y="86.6836"/>
    </contour>
    <contour>
      <point x="62.2246" y="474" type="curve" smooth="yes"/>
      <point x="62.2246" y="553"/>
      <point x="121.827" y="591"/>
      <point x="178.533" y="591" type="curve" smooth="yes"/>
      <point x="234.729" y="591"/>
      <point x="287.392" y="558.491"/>
      <point x="300.085" y="488" type="curve" smooth="yes"/>
      <point x="301.974" y="477.514"/>
      <point x="302.978" y="466.186"/>
      <point x="302.978" y="454" type="curve" smooth="yes"/>
      <point x="302.978" y="421.384"/>
      <point x="295.693" y="397.663"/>
      <point x="285.978" y="369" type="curve"/>
      <point x="268.978" y="402" type="line"/>
      <point x="268.978" y="416"/>
      <point x="268.978" y="435"/>
      <point x="268.978" y="454" type="curve" smooth="yes"/>
      <point x="268.978" y="524.746"/>
      <point x="226.896" y="557"/>
      <point x="178.533" y="557" type="curve" smooth="yes"/>
      <point x="138.148" y="557"/>
      <point x="95.7002" y="530.043"/>
      <point x="95.7002" y="474" type="curve" smooth="yes"/>
      <point x="95.7002" y="437.959"/>
      <point x="113.089" y="402"/>
      <point x="140.089" y="382" type="curve"/>
      <point x="114.089" y="361" type="line"/>
      <point x="82.542" y="385.565"/>
      <point x="62.2246" y="429.732"/>
    </contour>
    <component base="si_MatraR" xOffset="516.145"/>
  </outline>
</glyph>
<glyph name="si_vocalicL" format="1">
  <advance width="860"/>
  <unicode hex="0D8F"/>
  <outline>
    <contour>
      <point x="658.359" y="95.1299" type="curve" smooth="yes"/>
      <point x="658.359" y="64.166"/>
      <point x="683.1" y="38.5674"/>
      <point x="714.359" y="38.5674" type="curve" smooth="yes"/>
      <point x="745.641" y="38.5674"/>
      <point x="770.359" y="64.1719"/>
      <point x="770.359" y="95.1299" type="curve" smooth="yes"/>
      <point x="770.359" y="126.093"/>
      <point x="745.62" y="151.692"/>
      <point x="714.359" y="151.692" type="curve" smooth="yes"/>
      <point x="683.077" y="151.692"/>
      <point x="658.359" y="126.087"/>
    </contour>
    <contour>
      <point x="622.837" y="94.9385" type="curve" smooth="yes"/>
      <point x="622.837" y="145.557"/>
      <point x="664.157" y="185.845"/>
      <point x="714.775" y="185.845" type="curve" smooth="yes"/>
      <point x="765.394" y="185.845"/>
      <point x="805.682" y="145.557"/>
      <point x="805.682" y="94.9385" type="curve" smooth="yes"/>
      <point x="805.682" y="44.3203"/>
      <point x="765.394" y="3"/>
      <point x="714.775" y="3" type="curve" smooth="yes"/>
      <point x="664.157" y="3"/>
      <point x="622.837" y="44.3203"/>
    </contour>
    <contour>
      <point x="790.888" y="284.562" type="curve" smooth="yes"/>
      <point x="790.888" y="447.648"/>
      <point x="759.854" y="542.562"/>
      <point x="710.888" y="542.562" type="curve" smooth="yes"/>
      <point x="679.786" y="542.562"/>
      <point x="655.538" y="522.221"/>
      <point x="654.196" y="474.563" type="curve"/>
      <point x="620.721" y="474.563" type="line"/>
      <point x="620.721" y="534.562"/>
      <point x="649.882" y="579.562"/>
      <point x="710.888" y="579.562" type="curve" smooth="yes"/>
      <point x="767.63" y="579.562"/>
      <point x="827.888" y="517.552"/>
      <point x="827.888" y="284.562" type="curve" smooth="yes"/>
      <point x="827.888" y="86.2939"/>
      <point x="804.359" y="3"/>
      <point x="714.775" y="3" type="curve"/>
      <point x="714.359" y="38.5674" type="line"/>
      <point x="753.256" y="38.5674"/>
      <point x="778.359" y="60"/>
      <point x="779.359" y="123" type="curve"/>
      <point x="786.705" y="163.746"/>
      <point x="790.888" y="215.385"/>
    </contour>
    <contour>
      <point x="413.443" y="454" type="curve" smooth="yes"/>
      <point x="413.443" y="466.186"/>
      <point x="414.448" y="477.513"/>
      <point x="416.338" y="488" type="curve" smooth="yes"/>
      <point x="429.034" y="558.491"/>
      <point x="481.692" y="591"/>
      <point x="537.889" y="591" type="curve" smooth="yes"/>
      <point x="594.595" y="591"/>
      <point x="654.197" y="553"/>
      <point x="654.197" y="474" type="curve" smooth="yes"/>
      <point x="654.197" y="429.732"/>
      <point x="633.88" y="385.565"/>
      <point x="602.333" y="361" type="curve"/>
      <point x="576.333" y="382" type="line"/>
      <point x="603.333" y="402"/>
      <point x="620.722" y="437.959"/>
      <point x="620.722" y="474" type="curve" smooth="yes"/>
      <point x="620.722" y="530.043"/>
      <point x="578.273" y="557"/>
      <point x="537.889" y="557" type="curve" smooth="yes"/>
      <point x="489.526" y="557"/>
      <point x="447.444" y="524.746"/>
      <point x="447.444" y="454" type="curve" smooth="yes"/>
      <point x="447.444" y="435"/>
      <point x="447.444" y="416"/>
      <point x="447.444" y="402" type="curve"/>
      <point x="430.444" y="369" type="line"/>
      <point x="420.728" y="397.663"/>
      <point x="413.443" y="421.384"/>
    </contour>
    <contour>
      <point x="211.611" y="224.437" type="curve" smooth="yes"/>
      <point x="211.611" y="107.242"/>
      <point x="297.636" y="30"/>
      <point x="430.445" y="30" type="curve" smooth="yes"/>
      <point x="563.255" y="30"/>
      <point x="649.279" y="107.242"/>
      <point x="649.279" y="224.437" type="curve" smooth="yes"/>
      <point x="649.279" y="299.844"/>
      <point x="610.803" y="365"/>
      <point x="526.611" y="365" type="curve" smooth="yes"/>
      <point x="334.279" y="365" type="line" smooth="yes"/>
      <point x="250.088" y="365"/>
      <point x="211.611" y="299.844"/>
    </contour>
    <contour>
      <point x="174.611" y="224.437" type="curve" smooth="yes"/>
      <point x="174.611" y="319.693"/>
      <point x="228" y="402"/>
      <point x="334.279" y="402" type="curve" smooth="yes"/>
      <point x="526.611" y="402" type="line" smooth="yes"/>
      <point x="633" y="402"/>
      <point x="686.279" y="319.693"/>
      <point x="686.279" y="224.437" type="curve" smooth="yes"/>
      <point x="686.279" y="189.749"/>
      <point x="680.075" y="158.002"/>
      <point x="668.362" y="129.878" type="curve"/>
      <point x="664.415" y="125.641"/>
      <point x="661.334" y="121.161"/>
      <point x="659.402" y="116" type="curve" smooth="yes"/>
      <point x="658.397" y="113.315"/>
      <point x="657.704" y="110.447"/>
      <point x="657.362" y="107.332" type="curve"/>
      <point x="616.98" y="35.8125"/>
      <point x="536.56" y="-7"/>
      <point x="430.445" y="-7" type="curve" smooth="yes"/>
      <point x="324.331" y="-7"/>
      <point x="243.91" y="35.8125"/>
      <point x="203.528" y="107.332" type="curve"/>
      <point x="203.187" y="110.447"/>
      <point x="202.493" y="113.315"/>
      <point x="201.488" y="116" type="curve" smooth="yes"/>
      <point x="199.557" y="121.161"/>
      <point x="196.476" y="125.641"/>
      <point x="192.528" y="129.878" type="curve"/>
      <point x="180.815" y="158.002"/>
      <point x="174.611" y="189.749"/>
    </contour>
    <contour>
      <point x="206.69" y="474" type="curve" smooth="yes"/>
      <point x="206.69" y="553"/>
      <point x="266.293" y="591"/>
      <point x="322.999" y="591" type="curve" smooth="yes"/>
      <point x="379.195" y="591"/>
      <point x="431.857" y="558.491"/>
      <point x="444.551" y="488" type="curve" smooth="yes"/>
      <point x="446.439" y="477.514"/>
      <point x="447.443" y="466.186"/>
      <point x="447.443" y="454" type="curve" smooth="yes"/>
      <point x="447.443" y="421.384"/>
      <point x="440.159" y="397.663"/>
      <point x="430.443" y="369" type="curve"/>
      <point x="413.443" y="402" type="line"/>
      <point x="413.443" y="416"/>
      <point x="413.443" y="435"/>
      <point x="413.443" y="454" type="curve" smooth="yes"/>
      <point x="413.443" y="524.746"/>
      <point x="371.361" y="557"/>
      <point x="322.999" y="557" type="curve" smooth="yes"/>
      <point x="282.614" y="557"/>
      <point x="240.166" y="530.043"/>
      <point x="240.166" y="474" type="curve" smooth="yes"/>
      <point x="240.166" y="437.959"/>
      <point x="257.555" y="402"/>
      <point x="284.555" y="382" type="curve"/>
      <point x="258.555" y="361" type="line"/>
      <point x="227.008" y="385.565"/>
      <point x="206.69" y="429.732"/>
    </contour>
    <contour>
      <point x="33" y="284.562" type="curve" smooth="yes"/>
      <point x="33" y="517.552"/>
      <point x="93.2578" y="579.562"/>
      <point x="150" y="579.562" type="curve" smooth="yes"/>
      <point x="211.006" y="579.562"/>
      <point x="240.167" y="534.562"/>
      <point x="240.167" y="474.563" type="curve"/>
      <point x="206.691" y="474.563" type="line"/>
      <point x="205.35" y="522.221"/>
      <point x="181.102" y="542.562"/>
      <point x="150" y="542.562" type="curve" smooth="yes"/>
      <point x="101.033" y="542.562"/>
      <point x="70" y="447.648"/>
      <point x="70" y="284.562" type="curve" smooth="yes"/>
      <point x="70" y="215.385"/>
      <point x="74.1826" y="163.746"/>
      <point x="81.5283" y="123" type="curve"/>
      <point x="82.5283" y="60"/>
      <point x="107.632" y="38.5674"/>
      <point x="146.528" y="38.5674" type="curve"/>
      <point x="146.112" y="3" type="line"/>
      <point x="56.5283" y="3"/>
      <point x="33" y="86.2939"/>
    </contour>
    <contour>
      <point x="90.5283" y="95.1299" type="curve" smooth="yes"/>
      <point x="90.5283" y="64.1719"/>
      <point x="115.247" y="38.5674"/>
      <point x="146.528" y="38.5674" type="curve" smooth="yes"/>
      <point x="177.788" y="38.5674"/>
      <point x="202.528" y="64.166"/>
      <point x="202.528" y="95.1299" type="curve" smooth="yes"/>
      <point x="202.528" y="126.087"/>
      <point x="177.811" y="151.692"/>
      <point x="146.528" y="151.692" type="curve" smooth="yes"/>
      <point x="115.268" y="151.692"/>
      <point x="90.5283" y="126.093"/>
    </contour>
    <contour>
      <point x="55.2061" y="94.9385" type="curve" smooth="yes"/>
      <point x="55.2061" y="145.557"/>
      <point x="95.4941" y="185.845"/>
      <point x="146.112" y="185.845" type="curve" smooth="yes"/>
      <point x="196.73" y="185.845"/>
      <point x="238.051" y="145.557"/>
      <point x="238.051" y="94.9385" type="curve" smooth="yes"/>
      <point x="238.051" y="44.3203"/>
      <point x="196.73" y="3"/>
      <point x="146.112" y="3" type="curve" smooth="yes"/>
      <point x="95.4941" y="3"/>
      <point x="55.2061" y="44.3203"/>
    </contour>
  </outline>
</glyph>
<glyph name="si_E" format="1">
  <advance width="574"/>
  <unicode hex="0D91"/>
  <outline>
    <contour>
      <point x="324.417" y="603" type="curve" smooth="yes"/>
      <point x="324.417" y="667.298"/>
      <point x="366.9" y="706.649"/>
      <point x="366.9" y="740.685" type="curve" smooth="yes"/>
      <point x="366.9" y="754.219"/>
      <point x="360.183" y="766.912"/>
      <point x="341.405" y="780" type="curve"/>
      <point x="341.405" y="780"/>
      <point x="405.015" y="761"/>
      <point x="405.015" y="761" type="curve"/>
      <point x="402.67" y="749.59"/>
      <point x="399.114" y="726.29"/>
      <point x="399.114" y="726.29" type="curve"/>
      <point x="399.114" y="693.053"/>
      <point x="360.405" y="661.163"/>
      <point x="360.405" y="603" type="curve" smooth="yes"/>
      <point x="360.405" y="561.562"/>
      <point x="402.151" y="524.959"/>
      <point x="465.374" y="524.959" type="curve" smooth="yes"/>
      <point x="473.831" y="524.959"/>
      <point x="482.672" y="525.614"/>
      <point x="491.849" y="527" type="curve"/>
      <point x="515.015" y="522" type="line"/>
      <point x="499.849" y="494" type="line"/>
      <point x="487.601" y="492.013"/>
      <point x="475.802" y="491.073"/>
      <point x="464.515" y="491.073" type="curve" smooth="yes"/>
      <point x="380.134" y="491.073"/>
      <point x="324.417" y="543.567"/>
    </contour>
    <contour>
      <point x="88.834" y="207" type="curve" smooth="yes"/>
      <point x="88.834" y="309.342"/>
      <point x="138.834" y="349"/>
      <point x="147.834" y="354" type="curve"/>
      <point x="74.5908" y="354" type="line"/>
      <point x="74.5908" y="389" type="line"/>
      <point x="347.11" y="389" type="line"/>
      <point x="354.834" y="354" type="line"/>
      <point x="224.834" y="354" type="line" smooth="yes"/>
      <point x="173.834" y="354"/>
      <point x="124.834" y="296.709"/>
      <point x="124.834" y="208" type="curve" smooth="yes"/>
      <point x="124.834" y="142.715"/>
      <point x="156.984" y="40"/>
      <point x="293.834" y="40" type="curve" smooth="yes"/>
      <point x="432.015" y="40"/>
      <point x="507" y="150.386"/>
      <point x="507" y="342" type="curve" smooth="yes"/>
      <point x="507" y="410.759"/>
      <point x="502.766" y="471.187"/>
      <point x="491.874" y="524" type="curve"/>
      <point x="470.696" y="608.981"/>
      <point x="437.664" y="674.718"/>
      <point x="397.835" y="724" type="curve"/>
      <point x="380.21" y="745.808"/>
      <point x="361.254" y="764.394"/>
      <point x="341.405" y="780" type="curve"/>
      <point x="364.405" y="807" type="line"/>
      <point x="483.414" y="715.402"/>
      <point x="544" y="562.866"/>
      <point x="544" y="342" type="curve" smooth="yes"/>
      <point x="544" y="126.91"/>
      <point x="456" y="3"/>
      <point x="293.834" y="3" type="curve" smooth="yes"/>
      <point x="127.834" y="3"/>
      <point x="88.834" y="127.726"/>
    </contour>
    <contour>
      <point x="122.834" y="420" type="curve" smooth="yes"/>
      <point x="122.834" y="488"/>
      <point x="174.178" y="524"/>
      <point x="232.834" y="524" type="curve" smooth="yes"/>
      <point x="297.391" y="524"/>
      <point x="357.278" y="481.099"/>
      <point x="357.278" y="387" type="curve" smooth="yes"/>
      <point x="357.278" y="375.04"/>
      <point x="356.393" y="364.262"/>
      <point x="354.834" y="354" type="curve"/>
      <point x="323.454" y="379" type="line"/>
      <point x="323.361" y="381.638"/>
      <point x="323.278" y="384.229"/>
      <point x="323.278" y="387" type="curve" smooth="yes"/>
      <point x="323.278" y="457.746"/>
      <point x="281.196" y="490"/>
      <point x="232.834" y="490" type="curve" smooth="yes"/>
      <point x="190.877" y="490"/>
      <point x="156.31" y="467"/>
      <point x="156.31" y="420" type="curve" smooth="yes"/>
      <point x="156.31" y="406.329"/>
      <point x="159.299" y="394.165"/>
      <point x="164.215" y="384" type="curve" smooth="yes"/>
      <point x="135.345" y="370" type="line" smooth="yes"/>
      <point x="127.991" y="384.32"/>
      <point x="122.834" y="401.846"/>
    </contour>
  </outline>
</glyph>
<glyph name="si_Ee" format="1">
  <advance width="566"/>
  <unicode hex="0D92"/>
  <outline>
    <contour>
      <point x="443.409" y="819" type="line"/>
      <point x="480.409" y="819" type="line"/>
      <point x="480.409" y="496" type="line"/>
      <point x="443.409" y="496" type="line"/>
    </contour>
    <component base="si_E"/>
  </outline>
</glyph>
<glyph name="si_Os" format="1">
  <advance width="590"/>
  <unicode hex="0D94"/>
  <outline>
    <contour>
      <point x="53.2373" y="250.999" type="curve" smooth="yes"/>
      <point x="53.2373" y="390.371"/>
      <point x="84.25" y="523.999"/>
      <point x="171.876" y="523.999" type="curve" smooth="yes"/>
      <point x="237.237" y="523.999"/>
      <point x="261.237" y="474"/>
      <point x="261.237" y="426" type="curve"/>
      <point x="226.237" y="419" type="line"/>
      <point x="226.237" y="470.221"/>
      <point x="201.938" y="489"/>
      <point x="172.237" y="489" type="curve" smooth="yes"/>
      <point x="112.237" y="489"/>
      <point x="90.2373" y="368"/>
      <point x="90.2373" y="250.999" type="curve" smooth="yes"/>
      <point x="90.2373" y="167.891"/>
      <point x="93.9541" y="40"/>
      <point x="175.834" y="40" type="curve" smooth="yes"/>
      <point x="267" y="40"/>
      <point x="273.592" y="148.886"/>
      <point x="276.834" y="224.5" type="curve"/>
      <point x="310.834" y="224.5" type="line"/>
      <point x="314.076" y="148.886"/>
      <point x="320.668" y="40"/>
      <point x="411.834" y="40" type="curve" smooth="yes"/>
      <point x="504.567" y="40"/>
      <point x="511.391" y="164"/>
      <point x="511.391" y="293" type="curve" smooth="yes"/>
      <point x="511.391" y="576.887"/>
      <point x="436.939" y="712"/>
      <point x="283.834" y="712" type="curve" smooth="yes"/>
      <point x="212.962" y="712"/>
      <point x="144.485" y="665.927"/>
      <point x="121.161" y="605" type="curve"/>
      <point x="87.1611" y="618" type="line"/>
      <point x="115.36" y="692.593"/>
      <point x="198.148" y="749"/>
      <point x="283.834" y="749" type="curve" smooth="yes"/>
      <point x="461.834" y="749"/>
      <point x="548.391" y="601.955"/>
      <point x="548.391" y="293" type="curve" smooth="yes"/>
      <point x="548.391" y="145.135"/>
      <point x="539.031" y="3"/>
      <point x="411.834" y="3" type="curve" smooth="yes"/>
      <point x="316.668" y="3"/>
      <point x="297.668" y="85"/>
      <point x="293.834" y="115" type="curve"/>
      <point x="290" y="85"/>
      <point x="271" y="3"/>
      <point x="175.834" y="3" type="curve" smooth="yes"/>
      <point x="61.2373" y="3"/>
      <point x="53.2373" y="153.317"/>
    </contour>
    <contour>
      <point x="223.237" y="370" type="curve" smooth="yes"/>
      <point x="223.237" y="385.759"/>
      <point x="226.237" y="397"/>
      <point x="226.237" y="419" type="curve"/>
      <point x="261.237" y="426" type="line"/>
      <point x="261.237" y="415.977"/>
      <point x="259.237" y="386.338"/>
      <point x="259.237" y="370" type="curve" smooth="yes"/>
      <point x="259.237" y="346"/>
      <point x="265.463" y="317"/>
      <point x="302.237" y="317" type="curve" smooth="yes"/>
      <point x="345.433" y="317"/>
      <point x="346.237" y="381.961"/>
      <point x="346.237" y="402" type="curve" smooth="yes"/>
      <point x="346.237" y="422.039"/>
      <point x="345.433" y="487"/>
      <point x="302.237" y="487" type="curve" smooth="yes"/>
      <point x="278.463" y="487"/>
      <point x="262.237" y="470"/>
      <point x="258.237" y="441" type="curve"/>
      <point x="227.237" y="444" type="line"/>
      <point x="232.237" y="486"/>
      <point x="254.237" y="523"/>
      <point x="302.237" y="523" type="curve" smooth="yes"/>
      <point x="380.774" y="523"/>
      <point x="382.237" y="430.526"/>
      <point x="382.237" y="402" type="curve" smooth="yes"/>
      <point x="382.237" y="373.474"/>
      <point x="380.774" y="281"/>
      <point x="302.237" y="281" type="curve" smooth="yes"/>
      <point x="245.246" y="281"/>
      <point x="223.237" y="322.966"/>
    </contour>
  </outline>
</glyph>
<glyph name="si_Oo" format="1">
  <advance width="561"/>
  <unicode hex="0D95"/>
  <outline>
    <contour>
      <point x="47.8535" y="746" type="curve" smooth="yes"/>
      <point x="47.8535" y="795.266"/>
      <point x="91.3633" y="864"/>
      <point x="251.854" y="864" type="curve" smooth="yes"/>
      <point x="377.415" y="864"/>
      <point x="479.763" y="801.028"/>
      <point x="479.763" y="712" type="curve" smooth="yes"/>
      <point x="479.763" y="659"/>
      <point x="445.516" y="621"/>
      <point x="396.763" y="602" type="curve"/>
      <point x="366.763" y="611" type="line"/>
      <point x="388.763" y="636" type="line"/>
      <point x="420.481" y="649.127"/>
      <point x="442.763" y="675.382"/>
      <point x="442.763" y="712" type="curve" smooth="yes"/>
      <point x="442.763" y="779.357"/>
      <point x="357.03" y="827"/>
      <point x="251.854" y="827" type="curve" smooth="yes"/>
      <point x="120.472" y="827"/>
      <point x="84.8535" y="779.817"/>
      <point x="84.8535" y="746" type="curve" smooth="yes"/>
      <point x="84.8535" y="712.768"/>
      <point x="112.037" y="683.519"/>
      <point x="137.854" y="668" type="curve"/>
      <point x="138.854" y="637" type="line"/>
      <point x="110.854" y="646" type="line"/>
      <point x="80.167" y="665.896"/>
      <point x="47.8535" y="703.395"/>
    </contour>
    <contour>
      <point x="13" y="250.999" type="curve" smooth="yes"/>
      <point x="13" y="390.371"/>
      <point x="44.0127" y="523.999"/>
      <point x="131.639" y="523.999" type="curve" smooth="yes"/>
      <point x="197" y="523.999"/>
      <point x="221" y="474"/>
      <point x="221" y="426" type="curve"/>
      <point x="186" y="419" type="line"/>
      <point x="186" y="470.221"/>
      <point x="161.7" y="489"/>
      <point x="132" y="489" type="curve" smooth="yes"/>
      <point x="72" y="489"/>
      <point x="50" y="368"/>
      <point x="50" y="250.999" type="curve" smooth="yes"/>
      <point x="50" y="167.891"/>
      <point x="53.7168" y="40"/>
      <point x="135.597" y="40" type="curve" smooth="yes"/>
      <point x="226.763" y="40"/>
      <point x="233.354" y="148.886"/>
      <point x="236.597" y="224.5" type="curve"/>
      <point x="270.597" y="224.5" type="line"/>
      <point x="273.839" y="148.886"/>
      <point x="280.431" y="40"/>
      <point x="371.597" y="40" type="curve" smooth="yes"/>
      <point x="464.33" y="40"/>
      <point x="471.153" y="164"/>
      <point x="471.153" y="293" type="curve" smooth="yes"/>
      <point x="471.153" y="582"/>
      <point x="343.693" y="651"/>
      <point x="224.854" y="651" type="curve" smooth="yes"/>
      <point x="154.914" y="651"/>
      <point x="113.367" y="621.477"/>
      <point x="74.8535" y="591" type="curve"/>
      <point x="50.8535" y="620" type="line"/>
      <point x="99.4121" y="663.099"/>
      <point x="168.694" y="688"/>
      <point x="224.854" y="688" type="curve" smooth="yes"/>
      <point x="361.546" y="688"/>
      <point x="508.153" y="611.869"/>
      <point x="508.153" y="293" type="curve" smooth="yes"/>
      <point x="508.153" y="145.135"/>
      <point x="498.794" y="3"/>
      <point x="371.597" y="3" type="curve" smooth="yes"/>
      <point x="276.431" y="3"/>
      <point x="257.431" y="85"/>
      <point x="253.597" y="115" type="curve"/>
      <point x="249.763" y="85"/>
      <point x="230.763" y="3"/>
      <point x="135.597" y="3" type="curve" smooth="yes"/>
      <point x="21" y="3"/>
      <point x="13" y="153.317"/>
    </contour>
    <contour>
      <point x="183" y="370" type="curve" smooth="yes"/>
      <point x="183" y="385.759"/>
      <point x="186" y="397"/>
      <point x="186" y="419" type="curve"/>
      <point x="221" y="426" type="line"/>
      <point x="221" y="415.977"/>
      <point x="219" y="386.338"/>
      <point x="219" y="370" type="curve" smooth="yes"/>
      <point x="219" y="346"/>
      <point x="225.226" y="317"/>
      <point x="262" y="317" type="curve" smooth="yes"/>
      <point x="305.195" y="317"/>
      <point x="306" y="381.961"/>
      <point x="306" y="402" type="curve" smooth="yes"/>
      <point x="306" y="422.039"/>
      <point x="305.195" y="487"/>
      <point x="262" y="487" type="curve" smooth="yes"/>
      <point x="238.226" y="487"/>
      <point x="222" y="470"/>
      <point x="218" y="441" type="curve"/>
      <point x="187" y="444" type="line"/>
      <point x="192" y="486"/>
      <point x="214" y="523"/>
      <point x="262" y="523" type="curve" smooth="yes"/>
      <point x="340.537" y="523"/>
      <point x="342" y="430.526"/>
      <point x="342" y="402" type="curve" smooth="yes"/>
      <point x="342" y="373.474"/>
      <point x="340.537" y="281"/>
      <point x="262" y="281" type="curve" smooth="yes"/>
      <point x="205.009" y="281"/>
      <point x="183" y="322.966"/>
    </contour>
  </outline>
</glyph>
<glyph name="si_Ka" format="1">
  <advance width="810"/>
  <unicode hex="0D9A"/>
  <outline>
    <contour>
      <point x="522.043" y="196" type="curve" smooth="yes"/>
      <point x="522.043" y="123.089"/>
      <point x="509.498" y="3"/>
      <point x="406" y="3" type="curve" smooth="yes"/>
      <point x="347.939" y="3"/>
      <point x="323" y="48"/>
      <point x="322" y="79" type="curve"/>
      <point x="322" y="48"/>
      <point x="299.145" y="3"/>
      <point x="238" y="3" type="curve" smooth="yes"/>
      <point x="170.809" y="3"/>
      <point x="154" y="48.0372"/>
      <point x="154" y="105" type="curve" smooth="yes"/>
      <point x="154" y="120.909"/>
      <point x="160.222" y="169.773"/>
      <point x="138" y="155" type="curve"/>
      <point x="162" y="190" type="line"/>
      <point x="192.643" y="198.608"/>
      <point x="188" y="129.747"/>
      <point x="188" y="105" type="curve" smooth="yes"/>
      <point x="188" y="68.7002"/>
      <point x="198.005" y="40"/>
      <point x="238" y="40" type="curve" smooth="yes"/>
      <point x="293" y="40"/>
      <point x="304" y="108.077"/>
      <point x="304" y="170" type="curve"/>
      <point x="340" y="170" type="line"/>
      <point x="340" y="108.077"/>
      <point x="351" y="40"/>
      <point x="406" y="40" type="curve" smooth="yes"/>
      <point x="482.448" y="40"/>
      <point x="485" y="157.619"/>
      <point x="485" y="196" type="curve" smooth="yes"/>
      <point x="485" y="336.163"/>
      <point x="433.233" y="387.667"/>
      <point x="374" y="387.667" type="curve" smooth="yes"/>
      <point x="335" y="387.667"/>
      <point x="316" y="375"/>
      <point x="299" y="360" type="curve"/>
      <point x="285" y="382" type="line"/>
      <point x="308" y="402"/>
      <point x="337" y="424.667"/>
      <point x="374" y="424.667" type="curve" smooth="yes"/>
      <point x="453" y="424.667"/>
      <point x="522.043" y="363.221"/>
    </contour>
    <contour>
      <point x="504" y="95" type="line"/>
      <point x="510.612" y="65"/>
      <point x="535.446" y="40"/>
      <point x="584" y="40" type="curve" smooth="yes"/>
      <point x="647.107" y="40"/>
      <point x="698" y="98.99"/>
      <point x="698" y="263" type="curve" smooth="yes"/>
      <point x="698" y="469.223"/>
      <point x="619.649" y="545"/>
      <point x="530" y="545" type="curve" smooth="yes"/>
      <point x="461.79" y="545"/>
      <point x="406.786" y="494.647"/>
      <point x="358" y="433" type="curve" smooth="yes"/>
      <point x="138" y="155" type="line"/>
      <point x="113" y="184" type="line"/>
      <point x="331" y="458" type="line" smooth="yes"/>
      <point x="386.472" y="527.722"/>
      <point x="452.542" y="582"/>
      <point x="530" y="582" type="curve" smooth="yes"/>
      <point x="639.393" y="582"/>
      <point x="735" y="496.28"/>
      <point x="735" y="263" type="curve" smooth="yes"/>
      <point x="735" y="90.4226"/>
      <point x="686.356" y="3"/>
      <point x="584" y="3" type="curve" smooth="yes"/>
      <point x="514.81" y="3"/>
      <point x="479.421" y="40.7273"/>
      <point x="470" y="86" type="curve"/>
    </contour>
    <contour>
      <point x="149.723" y="474" type="curve" smooth="yes"/>
      <point x="149.723" y="407.776"/>
      <point x="193" y="368"/>
      <point x="270" y="356" type="curve"/>
      <point x="262" y="325" type="line"/>
      <point x="175" y="338"/>
      <point x="116.247" y="390.378"/>
      <point x="116.247" y="474" type="curve" smooth="yes"/>
      <point x="116.247" y="553"/>
      <point x="175.85" y="591"/>
      <point x="232.556" y="591" type="curve" smooth="yes"/>
      <point x="297.112" y="591"/>
      <point x="357" y="548.099"/>
      <point x="357" y="454" type="curve" smooth="yes"/>
      <point x="323" y="402" type="line"/>
      <point x="323" y="416"/>
      <point x="323" y="435"/>
      <point x="323" y="454" type="curve" smooth="yes"/>
      <point x="323" y="524.746"/>
      <point x="280.918" y="557"/>
      <point x="232.556" y="557" type="curve" smooth="yes"/>
      <point x="192.17" y="557"/>
      <point x="149.723" y="530.043"/>
    </contour>
  </outline>
</glyph>
<glyph name="si_Kha" format="1">
  <advance width="563"/>
  <unicode hex="0D9B"/>
  <outline>
    <contour>
      <point x="226" y="-55" type="line"/>
      <point x="220" y="5"/>
      <point x="220.114" y="93.6807"/>
      <point x="220.114" y="138" type="curve" smooth="yes"/>
      <point x="220.114" y="242"/>
      <point x="289" y="259"/>
      <point x="289" y="345" type="curve" smooth="yes"/>
      <point x="289" y="414.346"/>
      <point x="267.175" y="450"/>
      <point x="200.061" y="450" type="curve" smooth="yes"/>
      <point x="132.497" y="450"/>
      <point x="74" y="392.183"/>
      <point x="74" y="220" type="curve" smooth="yes"/>
      <point x="74" y="105.194"/>
      <point x="99.7787" y="39"/>
      <point x="159" y="39" type="curve" smooth="yes"/>
      <point x="197.885" y="39"/>
      <point x="224.538" y="79"/>
      <point x="231" y="115" type="curve"/>
      <point x="261" y="108" type="line"/>
      <point x="251.556" y="52"/>
      <point x="220.124" y="3"/>
      <point x="159" y="3" type="curve" smooth="yes"/>
      <point x="74" y="3"/>
      <point x="37" y="82.3594"/>
      <point x="37" y="220" type="curve" smooth="yes"/>
      <point x="37" y="419.134"/>
      <point x="112.666" y="486"/>
      <point x="200.061" y="486" type="curve" smooth="yes"/>
      <point x="291.595" y="486"/>
      <point x="325" y="437.897"/>
      <point x="325" y="345" type="curve" smooth="yes"/>
      <point x="325" y="248"/>
      <point x="256" y="229"/>
      <point x="256" y="138" type="curve" smooth="yes"/>
      <point x="256" y="98.2256"/>
      <point x="259" y="7"/>
      <point x="263" y="-52" type="curve"/>
    </contour>
    <contour>
      <point x="307" y="274" type="line"/>
      <point x="304" y="190"/>
      <point x="319" y="39"/>
      <point x="403" y="39" type="curve" smooth="yes"/>
      <point x="483" y="39"/>
      <point x="489.619" y="145.855"/>
      <point x="489.619" y="293" type="curve" smooth="yes"/>
      <point x="489.619" y="576.887"/>
      <point x="415.168" y="712"/>
      <point x="262.062" y="712" type="curve" smooth="yes"/>
      <point x="191.19" y="712"/>
      <point x="122.714" y="665.927"/>
      <point x="99.3896" y="605" type="curve"/>
      <point x="65.3896" y="618" type="line"/>
      <point x="93.5889" y="692.593"/>
      <point x="176.377" y="749"/>
      <point x="262.062" y="749" type="curve" smooth="yes"/>
      <point x="440.062" y="749"/>
      <point x="526.619" y="601.955"/>
      <point x="526.619" y="293" type="curve" smooth="yes"/>
      <point x="526.619" y="125"/>
      <point x="515.952" y="3"/>
      <point x="395" y="3" type="curve" smooth="yes"/>
      <point x="276" y="3"/>
      <point x="268" y="182"/>
      <point x="273" y="273" type="curve"/>
    </contour>
  </outline>
</glyph>
<glyph name="si_Ga" format="1">
  <advance width="679"/>
  <unicode hex="0D9C"/>
  <outline>
    <contour>
      <point x="218" y="276" type="line"/>
      <point x="262.565" y="295.978"/>
      <point x="268.831" y="338.024"/>
      <point x="268.831" y="369.95" type="curve" smooth="yes"/>
      <point x="268.831" y="382.439"/>
      <point x="267.872" y="393.38"/>
      <point x="267.872" y="400.844" type="curve" smooth="yes"/>
      <point x="267.872" y="512.851"/>
      <point x="337" y="581"/>
      <point x="417" y="581" type="curve" smooth="yes"/>
      <point x="509.438" y="581"/>
      <point x="592.372" y="528"/>
      <point x="592.372" y="292" type="curve" smooth="yes"/>
      <point x="592.372" y="57"/>
      <point x="510.041" y="3"/>
      <point x="424" y="3" type="curve" smooth="yes"/>
      <point x="368.235" y="3"/>
      <point x="331.761" y="31.6816"/>
      <point x="313" y="70.7969" type="curve" smooth="yes"/>
      <point x="336.372" y="123" type="line"/>
      <point x="339.372" y="83"/>
      <point x="371.372" y="40"/>
      <point x="424" y="40" type="curve" smooth="yes"/>
      <point x="490.878" y="40"/>
      <point x="554.872" y="87.0869"/>
      <point x="554.872" y="292" type="curve" smooth="yes"/>
      <point x="554.872" y="497.785"/>
      <point x="490.701" y="544"/>
      <point x="417" y="544" type="curve" smooth="yes"/>
      <point x="341.452" y="544"/>
      <point x="304.872" y="474.387"/>
      <point x="304.872" y="400.844" type="curve" smooth="yes"/>
      <point x="304.872" y="392.56"/>
      <point x="305.457" y="382.064"/>
      <point x="305.457" y="370.388" type="curve" smooth="yes"/>
      <point x="305.457" y="328.728"/>
      <point x="298.013" y="272.025"/>
      <point x="230" y="247" type="curve"/>
    </contour>
    <contour>
      <point x="22" y="276" type="curve" smooth="yes"/>
      <point x="22" y="524.011"/>
      <point x="104.331" y="581"/>
      <point x="190.372" y="581" type="curve" smooth="yes"/>
      <point x="264" y="581"/>
      <point x="304" y="531"/>
      <point x="314" y="473" type="curve"/>
      <point x="278" y="461" type="line"/>
      <point x="275" y="501"/>
      <point x="243" y="544"/>
      <point x="190.372" y="544" type="curve" smooth="yes"/>
      <point x="123.494" y="544"/>
      <point x="59.5" y="493.924"/>
      <point x="59.5" y="276" type="curve" smooth="yes"/>
      <point x="59.5" y="83.2803"/>
      <point x="133.299" y="40"/>
      <point x="207" y="40" type="curve" smooth="yes"/>
      <point x="293.77" y="40"/>
      <point x="326.128" y="111.732"/>
      <point x="326.128" y="174" type="curve" smooth="yes"/>
      <point x="326.128" y="224.729"/>
      <point x="302.176" y="268.541"/>
      <point x="265" y="272" type="curve"/>
      <point x="282" y="301" type="line"/>
      <point x="318" y="298.771"/>
      <point x="363.128" y="249.754"/>
      <point x="363.128" y="174" type="curve" smooth="yes"/>
      <point x="363.128" y="94.5391"/>
      <point x="320.72" y="3"/>
      <point x="207" y="3" type="curve" smooth="yes"/>
      <point x="114.562" y="3"/>
      <point x="22" y="53.0654"/>
    </contour>
  </outline>
</glyph>
<glyph name="si_Gha" format="1">
  <advance width="568"/>
  <unicode hex="0D9D"/>
  <outline>
    <contour>
      <point x="267.722" y="454" type="curve" smooth="yes"/>
      <point x="267.722" y="466.186"/>
      <point x="268.727" y="477.513"/>
      <point x="270.616" y="488" type="curve" smooth="yes"/>
      <point x="283.312" y="558.491"/>
      <point x="335.971" y="591"/>
      <point x="392.167" y="591" type="curve" smooth="yes"/>
      <point x="448.873" y="591"/>
      <point x="508.476" y="553"/>
      <point x="508.476" y="474" type="curve" smooth="yes"/>
      <point x="508.476" y="429.732"/>
      <point x="488.158" y="385.565"/>
      <point x="456.611" y="361" type="curve"/>
      <point x="430.611" y="382" type="line"/>
      <point x="457.611" y="402"/>
      <point x="475" y="437.959"/>
      <point x="475" y="474" type="curve" smooth="yes"/>
      <point x="475" y="530.043"/>
      <point x="432.552" y="557"/>
      <point x="392.167" y="557" type="curve" smooth="yes"/>
      <point x="343.805" y="557"/>
      <point x="301.723" y="524.746"/>
      <point x="301.723" y="454" type="curve" smooth="yes"/>
      <point x="301.723" y="435"/>
      <point x="301.723" y="416"/>
      <point x="301.723" y="402" type="curve"/>
      <point x="284.723" y="369" type="line"/>
      <point x="275.006" y="397.663"/>
      <point x="267.722" y="421.384"/>
    </contour>
    <contour>
      <point x="68.7441" y="189.103" type="curve" smooth="yes"/>
      <point x="68.7441" y="102.481"/>
      <point x="100.698" y="35"/>
      <point x="166.723" y="35" type="curve" smooth="yes"/>
      <point x="194.601" y="35"/>
      <point x="214.889" y="57.1855"/>
      <point x="214.889" y="85" type="curve" smooth="yes"/>
      <point x="214.889" y="124"/>
      <point x="193.889" y="135"/>
      <point x="193.889" y="171" type="curve" smooth="yes"/>
      <point x="193.889" y="225.03"/>
      <point x="232.398" y="239"/>
      <point x="284.723" y="239" type="curve" smooth="yes"/>
      <point x="337.047" y="239"/>
      <point x="375.557" y="225.03"/>
      <point x="375.557" y="171" type="curve" smooth="yes"/>
      <point x="375.557" y="135"/>
      <point x="354.557" y="124"/>
      <point x="354.557" y="85" type="curve" smooth="yes"/>
      <point x="354.557" y="57.1855"/>
      <point x="374.845" y="35"/>
      <point x="402.723" y="35" type="curve" smooth="yes"/>
      <point x="468.747" y="35"/>
      <point x="500.701" y="102.481"/>
      <point x="500.701" y="189.103" type="curve" smooth="yes"/>
      <point x="500.701" y="247"/>
      <point x="489.571" y="364"/>
      <point x="405.723" y="364" type="curve" smooth="yes"/>
      <point x="179.572" y="364" type="line" smooth="yes"/>
      <point x="81.7969" y="364"/>
      <point x="68.7441" y="246.168"/>
    </contour>
    <contour>
      <point x="31.7441" y="194.103" type="curve" smooth="yes"/>
      <point x="31.7441" y="263"/>
      <point x="51.7227" y="342"/>
      <point x="85.7227" y="369" type="curve"/>
      <point x="22" y="369" type="line"/>
      <point x="22" y="405" type="line"/>
      <point x="407.572" y="405" type="line" smooth="yes"/>
      <point x="437.889" y="405"/>
      <point x="461.316" y="394.708"/>
      <point x="479.591" y="378" type="curve" smooth="yes"/>
      <point x="525.001" y="336.482"/>
      <point x="537.701" y="255.352"/>
      <point x="537.701" y="194.103" type="curve" smooth="yes"/>
      <point x="537.701" y="86.6836"/>
      <point x="493.68" y="3"/>
      <point x="402.723" y="3" type="curve" smooth="yes"/>
      <point x="353.43" y="3"/>
      <point x="317.557" y="41.6025"/>
      <point x="317.557" y="90" type="curve" smooth="yes"/>
      <point x="317.557" y="131"/>
      <point x="338.557" y="147"/>
      <point x="338.557" y="172" type="curve" smooth="yes"/>
      <point x="338.557" y="200.921"/>
      <point x="313.646" y="207"/>
      <point x="284.723" y="207" type="curve" smooth="yes"/>
      <point x="255.799" y="207"/>
      <point x="230.889" y="200.921"/>
      <point x="230.889" y="172" type="curve" smooth="yes"/>
      <point x="230.889" y="147"/>
      <point x="251.889" y="131"/>
      <point x="251.889" y="90" type="curve" smooth="yes"/>
      <point x="251.889" y="41.6025"/>
      <point x="216.016" y="3"/>
      <point x="166.723" y="3" type="curve" smooth="yes"/>
      <point x="75.7656" y="3"/>
      <point x="31.7441" y="86.6836"/>
    </contour>
    <contour>
      <point x="60.9697" y="474" type="curve" smooth="yes"/>
      <point x="60.9697" y="553"/>
      <point x="120.572" y="591"/>
      <point x="177.278" y="591" type="curve" smooth="yes"/>
      <point x="233.475" y="591"/>
      <point x="286.134" y="558.491"/>
      <point x="298.83" y="488" type="curve" smooth="yes"/>
      <point x="300.719" y="477.513"/>
      <point x="301.724" y="466.186"/>
      <point x="301.724" y="454" type="curve" smooth="yes"/>
      <point x="301.724" y="421.384"/>
      <point x="294.439" y="397.663"/>
      <point x="284.723" y="369" type="curve"/>
      <point x="267.723" y="402" type="line"/>
      <point x="267.723" y="416"/>
      <point x="267.723" y="435"/>
      <point x="267.723" y="454" type="curve" smooth="yes"/>
      <point x="267.723" y="524.746"/>
      <point x="225.641" y="557"/>
      <point x="177.278" y="557" type="curve" smooth="yes"/>
      <point x="136.893" y="557"/>
      <point x="94.4453" y="530.043"/>
      <point x="94.4453" y="474" type="curve" smooth="yes"/>
      <point x="94.4453" y="432"/>
      <point x="113.445" y="406"/>
      <point x="123.445" y="396" type="curve"/>
      <point x="101.445" y="376" type="line"/>
      <point x="89.4453" y="387"/>
      <point x="60.9697" y="419"/>
    </contour>
  </outline>
</glyph>
<glyph name="si_Nga" format="1">
  <advance width="605"/>
  <unicode hex="0D9E"/>
  <outline>
    <contour>
      <point x="22.459" y="405.15" type="curve" smooth="yes"/>
      <point x="22.459" y="433.761"/>
      <point x="35.3193" y="459.217"/>
      <point x="55.6094" y="476.083" type="curve" smooth="yes"/>
      <point x="75.6094" y="492.708"/>
      <point x="139.61" y="501.669"/>
      <point x="169.91" y="479" type="curve" smooth="yes"/>
      <point x="192.321" y="462.232"/>
      <point x="206.758" y="435.462"/>
      <point x="206.758" y="405.15" type="curve" smooth="yes"/>
      <point x="206.758" y="354.041"/>
      <point x="165.716" y="313"/>
      <point x="114.609" y="313" type="curve" smooth="yes"/>
      <point x="63.5" y="313"/>
      <point x="22.459" y="354.041"/>
    </contour>
    <contour>
      <point x="59.0254" y="405.13" type="curve" smooth="yes"/>
      <point x="59.0254" y="374.172"/>
      <point x="83.7441" y="348.567"/>
      <point x="115.025" y="348.567" type="curve" smooth="yes"/>
      <point x="146.285" y="348.567"/>
      <point x="171.025" y="374.166"/>
      <point x="171.025" y="405.13" type="curve" smooth="yes"/>
      <point x="171.025" y="436.087"/>
      <point x="146.308" y="461.692"/>
      <point x="115.025" y="461.692" type="curve" smooth="yes"/>
      <point x="83.7646" y="461.692"/>
      <point x="59.0254" y="436.093"/>
    </contour>
    <contour>
      <point x="528" y="293" type="curve" smooth="yes"/>
      <point x="528" y="576.887"/>
      <point x="453.549" y="712"/>
      <point x="300.443" y="712" type="curve" smooth="yes"/>
      <point x="229.571" y="712"/>
      <point x="161.095" y="665.927"/>
      <point x="137.771" y="605" type="curve"/>
      <point x="103.771" y="618" type="line"/>
      <point x="131.97" y="692.593"/>
      <point x="214.758" y="749"/>
      <point x="300.443" y="749" type="curve" smooth="yes"/>
      <point x="478.443" y="749"/>
      <point x="565" y="601.955"/>
      <point x="565" y="293" type="curve" smooth="yes"/>
      <point x="565" y="145.135"/>
      <point x="555.641" y="3"/>
      <point x="428.443" y="3" type="curve" smooth="yes"/>
      <point x="333.277" y="3"/>
      <point x="314.277" y="85"/>
      <point x="310.443" y="115" type="curve"/>
      <point x="306.609" y="85"/>
      <point x="287.609" y="3"/>
      <point x="192.443" y="3" type="curve" smooth="yes"/>
      <point x="103.844" y="3"/>
      <point x="69" y="81.4209"/>
      <point x="69" y="179.103" type="curve" smooth="yes"/>
      <point x="69" y="362.021"/>
      <point x="189.188" y="378"/>
      <point x="216.609" y="378" type="curve" smooth="yes"/>
      <point x="284.609" y="378"/>
      <point x="280.609" y="362"/>
      <point x="330.609" y="362" type="curve" smooth="yes"/>
      <point x="356.281" y="362"/>
      <point x="379.609" y="381.765"/>
      <point x="379.609" y="418" type="curve" smooth="yes"/>
      <point x="379.609" y="485.913"/>
      <point x="283.985" y="506"/>
      <point x="218.609" y="506" type="curve" smooth="yes"/>
      <point x="180.668" y="506"/>
      <point x="61.6094" y="501.454"/>
      <point x="61.6094" y="436" type="curve"/>
      <point x="22.6094" y="415" type="line"/>
      <point x="36.6094" y="513.638"/>
      <point x="127.422" y="539.027"/>
      <point x="218.609" y="539.027" type="curve" smooth="yes"/>
      <point x="331.763" y="539.027"/>
      <point x="416.609" y="503.185"/>
      <point x="416.609" y="418" type="curve" smooth="yes"/>
      <point x="416.609" y="347.448"/>
      <point x="367.844" y="325"/>
      <point x="330.609" y="325" type="curve" smooth="yes"/>
      <point x="272.609" y="325"/>
      <point x="270.609" y="341"/>
      <point x="216.609" y="341" type="curve" smooth="yes"/>
      <point x="161.646" y="341"/>
      <point x="106" y="298.716"/>
      <point x="106" y="180.103" type="curve" smooth="yes"/>
      <point x="106" y="102.39"/>
      <point x="130.399" y="40"/>
      <point x="192.443" y="40" type="curve" smooth="yes"/>
      <point x="283.609" y="40"/>
      <point x="290.201" y="148.886"/>
      <point x="293.443" y="224.5" type="curve"/>
      <point x="327.443" y="224.5" type="line"/>
      <point x="330.686" y="148.886"/>
      <point x="337.277" y="40"/>
      <point x="428.443" y="40" type="curve" smooth="yes"/>
      <point x="521.177" y="40"/>
      <point x="528" y="164"/>
    </contour>
  </outline>
</glyph>
<glyph name="si_Nnga" format="1">
  <advance width="730"/>
  <unicode hex="0D9F"/>
  <outline>
    <contour>
      <point x="406" y="276" type="line"/>
      <point x="450.565" y="295.978"/>
      <point x="456.831" y="338.025"/>
      <point x="456.831" y="369.95" type="curve" smooth="yes"/>
      <point x="456.831" y="382.44"/>
      <point x="455.872" y="393.38"/>
      <point x="455.872" y="400.844" type="curve" smooth="yes"/>
      <point x="455.872" y="512.851"/>
      <point x="525" y="581"/>
      <point x="605" y="581" type="curve" smooth="yes"/>
      <point x="697.438" y="581"/>
      <point x="780.372" y="528"/>
      <point x="780.372" y="292" type="curve" smooth="yes"/>
      <point x="780.372" y="57"/>
      <point x="698.041" y="3"/>
      <point x="612" y="3" type="curve" smooth="yes"/>
      <point x="556.235" y="3"/>
      <point x="519.761" y="31.6813"/>
      <point x="501" y="70.7969" type="curve" smooth="yes"/>
      <point x="524.372" y="123" type="line"/>
      <point x="527.372" y="83"/>
      <point x="559.372" y="40"/>
      <point x="612" y="40" type="curve" smooth="yes"/>
      <point x="678.878" y="40"/>
      <point x="742.872" y="87.0869"/>
      <point x="742.872" y="292" type="curve" smooth="yes"/>
      <point x="742.872" y="497.785"/>
      <point x="678.701" y="544"/>
      <point x="605" y="544" type="curve" smooth="yes"/>
      <point x="529.452" y="544"/>
      <point x="492.872" y="474.387"/>
      <point x="492.872" y="400.844" type="curve" smooth="yes"/>
      <point x="492.872" y="392.559"/>
      <point x="493.457" y="382.064"/>
      <point x="493.457" y="370.388" type="curve" smooth="yes"/>
      <point x="493.457" y="328.727"/>
      <point x="486.012" y="272.025"/>
      <point x="418" y="247" type="curve"/>
    </contour>
    <contour>
      <point x="210" y="276" type="curve" smooth="yes"/>
      <point x="210" y="524.01"/>
      <point x="292.331" y="581"/>
      <point x="378.372" y="581" type="curve" smooth="yes"/>
      <point x="452" y="581"/>
      <point x="492" y="531"/>
      <point x="502" y="473" type="curve"/>
      <point x="466" y="461" type="line"/>
      <point x="463" y="501"/>
      <point x="431" y="544"/>
      <point x="378.372" y="544" type="curve" smooth="yes"/>
      <point x="311.494" y="544"/>
      <point x="247.5" y="493.924"/>
      <point x="247.5" y="276" type="curve" smooth="yes"/>
      <point x="247.5" y="83.2803"/>
      <point x="321.299" y="40"/>
      <point x="395" y="40" type="curve" smooth="yes"/>
      <point x="481.77" y="40"/>
      <point x="514.128" y="111.732"/>
      <point x="514.128" y="174" type="curve" smooth="yes"/>
      <point x="514.128" y="224.729"/>
      <point x="490.176" y="268.541"/>
      <point x="453" y="272" type="curve"/>
      <point x="470" y="301" type="line"/>
      <point x="506" y="298.771"/>
      <point x="551.128" y="249.755"/>
      <point x="551.128" y="174" type="curve" smooth="yes"/>
      <point x="551.128" y="94.5391"/>
      <point x="508.72" y="3"/>
      <point x="395" y="3" type="curve" smooth="yes"/>
      <point x="302.562" y="3"/>
      <point x="210" y="53.0654"/>
    </contour>
    <contour>
      <point x="59" y="281" type="curve" smooth="yes"/>
      <point x="59" y="513.989"/>
      <point x="125.177" y="576"/>
      <point x="187.493" y="576" type="curve" smooth="yes"/>
      <point x="247.021" y="576"/>
      <point x="275.476" y="531"/>
      <point x="275.476" y="471.001" type="curve"/>
      <point x="242" y="471.001" type="line"/>
      <point x="240.71" y="518.658"/>
      <point x="217.396" y="539"/>
      <point x="187.493" y="539" type="curve" smooth="yes"/>
      <point x="143.121" y="539"/>
      <point x="96" y="484.767"/>
      <point x="96" y="281" type="curve" smooth="yes"/>
      <point x="96" y="111.295"/>
      <point x="129.938" y="47.2629"/>
      <point x="171" y="40" type="curve"/>
      <point x="171" y="3" type="line"/>
      <point x="109.681" y="11.3779"/>
      <point x="59" y="85.2402"/>
    </contour>
  </outline>
</glyph>
<glyph name="si_Ca" format="1">
  <advance width="574"/>
  <unicode hex="0DA0"/>
  <outline>
    <contour>
      <point x="88.834" y="207" type="curve" smooth="yes"/>
      <point x="88.834" y="309.342"/>
      <point x="138.834" y="349"/>
      <point x="147.834" y="354" type="curve"/>
      <point x="74.5908" y="354" type="line"/>
      <point x="74.5908" y="389" type="line"/>
      <point x="347.11" y="389" type="line"/>
      <point x="354.834" y="354" type="line"/>
      <point x="224.834" y="354" type="line" smooth="yes"/>
      <point x="173.834" y="354"/>
      <point x="124.834" y="296.709"/>
      <point x="124.834" y="208" type="curve" smooth="yes"/>
      <point x="124.834" y="142.715"/>
      <point x="156.984" y="40"/>
      <point x="293.834" y="40" type="curve" smooth="yes"/>
      <point x="421.699" y="40"/>
      <point x="494.834" y="150.519"/>
      <point x="494.834" y="354" type="curve" smooth="yes"/>
      <point x="494.834" y="634.015"/>
      <point x="404.057" y="712"/>
      <point x="292.834" y="712" type="curve" smooth="yes"/>
      <point x="221.962" y="712"/>
      <point x="164.158" y="665.927"/>
      <point x="140.834" y="605" type="curve"/>
      <point x="106.834" y="618" type="line"/>
      <point x="144.834" y="716"/>
      <point x="232.802" y="749"/>
      <point x="292.834" y="749" type="curve" smooth="yes"/>
      <point x="424.979" y="749"/>
      <point x="532.834" y="662.955"/>
      <point x="532.834" y="354" type="curve" smooth="yes"/>
      <point x="532.834" y="126.541"/>
      <point x="445.873" y="3"/>
      <point x="293.834" y="3" type="curve" smooth="yes"/>
      <point x="127.834" y="3"/>
      <point x="88.834" y="127.726"/>
    </contour>
    <contour>
      <point x="122.834" y="420" type="curve" smooth="yes"/>
      <point x="122.834" y="488"/>
      <point x="174.178" y="524"/>
      <point x="232.834" y="524" type="curve" smooth="yes"/>
      <point x="297.391" y="524"/>
      <point x="357.278" y="481.099"/>
      <point x="357.278" y="387" type="curve" smooth="yes"/>
      <point x="357.278" y="375.04"/>
      <point x="356.393" y="364.262"/>
      <point x="354.834" y="354" type="curve"/>
      <point x="323.454" y="379" type="line"/>
      <point x="323.361" y="381.638"/>
      <point x="323.278" y="384.229"/>
      <point x="323.278" y="387" type="curve" smooth="yes"/>
      <point x="323.278" y="457.746"/>
      <point x="281.196" y="490"/>
      <point x="232.834" y="490" type="curve" smooth="yes"/>
      <point x="190.877" y="490"/>
      <point x="156.31" y="467"/>
      <point x="156.31" y="420" type="curve" smooth="yes"/>
      <point x="156.31" y="406.329"/>
      <point x="159.299" y="394.165"/>
      <point x="164.215" y="384" type="curve" smooth="yes"/>
      <point x="135.345" y="370" type="line" smooth="yes"/>
      <point x="127.991" y="384.32"/>
      <point x="122.834" y="401.846"/>
    </contour>
  </outline>
</glyph>
<glyph name="si_Cha" format="1">
  <advance width="598"/>
  <unicode hex="0DA1"/>
  <outline>
    <contour>
      <point x="401.864" y="575" type="line" smooth="yes"/>
      <point x="473.497" y="647.766"/>
      <point x="522" y="705.781"/>
      <point x="522" y="776" type="curve"/>
      <point x="558" y="776" type="line"/>
      <point x="558" y="698.187"/>
      <point x="507.717" y="632.518"/>
      <point x="430.609" y="553" type="curve" smooth="yes"/>
    </contour>
    <contour>
      <point x="260.834" y="454" type="curve" smooth="yes"/>
      <point x="260.834" y="466.186"/>
      <point x="261.838" y="477.514"/>
      <point x="263.727" y="488" type="curve" smooth="yes"/>
      <point x="276.42" y="558.491"/>
      <point x="329.082" y="591"/>
      <point x="385.278" y="591" type="curve" smooth="yes"/>
      <point x="480" y="591"/>
      <point x="515" y="505"/>
      <point x="515" y="426" type="curve" smooth="yes"/>
      <point x="515" y="296.292"/>
      <point x="454.155" y="196"/>
      <point x="357" y="196" type="curve" smooth="yes"/>
      <point x="289.656" y="196"/>
      <point x="256.956" y="247.021"/>
      <point x="256.956" y="298.338" type="curve" smooth="yes"/>
      <point x="256.956" y="338.461"/>
      <point x="276.947" y="378.765"/>
      <point x="316" y="395" type="curve"/>
      <point x="336" y="366" type="line"/>
      <point x="309.153" y="355.846"/>
      <point x="294.698" y="326.094"/>
      <point x="294.698" y="296.997" type="curve" smooth="yes"/>
      <point x="294.698" y="263.053"/>
      <point x="314.372" y="230"/>
      <point x="357" y="230" type="curve" smooth="yes"/>
      <point x="427" y="230"/>
      <point x="481.524" y="322"/>
      <point x="481.524" y="426" type="curve" smooth="yes"/>
      <point x="481.524" y="482.043"/>
      <point x="452" y="557"/>
      <point x="385.278" y="557" type="curve" smooth="yes"/>
      <point x="336.916" y="557"/>
      <point x="294.834" y="524.746"/>
      <point x="294.834" y="454" type="curve" smooth="yes"/>
      <point x="294.834" y="435"/>
      <point x="294.834" y="416"/>
      <point x="294.834" y="402" type="curve"/>
      <point x="277.834" y="369" type="line"/>
      <point x="268.118" y="397.663"/>
      <point x="260.834" y="421.384"/>
    </contour>
    <contour>
      <point x="59" y="224.437" type="curve" smooth="yes"/>
      <point x="59" y="107.242"/>
      <point x="145.024" y="30"/>
      <point x="277.834" y="30" type="curve" smooth="yes"/>
      <point x="410.644" y="30"/>
      <point x="496.668" y="106.806"/>
      <point x="496.668" y="224" type="curve" smooth="yes"/>
      <point x="496.668" y="299.407"/>
      <point x="458.191" y="365"/>
      <point x="374" y="365" type="curve" smooth="yes"/>
      <point x="181.668" y="365" type="line" smooth="yes"/>
      <point x="97.4766" y="365"/>
      <point x="59" y="299.844"/>
    </contour>
    <contour>
      <point x="22" y="224.437" type="curve" smooth="yes"/>
      <point x="22" y="319.693"/>
      <point x="74.9033" y="402"/>
      <point x="181.668" y="402" type="curve" smooth="yes"/>
      <point x="374" y="402" type="line" smooth="yes"/>
      <point x="480.765" y="402"/>
      <point x="533.668" y="319.257"/>
      <point x="533.668" y="224" type="curve" smooth="yes"/>
      <point x="533.668" y="84.5049"/>
      <point x="433.34" y="-7"/>
      <point x="277.834" y="-7" type="curve" smooth="yes"/>
      <point x="122.328" y="-7"/>
      <point x="22" y="84.9414"/>
    </contour>
    <contour>
      <point x="54.0801" y="474" type="curve" smooth="yes"/>
      <point x="54.0801" y="553"/>
      <point x="113.683" y="591"/>
      <point x="170.389" y="591" type="curve" smooth="yes"/>
      <point x="226.585" y="591"/>
      <point x="279.247" y="558.491"/>
      <point x="291.94" y="488" type="curve" smooth="yes"/>
      <point x="293.829" y="477.514"/>
      <point x="294.833" y="466.186"/>
      <point x="294.833" y="454" type="curve" smooth="yes"/>
      <point x="294.833" y="421.384"/>
      <point x="287.549" y="397.663"/>
      <point x="277.833" y="369" type="curve"/>
      <point x="260.833" y="402" type="line"/>
      <point x="260.833" y="416"/>
      <point x="260.834" y="435"/>
      <point x="260.834" y="454" type="curve" smooth="yes"/>
      <point x="260.834" y="524.746"/>
      <point x="218.751" y="557"/>
      <point x="170.389" y="557" type="curve" smooth="yes"/>
      <point x="130.004" y="557"/>
      <point x="87.5557" y="530.043"/>
      <point x="87.5557" y="474" type="curve" smooth="yes"/>
      <point x="87.5557" y="437.959"/>
      <point x="104.944" y="402"/>
      <point x="131.944" y="382" type="curve"/>
      <point x="105.944" y="361" type="line"/>
      <point x="74.3975" y="385.565"/>
      <point x="54.0801" y="429.732"/>
    </contour>
  </outline>
</glyph>
<glyph name="si_Ja" format="1">
  <advance width="594"/>
  <unicode hex="0DA2"/>
  <outline>
    <contour>
      <point x="574" y="776" type="line"/>
      <point x="574" y="677.845"/>
      <point x="525.443" y="629.11"/>
      <point x="450.59" y="556" type="curve" smooth="yes"/>
      <point x="421.907" y="578" type="line" smooth="yes"/>
      <point x="491.541" y="644.76"/>
      <point x="538" y="687.527"/>
      <point x="538" y="776" type="curve"/>
    </contour>
  </outline>
</glyph>
<glyph name="si_Ja" format="1">
  <advance width="602"/>
  <unicode hex="0DA2"/>
  <outline>
    <contour>
      <point x="412.864" y="575" type="line" smooth="yes"/>
      <point x="484.497" y="647.766"/>
      <point x="533" y="705.781"/>
      <point x="533" y="776" type="curve"/>
      <point x="569" y="776" type="line"/>
      <point x="569" y="698.187"/>
      <point x="518.717" y="632.518"/>
      <point x="441.609" y="553" type="curve" smooth="yes"/>
    </contour>
    <contour>
      <point x="271.833" y="454" type="curve" smooth="yes"/>
      <point x="271.833" y="466.186"/>
      <point x="272.838" y="477.513"/>
      <point x="274.728" y="488" type="curve" smooth="yes"/>
      <point x="287.424" y="558.491"/>
      <point x="340.082" y="591"/>
      <point x="396.278" y="591" type="curve" smooth="yes"/>
      <point x="452.984" y="591"/>
      <point x="512.587" y="553"/>
      <point x="512.587" y="474" type="curve" smooth="yes"/>
      <point x="512.587" y="429.732"/>
      <point x="492.27" y="385.565"/>
      <point x="460.723" y="361" type="curve"/>
      <point x="434.723" y="382" type="line"/>
      <point x="461.723" y="402"/>
      <point x="479.111" y="437.959"/>
      <point x="479.111" y="474" type="curve" smooth="yes"/>
      <point x="479.111" y="530.043"/>
      <point x="436.663" y="557"/>
      <point x="396.278" y="557" type="curve" smooth="yes"/>
      <point x="347.916" y="557"/>
      <point x="305.834" y="524.746"/>
      <point x="305.834" y="454" type="curve" smooth="yes"/>
      <point x="305.834" y="435"/>
      <point x="305.834" y="416"/>
      <point x="305.834" y="402" type="curve"/>
      <point x="288.834" y="369" type="line"/>
      <point x="279.117" y="397.663"/>
      <point x="271.833" y="421.384"/>
    </contour>
    <contour>
      <point x="70" y="224.437" type="curve" smooth="yes"/>
      <point x="70" y="107.242"/>
      <point x="156.024" y="30"/>
      <point x="288.834" y="30" type="curve" smooth="yes"/>
      <point x="421.644" y="30"/>
      <point x="507.668" y="106.806"/>
      <point x="507.668" y="224" type="curve" smooth="yes"/>
      <point x="507.668" y="299.407"/>
      <point x="469.191" y="365"/>
      <point x="385" y="365" type="curve" smooth="yes"/>
      <point x="192.668" y="365" type="line" smooth="yes"/>
      <point x="108.477" y="365"/>
      <point x="70" y="299.844"/>
    </contour>
    <contour>
      <point x="33" y="224.437" type="curve" smooth="yes"/>
      <point x="33" y="319.693"/>
      <point x="85.9033" y="402"/>
      <point x="192.668" y="402" type="curve" smooth="yes"/>
      <point x="385" y="402" type="line" smooth="yes"/>
      <point x="491.765" y="402"/>
      <point x="544.668" y="319.257"/>
      <point x="544.668" y="224" type="curve" smooth="yes"/>
      <point x="544.668" y="84.5049"/>
      <point x="444.34" y="-7"/>
      <point x="288.834" y="-7" type="curve" smooth="yes"/>
      <point x="133.328" y="-7"/>
      <point x="33" y="84.9414"/>
    </contour>
    <contour>
      <point x="65.0801" y="474" type="curve" smooth="yes"/>
      <point x="65.0801" y="553"/>
      <point x="124.683" y="591"/>
      <point x="181.389" y="591" type="curve" smooth="yes"/>
      <point x="237.585" y="591"/>
      <point x="290.247" y="558.491"/>
      <point x="302.94" y="488" type="curve" smooth="yes"/>
      <point x="304.829" y="477.514"/>
      <point x="305.833" y="466.186"/>
      <point x="305.833" y="454" type="curve" smooth="yes"/>
      <point x="305.833" y="421.384"/>
      <point x="298.549" y="397.663"/>
      <point x="288.833" y="369" type="curve"/>
      <point x="271.833" y="402" type="line"/>
      <point x="271.833" y="416"/>
      <point x="271.833" y="435"/>
      <point x="271.833" y="454" type="curve" smooth="yes"/>
      <point x="271.833" y="524.746"/>
      <point x="229.751" y="557"/>
      <point x="181.389" y="557" type="curve" smooth="yes"/>
      <point x="141.004" y="557"/>
      <point x="98.5557" y="530.043"/>
      <point x="98.5557" y="474" type="curve" smooth="yes"/>
      <point x="98.5557" y="437.959"/>
      <point x="115.944" y="402"/>
      <point x="142.944" y="382" type="curve"/>
      <point x="116.944" y="361" type="line"/>
      <point x="85.3975" y="385.565"/>
      <point x="65.0801" y="429.732"/>
    </contour>
  </outline>
</glyph>
<glyph name="si_Jha" format="1">
  <advance width="1047"/>
  <unicode hex="0DA3"/>
  <outline>
    <contour>
      <point x="476" y="214.001" type="curve" smooth="yes"/>
      <point x="476" y="266.265"/>
      <point x="486.971" y="312.663"/>
      <point x="505.107" y="350.001" type="curve" smooth="yes"/>
      <point x="534.228" y="409.949"/>
      <point x="581.82" y="446.539"/>
      <point x="632.138" y="446.539" type="curve" smooth="yes"/>
      <point x="651.042" y="446.539"/>
      <point x="669.386" y="441.801"/>
      <point x="689.138" y="432.001" type="curve"/>
      <point x="673.138" y="400.001" type="line"/>
      <point x="658.93" y="407.104"/>
      <point x="645.735" y="410.539"/>
      <point x="632.138" y="410.539" type="curve" smooth="yes"/>
      <point x="593.367" y="410.539"/>
      <point x="558.245" y="379.614"/>
      <point x="536.343" y="331.001" type="curve" smooth="yes"/>
      <point x="521.729" y="298.564"/>
      <point x="513" y="258.254"/>
      <point x="513" y="214.001" type="curve" smooth="yes"/>
      <point x="513" y="130.797"/>
      <point x="535.393" y="40.001"/>
      <point x="602.834" y="40.001" type="curve" smooth="yes"/>
      <point x="694" y="40.001"/>
      <point x="700.592" y="148.887"/>
      <point x="703.834" y="224.501" type="curve"/>
      <point x="737.834" y="224.501" type="line"/>
      <point x="741.076" y="148.887"/>
      <point x="747.668" y="40.001"/>
      <point x="838.834" y="40.001" type="curve" smooth="yes"/>
      <point x="931.567" y="40.001"/>
      <point x="938.391" y="164.001"/>
      <point x="938.391" y="293.001" type="curve" smooth="yes"/>
      <point x="938.391" y="576.888"/>
      <point x="863.939" y="712.001"/>
      <point x="710.834" y="712.001" type="curve" smooth="yes"/>
      <point x="639.962" y="712.001"/>
      <point x="571.485" y="665.928"/>
      <point x="548.161" y="605.001" type="curve"/>
      <point x="514.161" y="618.001" type="line"/>
      <point x="542.36" y="692.594"/>
      <point x="625.148" y="749.001"/>
      <point x="710.834" y="749.001" type="curve" smooth="yes"/>
      <point x="888.834" y="749.001"/>
      <point x="975.391" y="601.956"/>
      <point x="975.391" y="293.001" type="curve" smooth="yes"/>
      <point x="975.391" y="145.136"/>
      <point x="966.031" y="3.00098"/>
      <point x="838.834" y="3.00098" type="curve" smooth="yes"/>
      <point x="743.668" y="3.00098"/>
      <point x="724.668" y="85.001"/>
      <point x="720.834" y="115.001" type="curve"/>
      <point x="717" y="85.001"/>
      <point x="698" y="3.00098"/>
      <point x="602.834" y="3.00098" type="curve" smooth="yes"/>
      <point x="504.839" y="3.00098"/>
      <point x="476" y="115.607"/>
    </contour>
    <contour>
      <point x="68.6279" y="105" type="curve" smooth="yes"/>
      <point x="68.6279" y="110.711"/>
      <point x="69.4297" y="120.668"/>
      <point x="69.4297" y="130.404" type="curve" smooth="yes"/>
      <point x="69.4297" y="144.301"/>
      <point x="67.7961" y="157.747"/>
      <point x="59.8652" y="157.747" type="curve" smooth="yes"/>
      <point x="57.8742" y="157.747"/>
      <point x="55.4864" y="156.9"/>
      <point x="52.6279" y="155" type="curve"/>
      <point x="59.6279" y="184" type="line"/>
      <point x="76.6279" y="190" type="line"/>
      <point x="78.2688" y="190.461"/>
      <point x="79.7379" y="190.739"/>
      <point x="81.6289" y="190.739" type="curve" smooth="yes"/>
      <point x="100.544" y="190.739"/>
      <point x="102.879" y="155.333"/>
      <point x="102.879" y="127.894" type="curve" smooth="yes"/>
      <point x="102.879" y="118.896"/>
      <point x="102.628" y="110.755"/>
      <point x="102.628" y="105" type="curve" smooth="yes"/>
      <point x="102.628" y="68.7002"/>
      <point x="112.633" y="40"/>
      <point x="152.628" y="40" type="curve" smooth="yes"/>
      <point x="204.386" y="40"/>
      <point x="217.86" y="100.28"/>
      <point x="218.507" y="159" type="curve" smooth="yes"/>
      <point x="218.628" y="170" type="line"/>
      <point x="254.628" y="170" type="line"/>
      <point x="254.749" y="159" type="line" smooth="yes"/>
      <point x="255.395" y="100.28"/>
      <point x="268.87" y="40"/>
      <point x="320.628" y="40" type="curve" smooth="yes"/>
      <point x="397.076" y="40"/>
      <point x="399.628" y="157.619"/>
      <point x="399.628" y="196" type="curve" smooth="yes"/>
      <point x="399.628" y="336.163"/>
      <point x="347.861" y="387.667"/>
      <point x="288.628" y="387.667" type="curve" smooth="yes"/>
      <point x="249.628" y="387.667"/>
      <point x="230.628" y="375"/>
      <point x="213.628" y="360" type="curve"/>
      <point x="199.628" y="382" type="line"/>
      <point x="222.628" y="402"/>
      <point x="251.628" y="424.667"/>
      <point x="288.628" y="424.667" type="curve" smooth="yes"/>
      <point x="367.628" y="424.667"/>
      <point x="436.671" y="363.221"/>
      <point x="436.671" y="196" type="curve" smooth="yes"/>
      <point x="436.671" y="123.089"/>
      <point x="424.126" y="3"/>
      <point x="320.628" y="3" type="curve" smooth="yes"/>
      <point x="262.567" y="3"/>
      <point x="237.628" y="48"/>
      <point x="236.628" y="79" type="curve"/>
      <point x="236.628" y="48"/>
      <point x="213.772" y="3"/>
      <point x="152.628" y="3" type="curve" smooth="yes"/>
      <point x="85.4366" y="3"/>
      <point x="68.6279" y="48.0372"/>
    </contour>
    <contour>
      <point x="27.6289" y="184" type="line"/>
      <point x="245.629" y="458" type="line" smooth="yes"/>
      <point x="301.101" y="527.722"/>
      <point x="367.171" y="582"/>
      <point x="444.629" y="582" type="curve" smooth="yes"/>
      <point x="526.749" y="582"/>
      <point x="596.799" y="532.929"/>
      <point x="630.589" y="420" type="curve"/>
      <point x="595.881" y="406" type="line"/>
      <point x="569.861" y="499.408"/>
      <point x="511.273" y="545"/>
      <point x="444.629" y="545" type="curve" smooth="yes"/>
      <point x="376.419" y="545"/>
      <point x="321.414" y="494.647"/>
      <point x="272.629" y="433" type="curve" smooth="yes"/>
      <point x="79.5352" y="189" type="line"/>
      <point x="52.6289" y="155" type="line"/>
    </contour>
    <contour>
      <point x="30.875" y="474" type="curve" smooth="yes"/>
      <point x="30.875" y="553"/>
      <point x="90.4775" y="591"/>
      <point x="147.184" y="591" type="curve" smooth="yes"/>
      <point x="211.74" y="591"/>
      <point x="271.628" y="548.099"/>
      <point x="271.628" y="454" type="curve" smooth="yes"/>
      <point x="237.628" y="402" type="line"/>
      <point x="237.628" y="416"/>
      <point x="237.628" y="435"/>
      <point x="237.628" y="454" type="curve" smooth="yes"/>
      <point x="237.628" y="524.746"/>
      <point x="195.546" y="557"/>
      <point x="147.184" y="557" type="curve" smooth="yes"/>
      <point x="106.798" y="557"/>
      <point x="64.3506" y="530.043"/>
      <point x="64.3506" y="474" type="curve" smooth="yes"/>
      <point x="64.3506" y="407.775"/>
      <point x="107.628" y="368"/>
      <point x="184.628" y="356" type="curve"/>
      <point x="176.628" y="325" type="line"/>
      <point x="89.6279" y="338"/>
      <point x="30.875" y="390.378"/>
    </contour>
  </outline>
</glyph>
<glyph name="si_Nya" format="1">
  <advance width="1047"/>
  <unicode hex="0DA4"/>
  <outline>
    <contour>
      <point x="659" y="212.001" type="curve" smooth="yes"/>
      <point x="659" y="312.683"/>
      <point x="732" y="411.001"/>
      <point x="855.945" y="411.001" type="curve" smooth="yes"/>
      <point x="880.226" y="411.001"/>
      <point x="928" y="411.001"/>
      <point x="951.802" y="411.001" type="curve"/>
      <point x="953.802" y="422.001"/>
      <point x="957" y="438.289"/>
      <point x="957" y="454.001" type="curve" smooth="yes"/>
      <point x="957" y="524.747"/>
      <point x="914.918" y="557.001"/>
      <point x="866.556" y="557.001" type="curve" smooth="yes"/>
      <point x="826.171" y="557.001"/>
      <point x="783.723" y="530.044"/>
      <point x="783.723" y="474.001" type="curve" smooth="yes"/>
      <point x="783.723" y="431.348"/>
      <point x="805.467" y="406.531"/>
      <point x="814.63" y="398.001" type="curve"/>
      <point x="790.723" y="376.001" type="line"/>
      <point x="778.723" y="387.001"/>
      <point x="750.247" y="419.001"/>
      <point x="750.247" y="474.001" type="curve" smooth="yes"/>
      <point x="750.247" y="553.001"/>
      <point x="809.85" y="591.001"/>
      <point x="866.556" y="591.001" type="curve" smooth="yes"/>
      <point x="931.112" y="591.001"/>
      <point x="991" y="548.1"/>
      <point x="991" y="454.001" type="curve" smooth="yes"/>
      <point x="991" y="424.454"/>
      <point x="986" y="399.966"/>
      <point x="977" y="374.001" type="curve"/>
      <point x="977" y="374.001"/>
      <point x="899" y="374.001"/>
      <point x="855.945" y="374.001" type="curve" smooth="yes"/>
      <point x="756.144" y="374.001"/>
      <point x="696" y="295.037"/>
      <point x="696" y="212.001" type="curve" smooth="yes"/>
      <point x="696" y="101.982"/>
      <point x="777.336" y="41.8428"/>
      <point x="859.843" y="41.8428" type="curve" smooth="yes"/>
      <point x="911.123" y="41.8428"/>
      <point x="962.856" y="65.0744"/>
      <point x="995.795" y="114.001" type="curve"/>
      <point x="1025.07" y="91.6973" type="line"/>
      <point x="984.853" y="31.5466"/>
      <point x="921.687" y="2.99902"/>
      <point x="859.072" y="2.99902" type="curve" smooth="yes"/>
      <point x="758.322" y="2.99902"/>
      <point x="659" y="76.9095"/>
    </contour>
    <contour>
      <point x="799.124" y="-56.999" type="curve" smooth="yes"/>
      <point x="799.124" y="-24.1719"/>
      <point x="806.868" y="1.59668"/>
      <point x="831.795" y="34.001" type="curve"/>
      <point x="860.795" y="36.001" type="line"/>
      <point x="862.795" y="17.001" type="line"/>
      <point x="840.646" y="-8.83887"/>
      <point x="836.124" y="-30.4648"/>
      <point x="836.124" y="-56.999" type="curve" smooth="yes"/>
      <point x="836.124" y="-111.587"/>
      <point x="876.591" y="-156.695"/>
      <point x="931.795" y="-156.695" type="curve" smooth="yes"/>
      <point x="985.234" y="-156.695"/>
      <point x="1019.21" y="-132.976"/>
      <point x="1047.17" y="-82.999" type="curve"/>
      <point x="1076.44" y="-105.303" type="line"/>
      <point x="1041.4" y="-164.568"/>
      <point x="998.795" y="-192.695"/>
      <point x="931.795" y="-192.695" type="curve" smooth="yes"/>
      <point x="852.38" y="-192.695"/>
      <point x="799.124" y="-129.528"/>
    </contour>
    <contour>
      <point x="629.096" y="196" type="curve" smooth="yes"/>
      <point x="629.096" y="123.089"/>
      <point x="616.551" y="3"/>
      <point x="513.053" y="3" type="curve" smooth="yes"/>
      <point x="454.992" y="3"/>
      <point x="430.053" y="48"/>
      <point x="429.053" y="79" type="curve"/>
      <point x="429.053" y="48"/>
      <point x="406.197" y="3"/>
      <point x="345.053" y="3" type="curve" smooth="yes"/>
      <point x="277.861" y="3"/>
      <point x="261.053" y="48.0372"/>
      <point x="261.053" y="105" type="curve" smooth="yes"/>
      <point x="261.053" y="120.909"/>
      <point x="267.275" y="169.773"/>
      <point x="245.053" y="155" type="curve"/>
      <point x="269.053" y="190" type="line"/>
      <point x="299.696" y="198.608"/>
      <point x="295.053" y="129.747"/>
      <point x="295.053" y="105" type="curve" smooth="yes"/>
      <point x="295.053" y="68.7002"/>
      <point x="305.058" y="40"/>
      <point x="345.053" y="40" type="curve" smooth="yes"/>
      <point x="400.053" y="40"/>
      <point x="411.053" y="108.077"/>
      <point x="411.053" y="170" type="curve"/>
      <point x="447.053" y="170" type="line"/>
      <point x="447.053" y="108.077"/>
      <point x="458.053" y="40"/>
      <point x="513.053" y="40" type="curve" smooth="yes"/>
      <point x="589.501" y="40"/>
      <point x="592.053" y="157.619"/>
      <point x="592.053" y="196" type="curve" smooth="yes"/>
      <point x="592.053" y="336.163"/>
      <point x="540.285" y="387.667"/>
      <point x="481.053" y="387.667" type="curve" smooth="yes"/>
      <point x="442.053" y="387.667"/>
      <point x="423.053" y="375"/>
      <point x="406.053" y="360" type="curve"/>
      <point x="392.053" y="382" type="line"/>
      <point x="415.053" y="402"/>
      <point x="444.053" y="424.667"/>
      <point x="481.053" y="424.667" type="curve" smooth="yes"/>
      <point x="560.052" y="424.667"/>
      <point x="629.096" y="363.221"/>
    </contour>
    <contour>
      <point x="760" y="422" type="line" smooth="yes"/>
      <point x="731.219" y="509.66"/>
      <point x="678.524" y="545"/>
      <point x="621" y="545" type="curve" smooth="yes"/>
      <point x="559.156" y="545"/>
      <point x="512.04" y="492.375"/>
      <point x="465.053" y="433" type="curve" smooth="yes"/>
      <point x="245.053" y="155" type="line"/>
      <point x="220.053" y="184" type="line"/>
      <point x="438.053" y="458" type="line" smooth="yes"/>
      <point x="491.753" y="525.494"/>
      <point x="549.79" y="582"/>
      <point x="621" y="582" type="curve" smooth="yes"/>
      <point x="691.986" y="582"/>
      <point x="756.814" y="539.387"/>
      <point x="790.33" y="433" type="curve" smooth="yes"/>
    </contour>
    <contour>
      <point x="256.775" y="474" type="curve" smooth="yes"/>
      <point x="256.775" y="407.776"/>
      <point x="300.053" y="368"/>
      <point x="377.053" y="356" type="curve"/>
      <point x="369.053" y="325" type="line"/>
      <point x="282.053" y="338"/>
      <point x="223.3" y="390.378"/>
      <point x="223.3" y="474" type="curve" smooth="yes"/>
      <point x="223.3" y="553"/>
      <point x="282.902" y="591"/>
      <point x="339.608" y="591" type="curve" smooth="yes"/>
      <point x="404.165" y="591"/>
      <point x="464.053" y="548.099"/>
      <point x="464.053" y="454" type="curve" smooth="yes"/>
      <point x="430.053" y="402" type="line"/>
      <point x="430.053" y="416"/>
      <point x="430.053" y="435"/>
      <point x="430.053" y="454" type="curve" smooth="yes"/>
      <point x="430.053" y="524.746"/>
      <point x="387.971" y="557"/>
      <point x="339.608" y="557" type="curve" smooth="yes"/>
      <point x="299.223" y="557"/>
      <point x="256.775" y="530.043"/>
    </contour>
  </outline>
</glyph>
<glyph name="si_Jnya" format="1">
  <advance width="949"/>
  <unicode hex="0DA5"/>
  <outline>
    <contour>
      <point x="701.682" y="-56.999" type="curve" smooth="yes"/>
      <point x="701.682" y="-24.1719"/>
      <point x="709.426" y="1.59668"/>
      <point x="734.353" y="34.001" type="curve"/>
      <point x="763.353" y="36.001" type="line"/>
      <point x="765.353" y="17.001" type="line"/>
      <point x="743.204" y="-8.83887"/>
      <point x="738.682" y="-30.4648"/>
      <point x="738.682" y="-56.999" type="curve" smooth="yes"/>
      <point x="738.682" y="-111.587"/>
      <point x="779.148" y="-156.695"/>
      <point x="834.353" y="-156.695" type="curve" smooth="yes"/>
      <point x="887.791" y="-156.695"/>
      <point x="921.771" y="-132.976"/>
      <point x="949.723" y="-82.999" type="curve"/>
      <point x="979" y="-105.303" type="line"/>
      <point x="943.954" y="-164.567"/>
      <point x="901.353" y="-192.695"/>
      <point x="834.353" y="-192.695" type="curve" smooth="yes"/>
      <point x="754.938" y="-192.695"/>
      <point x="701.682" y="-129.528"/>
    </contour>
    <contour>
      <point x="561.558" y="212.001" type="curve" smooth="yes"/>
      <point x="561.558" y="312.683"/>
      <point x="634.558" y="411.001"/>
      <point x="758.503" y="411.001" type="curve" smooth="yes"/>
      <point x="782.783" y="411.001"/>
      <point x="830.558" y="411.001"/>
      <point x="854.359" y="411.001" type="curve"/>
      <point x="856.359" y="422.001"/>
      <point x="859.558" y="438.289"/>
      <point x="859.558" y="454.001" type="curve" smooth="yes"/>
      <point x="859.558" y="524.747"/>
      <point x="817.476" y="557.001"/>
      <point x="769.113" y="557.001" type="curve" smooth="yes"/>
      <point x="728.729" y="557.001"/>
      <point x="686.28" y="530.044"/>
      <point x="686.28" y="474.001" type="curve" smooth="yes"/>
      <point x="686.28" y="431.348"/>
      <point x="708.024" y="406.531"/>
      <point x="717.188" y="398.001" type="curve"/>
      <point x="693.28" y="376.001" type="line"/>
      <point x="681.28" y="387.001"/>
      <point x="652.805" y="419.001"/>
      <point x="652.805" y="474.001" type="curve" smooth="yes"/>
      <point x="652.805" y="553.001"/>
      <point x="712.407" y="591.001"/>
      <point x="769.113" y="591.001" type="curve" smooth="yes"/>
      <point x="833.67" y="591.001"/>
      <point x="893.558" y="548.1"/>
      <point x="893.558" y="454.001" type="curve" smooth="yes"/>
      <point x="893.558" y="424.454"/>
      <point x="888.558" y="399.966"/>
      <point x="879.558" y="374.001" type="curve"/>
      <point x="879.558" y="374.001"/>
      <point x="801.558" y="374.001"/>
      <point x="758.503" y="374.001" type="curve" smooth="yes"/>
      <point x="658.701" y="374.001"/>
      <point x="598.558" y="295.037"/>
      <point x="598.558" y="212.001" type="curve" smooth="yes"/>
      <point x="598.558" y="101.982"/>
      <point x="679.894" y="41.8428"/>
      <point x="762.4" y="41.8428" type="curve" smooth="yes"/>
      <point x="813.681" y="41.8428"/>
      <point x="865.414" y="65.0742"/>
      <point x="898.353" y="114.001" type="curve"/>
      <point x="927.63" y="91.6973" type="line"/>
      <point x="887.411" y="31.5469"/>
      <point x="824.245" y="2.99902"/>
      <point x="761.63" y="2.99902" type="curve" smooth="yes"/>
      <point x="660.88" y="2.99902"/>
      <point x="561.558" y="76.9092"/>
    </contour>
    <contour>
      <point x="373.558" y="276" type="line"/>
      <point x="418.123" y="295.978"/>
      <point x="424.389" y="338.024"/>
      <point x="424.389" y="369.95" type="curve" smooth="yes"/>
      <point x="424.389" y="382.439"/>
      <point x="423.43" y="393.38"/>
      <point x="423.43" y="400.844" type="curve" smooth="yes"/>
      <point x="423.43" y="512.851"/>
      <point x="488.85" y="581"/>
      <point x="564.558" y="581" type="curve" smooth="yes"/>
      <point x="628.718" y="581"/>
      <point x="686.28" y="544"/>
      <point x="686.28" y="474.001" type="curve" smooth="yes"/>
      <point x="652.805" y="474.001" type="line" smooth="yes"/>
      <point x="652.805" y="515"/>
      <point x="611.731" y="544"/>
      <point x="564.558" y="544" type="curve" smooth="yes"/>
      <point x="494.399" y="544"/>
      <point x="460.43" y="474.387"/>
      <point x="460.43" y="400.844" type="curve" smooth="yes"/>
      <point x="460.43" y="392.56"/>
      <point x="461.015" y="382.064"/>
      <point x="461.015" y="370.388" type="curve" smooth="yes"/>
      <point x="461.015" y="328.728"/>
      <point x="453.57" y="272.025"/>
      <point x="385.558" y="247" type="curve"/>
    </contour>
    <contour>
      <point x="177.558" y="276" type="curve" smooth="yes"/>
      <point x="177.558" y="524.011"/>
      <point x="259.889" y="581"/>
      <point x="345.93" y="581" type="curve" smooth="yes"/>
      <point x="419.558" y="581"/>
      <point x="459.558" y="531"/>
      <point x="469.558" y="473" type="curve"/>
      <point x="433.558" y="461" type="line"/>
      <point x="430.558" y="501"/>
      <point x="398.558" y="544"/>
      <point x="345.93" y="544" type="curve" smooth="yes"/>
      <point x="279.052" y="544"/>
      <point x="215.058" y="493.924"/>
      <point x="215.058" y="276" type="curve" smooth="yes"/>
      <point x="215.058" y="83.2803"/>
      <point x="288.856" y="40"/>
      <point x="362.558" y="40" type="curve" smooth="yes"/>
      <point x="449.327" y="40"/>
      <point x="481.686" y="111.732"/>
      <point x="481.686" y="174" type="curve" smooth="yes"/>
      <point x="481.686" y="224.729"/>
      <point x="457.733" y="268.541"/>
      <point x="420.558" y="272" type="curve"/>
      <point x="437.558" y="301" type="line"/>
      <point x="473.558" y="298.771"/>
      <point x="518.686" y="249.754"/>
      <point x="518.686" y="174" type="curve" smooth="yes"/>
      <point x="518.686" y="94.5391"/>
      <point x="476.277" y="3"/>
      <point x="362.558" y="3" type="curve" smooth="yes"/>
      <point x="270.119" y="3"/>
      <point x="177.558" y="53.0654"/>
    </contour>
    <contour>
      <point x="32.8662" y="283.999" type="curve" smooth="yes"/>
      <point x="32.8662" y="516.988"/>
      <point x="93.124" y="578.999"/>
      <point x="149.866" y="578.999" type="curve" smooth="yes"/>
      <point x="210.872" y="578.999"/>
      <point x="240.033" y="533.999"/>
      <point x="240.033" y="474" type="curve"/>
      <point x="206.558" y="474" type="line"/>
      <point x="205.216" y="521.657"/>
      <point x="180.968" y="541.999"/>
      <point x="149.866" y="541.999" type="curve" smooth="yes"/>
      <point x="100.899" y="541.999"/>
      <point x="69.8662" y="447.085"/>
      <point x="69.8662" y="283.999" type="curve" smooth="yes"/>
      <point x="69.8662" y="114.294"/>
      <point x="110.866" y="49.0127"/>
      <point x="144.866" y="42.999" type="curve"/>
      <point x="144.866" y="5.99902" type="line"/>
      <point x="83.5469" y="14.377"/>
      <point x="32.8662" y="88.2393"/>
    </contour>
  </outline>
</glyph>
<glyph name="si_Ndja" format="1">
  <advance width="594"/>
  <unicode hex="0DA6"/>
  <outline>
    <contour>
      <point x="178" y="283.999" type="curve" smooth="yes"/>
      <point x="178" y="114.294"/>
      <point x="219" y="49.0127"/>
      <point x="253" y="42.999" type="curve"/>
      <point x="253" y="5.99902" type="line"/>
      <point x="191.681" y="14.377"/>
      <point x="141" y="88.2393"/>
      <point x="141" y="283.999" type="curve" smooth="yes"/>
      <point x="141" y="516.988"/>
      <point x="201.257" y="578.999"/>
      <point x="258" y="578.999" type="curve" smooth="yes"/>
      <point x="319.006" y="578.999"/>
      <point x="348.167" y="533.999"/>
      <point x="348.167" y="474" type="curve"/>
      <point x="314.691" y="474" type="line"/>
      <point x="313.35" y="521.657"/>
      <point x="289.102" y="541.999"/>
      <point x="258" y="541.999" type="curve" smooth="yes"/>
      <point x="209.033" y="541.999"/>
      <point x="178" y="447.085"/>
    </contour>
    <component base="si_Ja" xOffset="244.685" yOffset="-1"/>
  </outline>
</glyph>
<glyph name="si_Tta" format="1">
  <advance width="533"/>
  <unicode hex="0DA7"/>
  <outline>
    <contour>
      <point x="84.834" y="235" type="curve" smooth="yes"/>
      <point x="84.834" y="371.177"/>
      <point x="154.479" y="446.538"/>
      <point x="230.834" y="446.538" type="curve" smooth="yes"/>
      <point x="249.738" y="446.538"/>
      <point x="268.082" y="441.8"/>
      <point x="287.834" y="432" type="curve"/>
      <point x="271.834" y="400" type="line"/>
      <point x="257.626" y="407.104"/>
      <point x="244.431" y="410.538"/>
      <point x="230.834" y="410.538" type="curve" smooth="yes"/>
      <point x="171.696" y="410.538"/>
      <point x="121.834" y="345.576"/>
      <point x="121.834" y="235" type="curve" smooth="yes"/>
      <point x="121.834" y="145.522"/>
      <point x="171.426" y="40"/>
      <point x="293.834" y="40" type="curve" smooth="yes"/>
      <point x="421.699" y="40"/>
      <point x="494.834" y="150.518"/>
      <point x="494.834" y="354" type="curve" smooth="yes"/>
      <point x="494.834" y="634.015"/>
      <point x="404.056" y="712"/>
      <point x="292.834" y="712" type="curve" smooth="yes"/>
      <point x="221.962" y="712"/>
      <point x="164.158" y="665.927"/>
      <point x="140.834" y="605" type="curve"/>
      <point x="106.834" y="618" type="line"/>
      <point x="144.834" y="716"/>
      <point x="232.802" y="749"/>
      <point x="292.834" y="749" type="curve" smooth="yes"/>
      <point x="424.979" y="749"/>
      <point x="532.834" y="662.955"/>
      <point x="532.834" y="354" type="curve" smooth="yes"/>
      <point x="532.834" y="126.541"/>
      <point x="445.873" y="3"/>
      <point x="293.834" y="3" type="curve" smooth="yes"/>
      <point x="145.094" y="3"/>
      <point x="84.834" y="128.544"/>
    </contour>
  </outline>
</glyph>
<glyph name="si_Ttha" format="1">
  <advance width="600"/>
  <unicode hex="0DA8"/>
  <outline>
    <contour>
      <point x="318.402" y="603" type="curve" smooth="yes"/>
      <point x="318.402" y="667.298"/>
      <point x="360.886" y="706.649"/>
      <point x="360.886" y="740.685" type="curve" smooth="yes"/>
      <point x="360.886" y="754.219"/>
      <point x="354.168" y="766.912"/>
      <point x="335.391" y="780" type="curve"/>
      <point x="335.391" y="780"/>
      <point x="399" y="761"/>
      <point x="399" y="761" type="curve"/>
      <point x="396.655" y="749.59"/>
      <point x="393.1" y="726.29"/>
      <point x="393.1" y="726.29" type="curve"/>
      <point x="393.1" y="693.053"/>
      <point x="354.391" y="661.163"/>
      <point x="354.391" y="603" type="curve" smooth="yes"/>
      <point x="354.391" y="561.561"/>
      <point x="396.137" y="524.959"/>
      <point x="459.359" y="524.959" type="curve" smooth="yes"/>
      <point x="467.816" y="524.959"/>
      <point x="476.657" y="525.614"/>
      <point x="485.834" y="527" type="curve"/>
      <point x="509" y="522" type="line"/>
      <point x="493.834" y="494" type="line"/>
      <point x="481.586" y="492.013"/>
      <point x="469.787" y="491.073"/>
      <point x="458.5" y="491.073" type="curve" smooth="yes"/>
      <point x="374.119" y="491.073"/>
      <point x="318.402" y="543.568"/>
    </contour>
    <contour>
      <point x="49" y="214" type="curve" smooth="yes"/>
      <point x="49" y="266.264"/>
      <point x="59.9707" y="312.662"/>
      <point x="78.1074" y="350" type="curve" smooth="yes"/>
      <point x="107.228" y="409.948"/>
      <point x="154.82" y="446.538"/>
      <point x="205.138" y="446.538" type="curve" smooth="yes"/>
      <point x="224.042" y="446.538"/>
      <point x="242.386" y="441.8"/>
      <point x="262.138" y="432" type="curve"/>
      <point x="246.138" y="400" type="line"/>
      <point x="231.93" y="407.104"/>
      <point x="218.735" y="410.538"/>
      <point x="205.138" y="410.538" type="curve" smooth="yes"/>
      <point x="166.367" y="410.538"/>
      <point x="131.245" y="379.613"/>
      <point x="109.343" y="331" type="curve" smooth="yes"/>
      <point x="94.7285" y="298.563"/>
      <point x="86" y="258.253"/>
      <point x="86" y="214" type="curve" smooth="yes"/>
      <point x="86" y="130.796"/>
      <point x="108.393" y="40"/>
      <point x="175.834" y="40" type="curve" smooth="yes"/>
      <point x="267" y="40"/>
      <point x="273.592" y="148.886"/>
      <point x="276.834" y="224.5" type="curve"/>
      <point x="310.834" y="224.5" type="line"/>
      <point x="314.076" y="148.886"/>
      <point x="320.668" y="40"/>
      <point x="411.834" y="40" type="curve" smooth="yes"/>
      <point x="504.567" y="40"/>
      <point x="511.391" y="164"/>
      <point x="511.391" y="293" type="curve" smooth="yes"/>
      <point x="511.391" y="382.183"/>
      <point x="502.118" y="458.762"/>
      <point x="485.86" y="524" type="curve"/>
      <point x="464.681" y="608.981"/>
      <point x="431.649" y="674.718"/>
      <point x="391.82" y="724" type="curve"/>
      <point x="374.195" y="745.808"/>
      <point x="355.239" y="764.394"/>
      <point x="335.391" y="780" type="curve"/>
      <point x="358.391" y="807" type="line"/>
      <point x="420.941" y="758.919"/>
      <point x="475.277" y="684.035"/>
      <point x="509.634" y="576" type="curve" smooth="yes"/>
      <point x="534.062" y="499.186"/>
      <point x="548.391" y="405.614"/>
      <point x="548.391" y="293" type="curve" smooth="yes"/>
      <point x="548.391" y="145.135"/>
      <point x="539.031" y="3"/>
      <point x="411.834" y="3" type="curve" smooth="yes"/>
      <point x="316.668" y="3"/>
      <point x="297.668" y="85"/>
      <point x="293.834" y="115" type="curve"/>
      <point x="290" y="85"/>
      <point x="271" y="3"/>
      <point x="175.834" y="3" type="curve" smooth="yes"/>
      <point x="77.8389" y="3"/>
      <point x="49" y="115.606"/>
    </contour>
  </outline>
</glyph>
<glyph name="si_Dda" format="1">
  <advance width="600"/>
  <unicode hex="0DA9"/>
  <outline>
    <contour>
      <point x="52.3906" y="179.103" type="curve" smooth="yes"/>
      <point x="52.3906" y="248"/>
      <point x="72.3691" y="327"/>
      <point x="106.369" y="354" type="curve"/>
      <point x="52.1475" y="354" type="line"/>
      <point x="52.1475" y="389" type="line"/>
      <point x="329.431" y="389" type="line"/>
      <point x="337.154" y="354" type="line"/>
      <point x="200.219" y="354" type="line" smooth="yes"/>
      <point x="102.443" y="354"/>
      <point x="89.3906" y="236.715"/>
      <point x="89.3906" y="179.103" type="curve" smooth="yes"/>
      <point x="89.3906" y="101.944"/>
      <point x="113.79" y="40"/>
      <point x="175.834" y="40" type="curve" smooth="yes"/>
      <point x="267" y="40"/>
      <point x="273.592" y="148.886"/>
      <point x="276.834" y="224.5" type="curve"/>
      <point x="310.834" y="224.5" type="line"/>
      <point x="314.076" y="148.886"/>
      <point x="320.668" y="40"/>
      <point x="411.834" y="40" type="curve" smooth="yes"/>
      <point x="504.567" y="40"/>
      <point x="511.391" y="164"/>
      <point x="511.391" y="293" type="curve" smooth="yes"/>
      <point x="511.391" y="576.887"/>
      <point x="436.939" y="712"/>
      <point x="283.834" y="712" type="curve" smooth="yes"/>
      <point x="212.962" y="712"/>
      <point x="144.485" y="665.927"/>
      <point x="121.161" y="605" type="curve"/>
      <point x="87.1611" y="618" type="line"/>
      <point x="115.36" y="692.593"/>
      <point x="198.148" y="749"/>
      <point x="283.834" y="749" type="curve" smooth="yes"/>
      <point x="461.834" y="749"/>
      <point x="548.391" y="601.955"/>
      <point x="548.391" y="293" type="curve" smooth="yes"/>
      <point x="548.391" y="145.135"/>
      <point x="539.031" y="3"/>
      <point x="411.834" y="3" type="curve" smooth="yes"/>
      <point x="316.668" y="3"/>
      <point x="297.668" y="85"/>
      <point x="293.834" y="115" type="curve"/>
      <point x="290" y="85"/>
      <point x="271" y="3"/>
      <point x="175.834" y="3" type="curve" smooth="yes"/>
      <point x="87.2344" y="3"/>
      <point x="52.3906" y="81.4209"/>
    </contour>
    <contour>
      <point x="105.154" y="420" type="curve" smooth="yes"/>
      <point x="105.154" y="488"/>
      <point x="156.498" y="524"/>
      <point x="215.154" y="524" type="curve" smooth="yes"/>
      <point x="279.711" y="524"/>
      <point x="339.599" y="481.099"/>
      <point x="339.599" y="387" type="curve" smooth="yes"/>
      <point x="339.599" y="375.04"/>
      <point x="338.713" y="364.262"/>
      <point x="337.154" y="354" type="curve"/>
      <point x="305.774" y="379" type="line"/>
      <point x="305.682" y="381.638"/>
      <point x="305.599" y="384.229"/>
      <point x="305.599" y="387" type="curve" smooth="yes"/>
      <point x="305.599" y="457.746"/>
      <point x="263.517" y="490"/>
      <point x="215.154" y="490" type="curve" smooth="yes"/>
      <point x="173.197" y="490"/>
      <point x="138.63" y="467"/>
      <point x="138.63" y="420" type="curve" smooth="yes"/>
      <point x="138.63" y="395.6"/>
      <point x="148.154" y="376"/>
      <point x="161.154" y="364" type="curve" smooth="yes"/>
      <point x="136.973" y="344" type="line" smooth="yes"/>
      <point x="121.154" y="358"/>
      <point x="105.154" y="388.023"/>
    </contour>
  </outline>
</glyph>
<glyph name="si_Ddha" format="1">
  <advance width="570"/>
  <unicode hex="0DAA"/>
  <outline>
    <contour>
      <point x="288.255" y="603" type="curve" smooth="yes"/>
      <point x="288.255" y="667.298"/>
      <point x="330.738" y="706.649"/>
      <point x="330.738" y="740.685" type="curve" smooth="yes"/>
      <point x="330.738" y="754.219"/>
      <point x="324.021" y="766.912"/>
      <point x="305.243" y="780" type="curve"/>
      <point x="305.243" y="780"/>
      <point x="368.853" y="761"/>
      <point x="368.853" y="761" type="curve"/>
      <point x="366.508" y="749.59"/>
      <point x="362.952" y="726.29"/>
      <point x="362.952" y="726.29" type="curve"/>
      <point x="362.952" y="693.053"/>
      <point x="324.243" y="661.163"/>
      <point x="324.243" y="603" type="curve" smooth="yes"/>
      <point x="324.243" y="561.562"/>
      <point x="365.989" y="524.959"/>
      <point x="429.212" y="524.959" type="curve" smooth="yes"/>
      <point x="437.669" y="524.959"/>
      <point x="446.51" y="525.614"/>
      <point x="455.687" y="527" type="curve"/>
      <point x="478.853" y="522" type="line"/>
      <point x="463.687" y="494" type="line"/>
      <point x="451.438" y="492.013"/>
      <point x="439.64" y="491.073"/>
      <point x="428.353" y="491.073" type="curve" smooth="yes"/>
      <point x="343.972" y="491.073"/>
      <point x="288.255" y="543.567"/>
    </contour>
    <contour>
      <point x="22.2432" y="179.103" type="curve" smooth="yes"/>
      <point x="22.2432" y="248"/>
      <point x="42.2217" y="327"/>
      <point x="76.2217" y="354" type="curve"/>
      <point x="22" y="354" type="line"/>
      <point x="22" y="389" type="line"/>
      <point x="299.283" y="389" type="line"/>
      <point x="307.007" y="354" type="line"/>
      <point x="170.071" y="354" type="line" smooth="yes"/>
      <point x="72.2959" y="354"/>
      <point x="59.2432" y="236.715"/>
      <point x="59.2432" y="179.103" type="curve" smooth="yes"/>
      <point x="59.2432" y="101.944"/>
      <point x="83.6436" y="40"/>
      <point x="145.687" y="40" type="curve" smooth="yes"/>
      <point x="236.853" y="40"/>
      <point x="243.444" y="148.886"/>
      <point x="246.687" y="224.5" type="curve"/>
      <point x="280.687" y="224.5" type="line"/>
      <point x="283.929" y="148.886"/>
      <point x="290.521" y="40"/>
      <point x="381.687" y="40" type="curve" smooth="yes"/>
      <point x="474.42" y="40"/>
      <point x="481.243" y="164"/>
      <point x="481.243" y="293" type="curve" smooth="yes"/>
      <point x="481.243" y="382.184"/>
      <point x="471.971" y="458.763"/>
      <point x="455.712" y="524" type="curve"/>
      <point x="434.534" y="608.981"/>
      <point x="401.502" y="674.718"/>
      <point x="361.673" y="724" type="curve"/>
      <point x="344.048" y="745.808"/>
      <point x="325.092" y="764.394"/>
      <point x="305.243" y="780" type="curve"/>
      <point x="328.243" y="807" type="line"/>
      <point x="390.793" y="758.919"/>
      <point x="445.129" y="684.035"/>
      <point x="479.486" y="576" type="curve" smooth="yes"/>
      <point x="503.915" y="499.187"/>
      <point x="518.243" y="405.613"/>
      <point x="518.243" y="293" type="curve" smooth="yes"/>
      <point x="518.243" y="145.135"/>
      <point x="508.884" y="3"/>
      <point x="381.687" y="3" type="curve" smooth="yes"/>
      <point x="286.521" y="3"/>
      <point x="267.521" y="85"/>
      <point x="263.687" y="115" type="curve"/>
      <point x="259.853" y="85"/>
      <point x="240.853" y="3"/>
      <point x="145.687" y="3" type="curve" smooth="yes"/>
      <point x="57.0869" y="3"/>
      <point x="22.2432" y="81.4209"/>
    </contour>
    <contour>
      <point x="75.0068" y="420" type="curve" smooth="yes"/>
      <point x="75.0068" y="488"/>
      <point x="126.351" y="524"/>
      <point x="185.007" y="524" type="curve" smooth="yes"/>
      <point x="249.563" y="524"/>
      <point x="309.451" y="481.099"/>
      <point x="309.451" y="387" type="curve" smooth="yes"/>
      <point x="309.451" y="375.04"/>
      <point x="308.565" y="364.262"/>
      <point x="307.007" y="354" type="curve"/>
      <point x="275.627" y="379" type="line"/>
      <point x="275.534" y="381.638"/>
      <point x="275.451" y="384.229"/>
      <point x="275.451" y="387" type="curve" smooth="yes"/>
      <point x="275.451" y="457.746"/>
      <point x="233.369" y="490"/>
      <point x="185.007" y="490" type="curve" smooth="yes"/>
      <point x="143.05" y="490"/>
      <point x="108.482" y="467"/>
      <point x="108.482" y="420" type="curve" smooth="yes"/>
      <point x="108.482" y="395.6"/>
      <point x="118.007" y="376"/>
      <point x="131.007" y="364" type="curve"/>
      <point x="106.825" y="344" type="line"/>
      <point x="91.0068" y="358"/>
      <point x="75.0068" y="388.023"/>
    </contour>
  </outline>
</glyph>
<glyph name="si_Nna" format="1">
  <advance width="1024"/>
  <unicode hex="0DAB"/>
  <outline>
    <contour>
      <point x="666" y="40" type="curve" smooth="yes"/>
      <point x="800.082" y="40"/>
      <point x="803.606" y="166.844"/>
      <point x="803.606" y="274" type="curve" smooth="yes"/>
      <point x="803.606" y="334.257"/>
      <point x="816.535" y="477"/>
      <point x="727.266" y="477" type="curve" smooth="yes"/>
      <point x="659.604" y="477"/>
      <point x="658.723" y="377.301"/>
      <point x="658.723" y="330" type="curve" smooth="yes"/>
      <point x="658.723" y="260.5" type="line"/>
      <point x="621.723" y="260.5" type="line"/>
      <point x="621.723" y="330" type="line" smooth="yes"/>
      <point x="621.723" y="377.3"/>
      <point x="620.804" y="477"/>
      <point x="550.266" y="477" type="curve" smooth="yes"/>
      <point x="488" y="477"/>
      <point x="502" y="334"/>
      <point x="502" y="275" type="curve"/>
      <point x="465" y="275" type="line"/>
      <point x="465" y="411"/>
      <point x="499.838" y="514"/>
      <point x="550.266" y="514" type="curve" smooth="yes"/>
      <point x="611.921" y="514"/>
      <point x="631.197" y="468.735"/>
      <point x="637.723" y="397.799" type="curve"/>
      <point x="641.266" y="455"/>
      <point x="671.459" y="514"/>
      <point x="727.266" y="514" type="curve" smooth="yes"/>
      <point x="833.094" y="514"/>
      <point x="840.606" y="400.873"/>
      <point x="840.606" y="274" type="curve" smooth="yes"/>
      <point x="840.606" y="149.9"/>
      <point x="836.135" y="3"/>
      <point x="666" y="3" type="curve" smooth="yes"/>
      <point x="499.734" y="3"/>
      <point x="536.556" y="142.295"/>
      <point x="481" y="142.295" type="curve" smooth="yes"/>
      <point x="475.544" y="142.295"/>
      <point x="468.976" y="140.951"/>
      <point x="462" y="138" type="curve"/>
      <point x="450" y="168" type="line"/>
      <point x="463.282" y="174.769"/>
      <point x="474.818" y="177.721"/>
      <point x="485.073" y="177.721" type="curve" smooth="yes"/>
      <point x="575" y="177.721"/>
      <point x="529.734" y="40"/>
    </contour>
    <contour>
      <point x="286" y="67.0977" type="curve" smooth="yes"/>
      <point x="394.445" y="67.0977"/>
      <point x="463.901" y="145.753"/>
      <point x="463.901" y="299" type="curve" smooth="yes"/>
      <point x="463.901" y="482.141"/>
      <point x="373.938" y="554"/>
      <point x="271.901" y="554" type="curve" smooth="yes"/>
      <point x="154.522" y="554"/>
      <point x="87.9014" y="467.325"/>
      <point x="87.9014" y="375" type="curve" smooth="yes"/>
      <point x="87.9014" y="302.069"/>
      <point x="122.901" y="248"/>
      <point x="122.901" y="248" type="curve"/>
      <point x="100.901" y="223" type="line"/>
      <point x="69.9014" y="260"/>
      <point x="53.9014" y="307"/>
      <point x="53.9014" y="375" type="curve" smooth="yes"/>
      <point x="53.9014" y="476.045"/>
      <point x="122.026" y="591"/>
      <point x="271.901" y="591" type="curve" smooth="yes"/>
      <point x="393.602" y="591"/>
      <point x="500.901" y="508.714"/>
      <point x="500.901" y="299" type="curve" smooth="yes"/>
      <point x="500.901" y="121.303"/>
      <point x="417" y="30.0977"/>
      <point x="286" y="30.0977" type="curve" smooth="yes"/>
      <point x="211" y="30.0977"/>
      <point x="154" y="71"/>
      <point x="116" y="25" type="curve"/>
      <point x="89" y="50" type="line"/>
      <point x="141.293" y="113"/>
      <point x="226" y="67.0977"/>
    </contour>
    <contour>
      <point x="78.9014" y="300" type="curve" smooth="yes"/>
      <point x="78.9014" y="367.725"/>
      <point x="124.901" y="423.869"/>
      <point x="196.901" y="423.869" type="curve" smooth="yes"/>
      <point x="223.896" y="423.869"/>
      <point x="248.785" y="414.98"/>
      <point x="268.959" y="400" type="curve" smooth="yes"/>
      <point x="299.397" y="377.397"/>
      <point x="319.1" y="340.928"/>
      <point x="319.1" y="300.198" type="curve" smooth="yes"/>
      <point x="319.1" y="232.474"/>
      <point x="264.626" y="178"/>
      <point x="196.901" y="178" type="curve" smooth="yes"/>
      <point x="143.274" y="178"/>
      <point x="97.0331" y="212.156"/>
      <point x="80.1045" y="260" type="curve" smooth="yes"/>
      <point x="78.2949" y="265.114"/>
      <point x="77.7578" y="270.353"/>
      <point x="77.7578" y="275.716" type="curve" smooth="yes"/>
      <point x="77.7578" y="283.542"/>
      <point x="78.9014" y="291.635"/>
    </contour>
    <contour>
      <point x="109" y="299.957" type="curve" smooth="yes"/>
      <point x="109" y="251.448"/>
      <point x="148.09" y="212.307"/>
      <point x="196.65" y="212.307" type="curve" smooth="yes"/>
      <point x="245.155" y="212.307"/>
      <point x="284.303" y="251.394"/>
      <point x="284.303" y="299.957" type="curve" smooth="yes"/>
      <point x="284.303" y="348.466"/>
      <point x="245.212" y="387.611"/>
      <point x="196.65" y="387.611" type="curve" smooth="yes"/>
      <point x="148.142" y="387.611"/>
      <point x="109" y="348.518"/>
    </contour>
    <contour>
      <point x="360" y="568" type="line"/>
      <point x="434" y="640"/>
      <point x="466.634" y="686"/>
      <point x="466.634" y="779" type="curve"/>
      <point x="503.634" y="779" type="line"/>
      <point x="503.634" y="674"/>
      <point x="450" y="604"/>
      <point x="385" y="542" type="curve"/>
    </contour>
    <contour>
      <point x="116" y="25" type="curve"/>
      <point x="80" y="32" type="line"/>
      <point x="98.1475" y="151.848"/>
      <point x="117" y="176"/>
      <point x="178" y="206" type="curve"/>
      <point x="197" y="182" type="line"/>
      <point x="145" y="160"/>
      <point x="126.744" y="129.552"/>
    </contour>
  </outline>
</glyph>
<glyph name="si_Ta" format="1">
  <advance width="673"/>
  <unicode hex="0DAD"/>
  <outline>
    <contour>
      <point x="30.3594" y="184" type="line"/>
      <point x="248.359" y="458" type="line" smooth="yes"/>
      <point x="302.606" y="526.182"/>
      <point x="363.397" y="581.771"/>
      <point x="436.711" y="581.771" type="curve" smooth="yes"/>
      <point x="541.456" y="581.771"/>
      <point x="633" y="496.051"/>
      <point x="633" y="262.771" type="curve" smooth="yes"/>
      <point x="633" y="90.1943"/>
      <point x="579.108" y="2.77148"/>
      <point x="465.711" y="2.77148" type="curve" smooth="yes"/>
      <point x="398.711" y="2.77148"/>
      <point x="351.959" y="40.499"/>
      <point x="341.711" y="85.7705" type="curve"/>
      <point x="375.711" y="94.7705" type="line"/>
      <point x="383.148" y="64.7715"/>
      <point x="417.711" y="39.7715"/>
      <point x="465.711" y="39.7715" type="curve" smooth="yes"/>
      <point x="537.836" y="39.7715"/>
      <point x="596" y="98.7617"/>
      <point x="596" y="262.771" type="curve" smooth="yes"/>
      <point x="596" y="468.993"/>
      <point x="521.712" y="544.771"/>
      <point x="436.711" y="544.771" type="curve" smooth="yes"/>
      <point x="372.724" y="544.771"/>
      <point x="322.906" y="493.082"/>
      <point x="275.359" y="433" type="curve" smooth="yes"/>
      <point x="82.2656" y="189" type="line"/>
      <point x="55.3594" y="155" type="line"/>
    </contour>
    <contour>
      <point x="80.7314" y="129" type="curve" smooth="yes"/>
      <point x="80.7314" y="142.484"/>
      <point x="75.2188" y="155.662"/>
      <point x="61.1367" y="155.662" type="curve" smooth="yes"/>
      <point x="59.3516" y="155.662"/>
      <point x="57.4277" y="155.45"/>
      <point x="55.3594" y="155" type="curve"/>
      <point x="62.3594" y="184" type="line"/>
      <point x="79.7314" y="192" type="line"/>
      <point x="79.7314" y="192"/>
      <point x="81.5996" y="191.59"/>
      <point x="84.3604" y="190.739" type="curve" smooth="yes"/>
      <point x="112.731" y="182"/>
      <point x="117.731" y="156.439"/>
      <point x="117.731" y="129" type="curve" smooth="yes"/>
      <point x="117.731" y="82.1387"/>
      <point x="151.731" y="40"/>
      <point x="236.731" y="40" type="curve" smooth="yes"/>
      <point x="258.377" y="40"/>
      <point x="369.731" y="46"/>
      <point x="369.731" y="195.999" type="curve" smooth="yes"/>
      <point x="369.731" y="323.731"/>
      <point x="326.358" y="370.667"/>
      <point x="276.731" y="370.667" type="curve" smooth="yes"/>
      <point x="237.731" y="370.667"/>
      <point x="218.731" y="358"/>
      <point x="201.731" y="343" type="curve"/>
      <point x="187.731" y="365" type="line"/>
      <point x="210.731" y="385"/>
      <point x="239.731" y="407.667"/>
      <point x="276.731" y="407.667" type="curve" smooth="yes"/>
      <point x="346.126" y="407.667"/>
      <point x="406.774" y="350.789"/>
      <point x="406.774" y="195.999" type="curve" smooth="yes"/>
      <point x="406.774" y="17"/>
      <point x="286.469" y="3"/>
      <point x="236.731" y="3" type="curve" smooth="yes"/>
      <point x="130.681" y="3"/>
      <point x="80.7314" y="59.7002"/>
    </contour>
    <contour>
      <point x="33.6064" y="474" type="curve" smooth="yes"/>
      <point x="33.6064" y="553"/>
      <point x="93.209" y="591"/>
      <point x="149.915" y="591" type="curve" smooth="yes"/>
      <point x="214.472" y="591"/>
      <point x="274.359" y="548.099"/>
      <point x="274.359" y="454" type="curve"/>
      <point x="240.359" y="402" type="line"/>
      <point x="240.359" y="416"/>
      <point x="240.359" y="435"/>
      <point x="240.359" y="454" type="curve" smooth="yes"/>
      <point x="240.359" y="524.746"/>
      <point x="198.277" y="557"/>
      <point x="149.915" y="557" type="curve" smooth="yes"/>
      <point x="109.529" y="557"/>
      <point x="67.082" y="530.043"/>
      <point x="67.082" y="474" type="curve" smooth="yes"/>
      <point x="67.082" y="407.775"/>
      <point x="110.359" y="368"/>
      <point x="187.359" y="356" type="curve"/>
      <point x="179.359" y="325" type="line"/>
      <point x="92.3594" y="338"/>
      <point x="33.6064" y="390.378"/>
    </contour>
  </outline>
</glyph>
<glyph name="si_Tha" format="1">
  <advance width="533"/>
  <unicode hex="0DAE"/>
  <outline>
    <contour>
      <point x="324.417" y="603" type="curve" smooth="yes"/>
      <point x="324.417" y="667.298"/>
      <point x="366.9" y="706.649"/>
      <point x="366.9" y="740.685" type="curve" smooth="yes"/>
      <point x="366.9" y="754.219"/>
      <point x="360.183" y="766.912"/>
      <point x="341.405" y="780" type="curve"/>
      <point x="405.015" y="761" type="line"/>
      <point x="402.67" y="749.59"/>
      <point x="399.114" y="726.29"/>
      <point x="399.114" y="726.29" type="curve"/>
      <point x="399.114" y="693.053"/>
      <point x="360.405" y="661.163"/>
      <point x="360.405" y="603" type="curve" smooth="yes"/>
      <point x="360.405" y="561.562"/>
      <point x="402.151" y="524.959"/>
      <point x="465.374" y="524.959" type="curve" smooth="yes"/>
      <point x="473.831" y="524.959"/>
      <point x="482.672" y="525.614"/>
      <point x="491.849" y="527" type="curve"/>
      <point x="515.015" y="522" type="line"/>
      <point x="499.849" y="494" type="line"/>
      <point x="487.601" y="492.013"/>
      <point x="475.802" y="491.073"/>
      <point x="464.515" y="491.073" type="curve" smooth="yes"/>
      <point x="380.134" y="491.073"/>
      <point x="324.417" y="543.567"/>
    </contour>
    <contour>
      <point x="84.834" y="235" type="curve" smooth="yes"/>
      <point x="84.834" y="371.177"/>
      <point x="154.479" y="446.538"/>
      <point x="230.834" y="446.538" type="curve" smooth="yes"/>
      <point x="249.738" y="446.538"/>
      <point x="268.082" y="441.8"/>
      <point x="287.834" y="432" type="curve"/>
      <point x="271.834" y="400" type="line"/>
      <point x="257.626" y="407.104"/>
      <point x="244.432" y="410.538"/>
      <point x="230.834" y="410.538" type="curve" smooth="yes"/>
      <point x="171.695" y="410.538"/>
      <point x="121.834" y="345.575"/>
      <point x="121.834" y="235" type="curve" smooth="yes"/>
      <point x="121.834" y="145.521"/>
      <point x="171.426" y="40"/>
      <point x="293.834" y="40" type="curve" smooth="yes"/>
      <point x="432.016" y="40"/>
      <point x="507" y="150.386"/>
      <point x="507" y="342" type="curve" smooth="yes"/>
      <point x="507" y="410.759"/>
      <point x="502.766" y="471.187"/>
      <point x="491.874" y="524" type="curve"/>
      <point x="470.696" y="608.981"/>
      <point x="437.664" y="674.718"/>
      <point x="397.835" y="724" type="curve"/>
      <point x="380.21" y="745.808"/>
      <point x="361.254" y="764.394"/>
      <point x="341.405" y="780" type="curve"/>
      <point x="364.405" y="807" type="line"/>
      <point x="483.414" y="715.402"/>
      <point x="544" y="562.866"/>
      <point x="544" y="342" type="curve" smooth="yes"/>
      <point x="544" y="126.91"/>
      <point x="456" y="3"/>
      <point x="293.834" y="3" type="curve" smooth="yes"/>
      <point x="145.094" y="3"/>
      <point x="84.834" y="128.544"/>
    </contour>
  </outline>
</glyph>
<glyph name="si_Da" format="1">
  <advance width="625"/>
  <unicode hex="0DAF"/>
  <outline>
    <contour>
      <point x="54.2051" y="212" type="curve" smooth="yes"/>
      <point x="54.2051" y="312.682"/>
      <point x="127.205" y="411"/>
      <point x="251.15" y="411" type="curve" smooth="yes"/>
      <point x="275.431" y="411"/>
      <point x="323.205" y="411"/>
      <point x="347.007" y="411" type="curve"/>
      <point x="349.007" y="422"/>
      <point x="352.205" y="438.288"/>
      <point x="352.205" y="454" type="curve" smooth="yes"/>
      <point x="352.205" y="524.746"/>
      <point x="310.123" y="557"/>
      <point x="261.761" y="557" type="curve" smooth="yes"/>
      <point x="221.376" y="557"/>
      <point x="178.928" y="530.043"/>
      <point x="178.928" y="474" type="curve" smooth="yes"/>
      <point x="178.928" y="431.347"/>
      <point x="200.672" y="406.53"/>
      <point x="209.835" y="398" type="curve"/>
      <point x="185.928" y="376" type="line"/>
      <point x="173.928" y="387"/>
      <point x="145.452" y="419"/>
      <point x="145.452" y="474" type="curve" smooth="yes"/>
      <point x="145.452" y="553"/>
      <point x="205.055" y="591"/>
      <point x="261.761" y="591" type="curve" smooth="yes"/>
      <point x="326.317" y="591"/>
      <point x="386.205" y="548.099"/>
      <point x="386.205" y="454" type="curve" smooth="yes"/>
      <point x="386.205" y="424.453"/>
      <point x="381.205" y="399.965"/>
      <point x="372.205" y="374" type="curve"/>
      <point x="372.205" y="374"/>
      <point x="294.205" y="374"/>
      <point x="251.15" y="374" type="curve" smooth="yes"/>
      <point x="151.349" y="374"/>
      <point x="91.2051" y="295.036"/>
      <point x="91.2051" y="212" type="curve" smooth="yes"/>
      <point x="91.2051" y="101.981"/>
      <point x="172.541" y="41.8422"/>
      <point x="255.048" y="41.8422" type="curve" smooth="yes"/>
      <point x="306.328" y="41.8422"/>
      <point x="358.061" y="65.0737"/>
      <point x="391" y="114" type="curve"/>
      <point x="420.277" y="91.6963" type="line"/>
      <point x="380.059" y="31.5457"/>
      <point x="316.892" y="2.99823"/>
      <point x="254.277" y="2.99823" type="curve" smooth="yes"/>
      <point x="153.527" y="2.99823"/>
      <point x="54.2051" y="76.9086"/>
    </contour>
    <contour>
      <point x="194.329" y="-57" type="curve" smooth="yes"/>
      <point x="194.329" y="-24.1729"/>
      <point x="202.073" y="1.5957"/>
      <point x="227" y="34" type="curve"/>
      <point x="256" y="36" type="line"/>
      <point x="258" y="17" type="line"/>
      <point x="235.852" y="-8.83984"/>
      <point x="231.329" y="-30.4658"/>
      <point x="231.329" y="-57" type="curve" smooth="yes"/>
      <point x="231.329" y="-111.588"/>
      <point x="271.796" y="-156.696"/>
      <point x="327" y="-156.696" type="curve" smooth="yes"/>
      <point x="380.439" y="-156.696"/>
      <point x="414.418" y="-132.977"/>
      <point x="442.37" y="-83" type="curve"/>
      <point x="471.647" y="-105.304" type="line"/>
      <point x="436.602" y="-164.569"/>
      <point x="394" y="-192.696"/>
      <point x="327" y="-192.696" type="curve" smooth="yes"/>
      <point x="247.585" y="-192.696"/>
      <point x="194.329" y="-129.529"/>
    </contour>
  </outline>
</glyph>
<glyph name="si_Dha" format="1">
  <advance width="564"/>
  <unicode hex="0DB0"/>
  <outline>
    <contour>
      <point x="32.6094" y="214" type="curve" smooth="yes"/>
      <point x="32.6094" y="266.264"/>
      <point x="43.5801" y="312.662"/>
      <point x="61.7168" y="350" type="curve" smooth="yes"/>
      <point x="90.8369" y="409.948"/>
      <point x="138.43" y="446.538"/>
      <point x="188.747" y="446.538" type="curve" smooth="yes"/>
      <point x="207.651" y="446.538"/>
      <point x="225.995" y="441.8"/>
      <point x="245.747" y="432" type="curve"/>
      <point x="229.747" y="400" type="line"/>
      <point x="215.539" y="407.104"/>
      <point x="202.345" y="410.538"/>
      <point x="188.747" y="410.538" type="curve" smooth="yes"/>
      <point x="149.977" y="410.538"/>
      <point x="114.854" y="379.613"/>
      <point x="92.9521" y="331" type="curve" smooth="yes"/>
      <point x="78.3379" y="298.563"/>
      <point x="69.6094" y="258.253"/>
      <point x="69.6094" y="214" type="curve" smooth="yes"/>
      <point x="69.6094" y="130.796"/>
      <point x="92.002" y="40"/>
      <point x="159.443" y="40" type="curve" smooth="yes"/>
      <point x="250.609" y="40"/>
      <point x="257.201" y="148.886"/>
      <point x="260.443" y="224.5" type="curve"/>
      <point x="294.443" y="224.5" type="line"/>
      <point x="297.686" y="148.886"/>
      <point x="304.277" y="40"/>
      <point x="395.443" y="40" type="curve" smooth="yes"/>
      <point x="488.177" y="40"/>
      <point x="495" y="164"/>
      <point x="495" y="293" type="curve" smooth="yes"/>
      <point x="495" y="576.887"/>
      <point x="420.549" y="712"/>
      <point x="267.443" y="712" type="curve" smooth="yes"/>
      <point x="196.571" y="712"/>
      <point x="128.095" y="665.927"/>
      <point x="104.771" y="605" type="curve"/>
      <point x="70.7705" y="618" type="line"/>
      <point x="98.9697" y="692.593"/>
      <point x="181.758" y="749"/>
      <point x="267.443" y="749" type="curve" smooth="yes"/>
      <point x="445.443" y="749"/>
      <point x="532" y="601.955"/>
      <point x="532" y="293" type="curve" smooth="yes"/>
      <point x="532" y="145.135"/>
      <point x="522.641" y="3"/>
      <point x="395.443" y="3" type="curve" smooth="yes"/>
      <point x="300.277" y="3"/>
      <point x="281.277" y="85"/>
      <point x="277.443" y="115" type="curve"/>
      <point x="273.609" y="85"/>
      <point x="254.609" y="3"/>
      <point x="159.443" y="3" type="curve" smooth="yes"/>
      <point x="61.4482" y="3"/>
      <point x="32.6094" y="115.606"/>
    </contour>
  </outline>
</glyph>
<glyph name="si_Na" format="1">
  <advance width="647"/>
  <unicode hex="0DB1"/>
  <outline>
    <contour>
      <point x="207.376" y="40" type="curve" smooth="yes"/>
      <point x="293.872" y="40"/>
      <point x="356.376" y="89.3057"/>
      <point x="356.376" y="195.999" type="curve" smooth="yes"/>
      <point x="356.376" y="335.037"/>
      <point x="293.325" y="359.939"/>
      <point x="236.376" y="334" type="curve"/>
      <point x="218.376" y="361" type="line"/>
      <point x="291.376" y="396"/>
      <point x="393.419" y="389.224"/>
      <point x="393.419" y="195.999" type="curve" smooth="yes"/>
      <point x="393.419" y="64"/>
      <point x="315.376" y="3"/>
      <point x="207.376" y="3" type="curve" smooth="yes"/>
      <point x="59.0273" y="3"/>
      <point x="5.37598" y="142"/>
      <point x="26.376" y="272" type="curve"/>
      <point x="63.376" y="272" type="line"/>
      <point x="46.6689" y="159.881"/>
      <point x="89.3525" y="40"/>
    </contour>
    <contour>
      <point x="70.9199" y="473.563" type="curve" smooth="yes"/>
      <point x="70.9199" y="407.339"/>
      <point x="114.197" y="367.563"/>
      <point x="191.197" y="355.563" type="curve"/>
      <point x="183.197" y="324.563" type="line"/>
      <point x="96.1973" y="337.563"/>
      <point x="37.4443" y="389.941"/>
      <point x="37.4443" y="473.563" type="curve" smooth="yes"/>
      <point x="37.4443" y="552.563"/>
      <point x="97.0469" y="590.563"/>
      <point x="153.753" y="590.563" type="curve" smooth="yes"/>
      <point x="218.31" y="590.563"/>
      <point x="278.197" y="547.662"/>
      <point x="278.197" y="453.563" type="curve" smooth="yes"/>
      <point x="244.197" y="401.563" type="line"/>
      <point x="244.197" y="415.563"/>
      <point x="244.197" y="434.563"/>
      <point x="244.197" y="453.563" type="curve" smooth="yes"/>
      <point x="244.197" y="524.31"/>
      <point x="202.115" y="556.563"/>
      <point x="153.753" y="556.563" type="curve" smooth="yes"/>
      <point x="113.367" y="556.563"/>
      <point x="70.9199" y="529.606"/>
    </contour>
    <contour>
      <point x="394.289" y="94.999" type="line"/>
      <point x="400.9" y="64.999"/>
      <point x="425.734" y="39.999"/>
      <point x="474.289" y="39.999" type="curve" smooth="yes"/>
      <point x="537.396" y="39.999"/>
      <point x="588.289" y="98.9893"/>
      <point x="588.289" y="262.999" type="curve" smooth="yes"/>
      <point x="588.289" y="469.222"/>
      <point x="509.938" y="544.999"/>
      <point x="420.289" y="544.999" type="curve" smooth="yes"/>
      <point x="343.443" y="544.999"/>
      <point x="306.923" y="495.615"/>
      <point x="282.376" y="434" type="curve" smooth="yes"/>
      <point x="233.752" y="311.944"/>
      <point x="225.134" y="145.135"/>
      <point x="43.376" y="209" type="curve"/>
      <point x="60.376" y="241" type="line"/>
      <point x="193.376" y="198"/>
      <point x="196.857" y="337.722"/>
      <point x="248.376" y="448" type="curve" smooth="yes"/>
      <point x="281.701" y="519.333"/>
      <point x="326.089" y="581.999"/>
      <point x="420.289" y="581.999" type="curve" smooth="yes"/>
      <point x="529.683" y="581.999"/>
      <point x="625.289" y="496.279"/>
      <point x="625.289" y="262.999" type="curve" smooth="yes"/>
      <point x="625.289" y="90.4219"/>
      <point x="576.645" y="2.99902"/>
      <point x="474.289" y="2.99902" type="curve" smooth="yes"/>
      <point x="405.099" y="2.99902"/>
      <point x="369.711" y="40.7266"/>
      <point x="360.289" y="85.999" type="curve"/>
    </contour>
  </outline>
</glyph>
<glyph name="si_Nda" format="1">
  <advance width="599"/>
  <unicode hex="0DB3"/>
  <outline>
    <contour>
      <point x="289.384" y="-56.999" type="curve" smooth="yes"/>
      <point x="289.384" y="-24.1719"/>
      <point x="297.128" y="1.59668"/>
      <point x="322.055" y="34.001" type="curve"/>
      <point x="351.055" y="36.001" type="line"/>
      <point x="353.055" y="17.001" type="line"/>
      <point x="330.906" y="-8.83887"/>
      <point x="326.384" y="-30.4648"/>
      <point x="326.384" y="-56.999" type="curve" smooth="yes"/>
      <point x="326.384" y="-111.587"/>
      <point x="366.851" y="-156.695"/>
      <point x="422.055" y="-156.695" type="curve" smooth="yes"/>
      <point x="475.493" y="-156.695"/>
      <point x="509.473" y="-132.976"/>
      <point x="537.425" y="-82.999" type="curve"/>
      <point x="566.702" y="-105.303" type="line"/>
      <point x="531.656" y="-164.567"/>
      <point x="489.055" y="-192.695"/>
      <point x="422.055" y="-192.695" type="curve" smooth="yes"/>
      <point x="342.64" y="-192.695"/>
      <point x="289.384" y="-129.528"/>
    </contour>
    <contour>
      <point x="149.26" y="212.001" type="curve" smooth="yes"/>
      <point x="149.26" y="312.683"/>
      <point x="222.26" y="411.001"/>
      <point x="346.205" y="411.001" type="curve" smooth="yes"/>
      <point x="370.485" y="411.001"/>
      <point x="418.26" y="411.001"/>
      <point x="442.062" y="411.001" type="curve"/>
      <point x="444.062" y="422.001"/>
      <point x="447.26" y="438.289"/>
      <point x="447.26" y="454.001" type="curve" smooth="yes"/>
      <point x="447.26" y="524.747"/>
      <point x="405.178" y="557.001"/>
      <point x="356.815" y="557.001" type="curve" smooth="yes"/>
      <point x="316.431" y="557.001"/>
      <point x="273.982" y="530.044"/>
      <point x="273.982" y="474.001" type="curve" smooth="yes"/>
      <point x="273.982" y="431.348"/>
      <point x="295.727" y="406.531"/>
      <point x="304.89" y="398.001" type="curve"/>
      <point x="280.982" y="376.001" type="line"/>
      <point x="268.982" y="387.001"/>
      <point x="240.507" y="419.001"/>
      <point x="240.507" y="474.001" type="curve" smooth="yes"/>
      <point x="240.507" y="553.001"/>
      <point x="300.109" y="591.001"/>
      <point x="356.815" y="591.001" type="curve" smooth="yes"/>
      <point x="421.372" y="591.001"/>
      <point x="481.26" y="548.1"/>
      <point x="481.26" y="454.001" type="curve" smooth="yes"/>
      <point x="481.26" y="424.454"/>
      <point x="476.26" y="399.966"/>
      <point x="467.26" y="374.001" type="curve"/>
      <point x="467.26" y="374.001"/>
      <point x="389.26" y="374.001"/>
      <point x="346.205" y="374.001" type="curve" smooth="yes"/>
      <point x="246.403" y="374.001"/>
      <point x="186.26" y="295.037"/>
      <point x="186.26" y="212.001" type="curve" smooth="yes"/>
      <point x="186.26" y="101.982"/>
      <point x="267.596" y="41.8428"/>
      <point x="350.103" y="41.8428" type="curve" smooth="yes"/>
      <point x="401.383" y="41.8428"/>
      <point x="453.116" y="65.0752"/>
      <point x="486.055" y="114.001" type="curve"/>
      <point x="515.332" y="91.6973" type="line"/>
      <point x="475.113" y="31.5469"/>
      <point x="411.947" y="2.99902"/>
      <point x="349.332" y="2.99902" type="curve" smooth="yes"/>
      <point x="248.582" y="2.99902"/>
      <point x="149.26" y="76.9092"/>
    </contour>
    <contour>
      <point x="33" y="284" type="curve" smooth="yes"/>
      <point x="33" y="516.989"/>
      <point x="104.588" y="579"/>
      <point x="172" y="579" type="curve" smooth="yes"/>
      <point x="241" y="579"/>
      <point x="273.982" y="534"/>
      <point x="273.982" y="474.001" type="curve"/>
      <point x="240.507" y="474.001" type="line"/>
      <point x="238.886" y="521.658"/>
      <point x="209.584" y="542"/>
      <point x="172" y="542" type="curve" smooth="yes"/>
      <point x="109.567" y="542"/>
      <point x="70" y="447.086"/>
      <point x="70" y="284" type="curve" smooth="yes"/>
      <point x="70" y="114.295"/>
      <point x="111" y="49.0137"/>
      <point x="145" y="43" type="curve"/>
      <point x="145" y="6" type="line"/>
      <point x="83.6807" y="14.3779"/>
      <point x="33" y="88.2402"/>
    </contour>
  </outline>
</glyph>
<glyph name="si_Pa" format="1">
  <advance width="555"/>
  <unicode hex="0DB4"/>
  <outline>
    <contour>
      <point x="260.833" y="454" type="curve" smooth="yes"/>
      <point x="260.833" y="466.186"/>
      <point x="261.838" y="477.513"/>
      <point x="263.728" y="488" type="curve" smooth="yes"/>
      <point x="276.424" y="558.491"/>
      <point x="329.082" y="591"/>
      <point x="385.278" y="591" type="curve" smooth="yes"/>
      <point x="441.984" y="591"/>
      <point x="501.587" y="553"/>
      <point x="501.587" y="474" type="curve" smooth="yes"/>
      <point x="501.587" y="429.732"/>
      <point x="481.27" y="385.565"/>
      <point x="449.723" y="361" type="curve"/>
      <point x="423.723" y="382" type="line"/>
      <point x="450.723" y="402"/>
      <point x="468.111" y="437.959"/>
      <point x="468.111" y="474" type="curve" smooth="yes"/>
      <point x="468.111" y="530.043"/>
      <point x="425.663" y="557"/>
      <point x="385.278" y="557" type="curve" smooth="yes"/>
      <point x="336.916" y="557"/>
      <point x="294.834" y="524.746"/>
      <point x="294.834" y="454" type="curve" smooth="yes"/>
      <point x="294.834" y="435"/>
      <point x="294.834" y="416"/>
      <point x="294.834" y="402" type="curve"/>
      <point x="277.834" y="369" type="line"/>
      <point x="268.117" y="397.663"/>
      <point x="260.833" y="421.384"/>
    </contour>
    <contour>
      <point x="59" y="224.437" type="curve" smooth="yes"/>
      <point x="59" y="107.242"/>
      <point x="145.024" y="30"/>
      <point x="277.834" y="30" type="curve" smooth="yes"/>
      <point x="410.644" y="30"/>
      <point x="496.668" y="106.806"/>
      <point x="496.668" y="224" type="curve" smooth="yes"/>
      <point x="496.668" y="299.407"/>
      <point x="458.191" y="365"/>
      <point x="374" y="365" type="curve" smooth="yes"/>
      <point x="181.668" y="365" type="line" smooth="yes"/>
      <point x="97.4766" y="365"/>
      <point x="59" y="299.844"/>
    </contour>
    <contour>
      <point x="22" y="224.437" type="curve" smooth="yes"/>
      <point x="22" y="319.693"/>
      <point x="74.9033" y="402"/>
      <point x="181.668" y="402" type="curve" smooth="yes"/>
      <point x="374" y="402" type="line" smooth="yes"/>
      <point x="480.765" y="402"/>
      <point x="533.668" y="319.257"/>
      <point x="533.668" y="224" type="curve" smooth="yes"/>
      <point x="533.668" y="84.5049"/>
      <point x="433.34" y="-7"/>
      <point x="277.834" y="-7" type="curve" smooth="yes"/>
      <point x="122.328" y="-7"/>
      <point x="22" y="84.9414"/>
    </contour>
    <contour>
      <point x="54.0801" y="474" type="curve" smooth="yes"/>
      <point x="54.0801" y="553"/>
      <point x="113.683" y="591"/>
      <point x="170.389" y="591" type="curve" smooth="yes"/>
      <point x="226.585" y="591"/>
      <point x="279.247" y="558.491"/>
      <point x="291.94" y="488" type="curve" smooth="yes"/>
      <point x="293.829" y="477.514"/>
      <point x="294.833" y="466.186"/>
      <point x="294.833" y="454" type="curve" smooth="yes"/>
      <point x="294.833" y="421.384"/>
      <point x="287.549" y="397.663"/>
      <point x="277.833" y="369" type="curve"/>
      <point x="260.833" y="402" type="line"/>
      <point x="260.833" y="416"/>
      <point x="260.833" y="435"/>
      <point x="260.833" y="454" type="curve" smooth="yes"/>
      <point x="260.833" y="524.746"/>
      <point x="218.751" y="557"/>
      <point x="170.389" y="557" type="curve" smooth="yes"/>
      <point x="130.004" y="557"/>
      <point x="87.5557" y="530.043"/>
      <point x="87.5557" y="474" type="curve" smooth="yes"/>
      <point x="87.5557" y="437.959"/>
      <point x="104.944" y="402"/>
      <point x="131.944" y="382" type="curve"/>
      <point x="105.944" y="361" type="line"/>
      <point x="74.3975" y="385.565"/>
      <point x="54.0801" y="429.732"/>
    </contour>
  </outline>
</glyph>
<glyph name="si_Pha" format="1">
  <advance width="530"/>
  <unicode hex="0DB5"/>
  <outline>
    <contour>
      <point x="270.417" y="603" type="curve" smooth="yes"/>
      <point x="270.417" y="667.298"/>
      <point x="312.9" y="706.649"/>
      <point x="312.9" y="740.685" type="curve" smooth="yes"/>
      <point x="312.9" y="754.219"/>
      <point x="306.183" y="766.912"/>
      <point x="287.405" y="780" type="curve"/>
      <point x="351.015" y="761" type="line"/>
      <point x="348.67" y="749.59"/>
      <point x="345.114" y="726.29"/>
      <point x="345.114" y="726.29" type="curve"/>
      <point x="345.114" y="693.053"/>
      <point x="306.405" y="661.163"/>
      <point x="306.405" y="603" type="curve" smooth="yes"/>
      <point x="306.405" y="561.562"/>
      <point x="348.151" y="524.959"/>
      <point x="411.374" y="524.959" type="curve" smooth="yes"/>
      <point x="419.831" y="524.959"/>
      <point x="428.672" y="525.614"/>
      <point x="437.849" y="527" type="curve"/>
      <point x="461.015" y="522" type="line"/>
      <point x="445.849" y="494" type="line"/>
      <point x="433.601" y="492.013"/>
      <point x="421.802" y="491.073"/>
      <point x="410.515" y="491.073" type="curve" smooth="yes"/>
      <point x="326.134" y="491.073"/>
      <point x="270.417" y="543.567"/>
    </contour>
    <contour>
      <point x="21.834" y="219" type="curve" smooth="yes"/>
      <point x="21.834" y="284.815"/>
      <point x="42.8857" y="335.012"/>
      <point x="79.2373" y="363" type="curve" smooth="yes"/>
      <point x="100.327" y="379.237"/>
      <point x="126.567" y="388"/>
      <point x="156.834" y="388" type="curve" smooth="yes"/>
      <point x="205.834" y="388"/>
      <point x="273.834" y="388"/>
      <point x="273.834" y="388" type="curve"/>
      <point x="292.834" y="354" type="line"/>
      <point x="156.834" y="354" type="line" smooth="yes"/>
      <point x="93.875" y="354"/>
      <point x="57.834" y="298.873"/>
      <point x="57.834" y="219" type="curve" smooth="yes"/>
      <point x="57.834" y="154.403"/>
      <point x="87.8809" y="40"/>
      <point x="239.834" y="40" type="curve" smooth="yes"/>
      <point x="378.016" y="40"/>
      <point x="453" y="150.386"/>
      <point x="453" y="342" type="curve" smooth="yes"/>
      <point x="453" y="410.759"/>
      <point x="448.766" y="471.187"/>
      <point x="437.874" y="524" type="curve"/>
      <point x="416.696" y="608.981"/>
      <point x="383.664" y="674.718"/>
      <point x="343.835" y="724" type="curve"/>
      <point x="326.21" y="745.808"/>
      <point x="307.254" y="764.394"/>
      <point x="287.405" y="780" type="curve"/>
      <point x="310.405" y="807" type="line"/>
      <point x="429.414" y="715.402"/>
      <point x="490" y="562.866"/>
      <point x="490" y="342" type="curve" smooth="yes"/>
      <point x="490" y="126.91"/>
      <point x="402" y="3"/>
      <point x="239.834" y="3" type="curve" smooth="yes"/>
      <point x="57.8242" y="3"/>
      <point x="21.834" y="141.051"/>
    </contour>
    <contour>
      <point x="60.834" y="420" type="curve" smooth="yes"/>
      <point x="60.834" y="488"/>
      <point x="112.178" y="524"/>
      <point x="170.834" y="524" type="curve" smooth="yes"/>
      <point x="235.39" y="524"/>
      <point x="295.278" y="481.099"/>
      <point x="295.278" y="387" type="curve" smooth="yes"/>
      <point x="295.278" y="375.04"/>
      <point x="294.393" y="364.262"/>
      <point x="292.834" y="354" type="curve"/>
      <point x="261.454" y="379" type="line"/>
      <point x="261.361" y="381.638"/>
      <point x="261.278" y="384.229"/>
      <point x="261.278" y="387" type="curve" smooth="yes"/>
      <point x="261.278" y="457.746"/>
      <point x="219.196" y="490"/>
      <point x="170.834" y="490" type="curve" smooth="yes"/>
      <point x="128.877" y="490"/>
      <point x="94.3096" y="467"/>
      <point x="94.3096" y="420" type="curve" smooth="yes"/>
      <point x="94.3096" y="395.6"/>
      <point x="103.834" y="376"/>
      <point x="116.834" y="364" type="curve"/>
      <point x="92.6523" y="344" type="line"/>
      <point x="76.834" y="358"/>
      <point x="60.834" y="388.023"/>
    </contour>
  </outline>
</glyph>
<glyph name="si_Ba" format="1">
  <advance width="551"/>
  <unicode hex="0DB6"/>
  <outline>
    <contour>
      <point x="22" y="220" type="curve" smooth="yes"/>
      <point x="22" y="419.134"/>
      <point x="97.666" y="486"/>
      <point x="185.061" y="486" type="curve" smooth="yes"/>
      <point x="276.595" y="486"/>
      <point x="320" y="436.897"/>
      <point x="320" y="344" type="curve" smooth="yes"/>
      <point x="320" y="247"/>
      <point x="246" y="228"/>
      <point x="246" y="137" type="curve" smooth="yes"/>
      <point x="246" y="65.1299"/>
      <point x="292.975" y="39"/>
      <point x="346" y="39" type="curve" smooth="yes"/>
      <point x="447.697" y="39"/>
      <point x="474.619" y="145.855"/>
      <point x="474.619" y="293" type="curve" smooth="yes"/>
      <point x="474.619" y="576.887"/>
      <point x="400.168" y="712"/>
      <point x="247.062" y="712" type="curve" smooth="yes"/>
      <point x="176.19" y="712"/>
      <point x="107.714" y="665.927"/>
      <point x="84.3896" y="605" type="curve"/>
      <point x="50.3896" y="618" type="line"/>
      <point x="78.5889" y="692.593"/>
      <point x="161.377" y="749"/>
      <point x="247.062" y="749" type="curve" smooth="yes"/>
      <point x="425.062" y="749"/>
      <point x="511.619" y="601.955"/>
      <point x="511.619" y="293" type="curve" smooth="yes"/>
      <point x="511.619" y="125"/>
      <point x="476.952" y="3"/>
      <point x="346" y="3" type="curve" smooth="yes"/>
      <point x="251.843" y="3"/>
      <point x="210.114" y="58.3154"/>
      <point x="210.114" y="137" type="curve" smooth="yes"/>
      <point x="210.114" y="241"/>
      <point x="284" y="258"/>
      <point x="284" y="344" type="curve" smooth="yes"/>
      <point x="284" y="413.346"/>
      <point x="252.175" y="450"/>
      <point x="185.061" y="450" type="curve" smooth="yes"/>
      <point x="117.497" y="450"/>
      <point x="59" y="392.184"/>
      <point x="59" y="220" type="curve" smooth="yes"/>
      <point x="59" y="105.193"/>
      <point x="84.7783" y="39"/>
      <point x="144" y="39" type="curve" smooth="yes"/>
      <point x="182.885" y="39"/>
      <point x="209.538" y="79"/>
      <point x="216" y="115" type="curve"/>
      <point x="246" y="108" type="line"/>
      <point x="236.556" y="52"/>
      <point x="205.124" y="3"/>
      <point x="144" y="3" type="curve" smooth="yes"/>
      <point x="59" y="3"/>
      <point x="22" y="82.3594"/>
    </contour>
  </outline>
</glyph>
<glyph name="si_Bha" format="1">
  <advance width="625"/>
  <unicode hex="0DB7"/>
  <outline>
    <contour>
      <point x="74.5264" y="264" type="curve" smooth="yes"/>
      <point x="70.358" y="243.278"/>
      <point x="68.3499" y="223.495"/>
      <point x="68.3499" y="204.875" type="curve" smooth="yes"/>
      <point x="68.3499" y="106.071"/>
      <point x="124.893" y="40"/>
      <point x="215.242" y="40" type="curve" smooth="yes"/>
      <point x="304.104" y="40"/>
      <point x="337.242" y="103.167"/>
      <point x="337.242" y="158" type="curve" smooth="yes"/>
      <point x="337.242" y="200.669"/>
      <point x="321.838" y="231.956"/>
      <point x="292.766" y="231.956" type="curve" smooth="yes"/>
      <point x="283.599" y="231.956"/>
      <point x="273.073" y="228.845"/>
      <point x="261.242" y="222" type="curve"/>
      <point x="252.242" y="249" type="line"/>
      <point x="269.736" y="257.286"/>
      <point x="285.866" y="261.203"/>
      <point x="300.278" y="261.203" type="curve" smooth="yes"/>
      <point x="345.848" y="261.203"/>
      <point x="374.242" y="222.041"/>
      <point x="374.242" y="158" type="curve" smooth="yes"/>
      <point x="374.242" y="85.9736"/>
      <point x="331.054" y="3"/>
      <point x="215.242" y="3" type="curve" smooth="yes"/>
      <point x="101.147" y="3"/>
      <point x="31.1126" y="82.2281"/>
      <point x="31.1126" y="200.987" type="curve" smooth="yes"/>
      <point x="31.1126" y="222.746"/>
      <point x="33.4635" y="245.831"/>
      <point x="38.3252" y="270" type="curve" smooth="yes"/>
      <point x="47.0576" y="313.411"/>
      <point x="63.0391" y="351.78"/>
      <point x="84.7227" y="369" type="curve"/>
      <point x="21" y="369" type="line"/>
      <point x="21" y="405" type="line"/>
      <point x="306.242" y="405" type="line"/>
      <point x="306.242" y="369" type="line"/>
      <point x="178.572" y="369" type="line" smooth="yes"/>
      <point x="112.947" y="369"/>
      <point x="85.0384" y="316.258"/>
    </contour>
    <contour>
      <point x="279.114" y="400.688" type="curve" smooth="yes"/>
      <point x="279.114" y="493.238"/>
      <point x="327.765" y="580.844"/>
      <point x="428.242" y="580.844" type="curve" smooth="yes"/>
      <point x="520.681" y="580.844"/>
      <point x="603.614" y="527.844"/>
      <point x="603.614" y="291.844" type="curve" smooth="yes"/>
      <point x="603.614" y="56.8438"/>
      <point x="521.283" y="2.84375"/>
      <point x="435.242" y="2.84375" type="curve" smooth="yes"/>
      <point x="379.478" y="2.84375"/>
      <point x="343.003" y="31.5254"/>
      <point x="324.242" y="70.6406" type="curve" smooth="yes"/>
      <point x="347.614" y="122.844" type="line"/>
      <point x="350.614" y="82.8438"/>
      <point x="382.614" y="39.8438"/>
      <point x="435.242" y="39.8438" type="curve" smooth="yes"/>
      <point x="502.12" y="39.8438"/>
      <point x="566.114" y="86.9307"/>
      <point x="566.114" y="291.844" type="curve" smooth="yes"/>
      <point x="566.114" y="497.629"/>
      <point x="501.943" y="543.844"/>
      <point x="428.242" y="543.844" type="curve" smooth="yes"/>
      <point x="352.694" y="543.844"/>
      <point x="316.114" y="474.23"/>
      <point x="316.114" y="400.688" type="curve" smooth="yes"/>
      <point x="316.114" y="353.534"/>
      <point x="328.806" y="248.921"/>
      <point x="238.242" y="209" type="curve"/>
      <point x="226.242" y="238" type="line"/>
      <point x="287.731" y="271.882"/>
      <point x="279.114" y="360.668"/>
    </contour>
    <contour>
      <point x="173.833" y="557" type="curve" smooth="yes"/>
      <point x="133.447" y="557"/>
      <point x="91" y="530.043"/>
      <point x="91" y="474" type="curve" smooth="yes"/>
      <point x="91" y="432"/>
      <point x="110" y="406"/>
      <point x="120" y="396" type="curve"/>
      <point x="98" y="376" type="line"/>
      <point x="86" y="387"/>
      <point x="57.5244" y="419"/>
      <point x="57.5244" y="474" type="curve" smooth="yes"/>
      <point x="57.5244" y="553"/>
      <point x="117.127" y="591"/>
      <point x="173.833" y="591" type="curve" smooth="yes"/>
      <point x="244.768" y="591"/>
      <point x="310.573" y="548.099"/>
      <point x="310.573" y="454" type="curve" smooth="yes"/>
      <point x="310.573" y="434.047"/>
      <point x="310.859" y="419.535"/>
      <point x="311.242" y="402" type="curve"/>
      <point x="276.573" y="402" type="line"/>
      <point x="276.573" y="416"/>
      <point x="276.573" y="435"/>
      <point x="276.573" y="454" type="curve" smooth="yes"/>
      <point x="276.573" y="524.746"/>
      <point x="228.77" y="557"/>
    </contour>
  </outline>
</glyph>
<glyph name="si_Ma" format="1">
  <advance width="1024"/>
  <unicode hex="0DB8"/>
  <outline>
    <contour>
      <point x="98" y="292" type="curve" smooth="yes"/>
      <point x="98" y="201.059"/>
      <point x="130.331" y="40"/>
      <point x="293.834" y="40" type="curve" smooth="yes"/>
      <point x="421.699" y="40"/>
      <point x="494.834" y="150.519"/>
      <point x="494.834" y="354" type="curve" smooth="yes"/>
      <point x="494.834" y="634.015"/>
      <point x="404.057" y="712"/>
      <point x="292.834" y="712" type="curve" smooth="yes"/>
      <point x="221.962" y="712"/>
      <point x="164.158" y="665.927"/>
      <point x="140.834" y="605" type="curve"/>
      <point x="106.834" y="618" type="line"/>
      <point x="144.834" y="716"/>
      <point x="232.802" y="749"/>
      <point x="292.834" y="749" type="curve" smooth="yes"/>
      <point x="424.979" y="749"/>
      <point x="532.834" y="662.955"/>
      <point x="532.834" y="354" type="curve" smooth="yes"/>
      <point x="532.834" y="126.541"/>
      <point x="445.873" y="3"/>
      <point x="293.834" y="3" type="curve" smooth="yes"/>
      <point x="100.274" y="3"/>
      <point x="62" y="187.707"/>
      <point x="62" y="292" type="curve" smooth="yes"/>
      <point x="62" y="460"/>
      <point x="110.889" y="518"/>
      <point x="174" y="518" type="curve" smooth="yes"/>
      <point x="284.566" y="518"/>
      <point x="241.166" y="407"/>
      <point x="241.166" y="347" type="curve" smooth="yes"/>
      <point x="241.166" y="298.446"/>
      <point x="251.266" y="265"/>
      <point x="296" y="265" type="curve" smooth="yes"/>
      <point x="343.166" y="265"/>
      <point x="348.166" y="329.423"/>
      <point x="348.166" y="386" type="curve" smooth="yes"/>
      <point x="348.166" y="449.769"/>
      <point x="320.932" y="485.01"/>
      <point x="290.166" y="485.01" type="curve" smooth="yes"/>
      <point x="268.791" y="485.01"/>
      <point x="254.166" y="477"/>
      <point x="245.166" y="462" type="curve"/>
      <point x="222.166" y="489" type="line"/>
      <point x="238.356" y="505"/>
      <point x="256.706" y="520.01"/>
      <point x="290.166" y="520.01" type="curve" smooth="yes"/>
      <point x="341.137" y="520.01"/>
      <point x="383.166" y="477.856"/>
      <point x="383.166" y="386" type="curve" smooth="yes"/>
      <point x="383.166" y="342.32"/>
      <point x="381.166" y="230"/>
      <point x="296" y="230" type="curve" smooth="yes"/>
      <point x="221.799" y="230"/>
      <point x="206.166" y="286.072"/>
      <point x="206.166" y="347" type="curve" smooth="yes"/>
      <point x="206.166" y="397"/>
      <point x="241.549" y="484"/>
      <point x="174" y="484" type="curve" smooth="yes"/>
      <point x="131" y="484"/>
      <point x="98" y="438"/>
    </contour>
  </outline>
</glyph>
<glyph name="si_Mba" format="1">
  <advance width="590"/>
  <unicode hex="0DB9"/>
  <outline>
    <contour>
      <point x="411.834" y="40" type="curve" smooth="yes"/>
      <point x="504.567" y="40"/>
      <point x="511.391" y="164"/>
      <point x="511.391" y="293" type="curve" smooth="yes"/>
      <point x="511.391" y="576.887"/>
      <point x="436.939" y="712"/>
      <point x="283.834" y="712" type="curve" smooth="yes"/>
      <point x="212.962" y="712"/>
      <point x="144.485" y="665.927"/>
      <point x="121.161" y="605" type="curve"/>
      <point x="87.1611" y="618" type="line"/>
      <point x="115.36" y="692.593"/>
      <point x="198.148" y="749"/>
      <point x="283.834" y="749" type="curve" smooth="yes"/>
      <point x="461.834" y="749"/>
      <point x="548.391" y="601.955"/>
      <point x="548.391" y="293" type="curve" smooth="yes"/>
      <point x="548.391" y="145.135"/>
      <point x="539.031" y="3"/>
      <point x="411.834" y="3" type="curve" smooth="yes"/>
      <point x="362.541" y="3"/>
      <point x="326.668" y="41.6025"/>
      <point x="326.668" y="90" type="curve" smooth="yes"/>
      <point x="326.668" y="131"/>
      <point x="347.668" y="147"/>
      <point x="347.668" y="172" type="curve" smooth="yes"/>
      <point x="347.668" y="200.921"/>
      <point x="322.758" y="207"/>
      <point x="293.834" y="207" type="curve" smooth="yes"/>
      <point x="264.91" y="207"/>
      <point x="240" y="200.921"/>
      <point x="240" y="172" type="curve" smooth="yes"/>
      <point x="240" y="147"/>
      <point x="261" y="131"/>
      <point x="261" y="90" type="curve" smooth="yes"/>
      <point x="261" y="41.6025"/>
      <point x="225.127" y="3"/>
      <point x="175.834" y="3" type="curve" smooth="yes"/>
      <point x="61.2373" y="3"/>
      <point x="53.2373" y="153.317"/>
      <point x="53.2373" y="250.999" type="curve" smooth="yes"/>
      <point x="53.2373" y="390.371"/>
      <point x="84.25" y="523.999"/>
      <point x="171.876" y="523.999" type="curve" smooth="yes"/>
      <point x="237.237" y="523.999"/>
      <point x="261.237" y="474"/>
      <point x="261.237" y="426" type="curve"/>
      <point x="226.237" y="419" type="line"/>
      <point x="226.237" y="470.221"/>
      <point x="201.938" y="489"/>
      <point x="172.237" y="489" type="curve" smooth="yes"/>
      <point x="112.237" y="489"/>
      <point x="90.2373" y="368"/>
      <point x="90.2373" y="250.999" type="curve" smooth="yes"/>
      <point x="90.2373" y="167.891"/>
      <point x="93.9541" y="40"/>
      <point x="175.834" y="40" type="curve" smooth="yes"/>
      <point x="203.712" y="40"/>
      <point x="224" y="62.1855"/>
      <point x="224" y="90" type="curve" smooth="yes"/>
      <point x="224" y="129"/>
      <point x="203" y="140"/>
      <point x="203" y="176" type="curve" smooth="yes"/>
      <point x="203" y="230.03"/>
      <point x="241.51" y="244"/>
      <point x="293.834" y="244" type="curve" smooth="yes"/>
      <point x="346.158" y="244"/>
      <point x="384.668" y="230.03"/>
      <point x="384.668" y="176" type="curve" smooth="yes"/>
      <point x="384.668" y="140"/>
      <point x="363.668" y="129"/>
      <point x="363.668" y="90" type="curve" smooth="yes"/>
      <point x="363.668" y="62.1855"/>
      <point x="383.956" y="40"/>
    </contour>
    <contour>
      <point x="223.237" y="370" type="curve" smooth="yes"/>
      <point x="223.237" y="385.759"/>
      <point x="226.237" y="397"/>
      <point x="226.237" y="419" type="curve"/>
      <point x="261.237" y="426" type="line"/>
      <point x="261.237" y="415.977"/>
      <point x="259.237" y="386.338"/>
      <point x="259.237" y="370" type="curve" smooth="yes"/>
      <point x="259.237" y="346"/>
      <point x="265.463" y="317"/>
      <point x="302.237" y="317" type="curve" smooth="yes"/>
      <point x="345.433" y="317"/>
      <point x="346.237" y="381.961"/>
      <point x="346.237" y="402" type="curve" smooth="yes"/>
      <point x="346.237" y="422.039"/>
      <point x="345.433" y="487"/>
      <point x="302.237" y="487" type="curve" smooth="yes"/>
      <point x="278.463" y="487"/>
      <point x="262.237" y="470"/>
      <point x="258.237" y="441" type="curve"/>
      <point x="227.237" y="444" type="line"/>
      <point x="232.237" y="486"/>
      <point x="254.237" y="523"/>
      <point x="302.237" y="523" type="curve" smooth="yes"/>
      <point x="380.774" y="523"/>
      <point x="382.237" y="430.526"/>
      <point x="382.237" y="402" type="curve" smooth="yes"/>
      <point x="382.237" y="373.474"/>
      <point x="380.774" y="281"/>
      <point x="302.237" y="281" type="curve" smooth="yes"/>
      <point x="245.246" y="281"/>
      <point x="223.237" y="322.966"/>
    </contour>
  </outline>
</glyph>
<glyph name="si_Ya" format="1">
  <advance width="641"/>
  <unicode hex="0DBA"/>
  <outline>
    <contour>
      <point x="40.8555" y="239" type="curve" smooth="yes"/>
      <point x="40.8555" y="423.128"/>
      <point x="128.217" y="485.353"/>
      <point x="208" y="485.353" type="curve" smooth="yes"/>
      <point x="246.263" y="485.353"/>
      <point x="282.042" y="471.041"/>
      <point x="307" y="449" type="curve"/>
      <point x="282" y="424" type="line"/>
      <point x="264.502" y="438.366"/>
      <point x="236.765" y="448.354"/>
      <point x="208" y="448.354" type="curve" smooth="yes"/>
      <point x="146.474" y="448.354"/>
      <point x="77.8555" y="398.524"/>
      <point x="77.8555" y="239" type="curve" smooth="yes"/>
      <point x="77.8555" y="127.142"/>
      <point x="99.011" y="40"/>
      <point x="175.834" y="40" type="curve" smooth="yes"/>
      <point x="267" y="40"/>
      <point x="273.592" y="148.886"/>
      <point x="276.834" y="224.5" type="curve"/>
      <point x="310.834" y="224.5" type="line"/>
      <point x="314.076" y="148.886"/>
      <point x="320.668" y="40"/>
      <point x="411.834" y="40" type="curve" smooth="yes"/>
      <point x="477.858" y="40"/>
      <point x="509.812" y="107.481"/>
      <point x="509.812" y="194.103" type="curve" smooth="yes"/>
      <point x="509.812" y="252"/>
      <point x="498.683" y="369"/>
      <point x="414.834" y="369" type="curve" smooth="yes"/>
      <point x="293.834" y="369" type="line"/>
      <point x="301.753" y="405" type="line"/>
      <point x="416.684" y="405" type="line" smooth="yes"/>
      <point x="446.856" y="405"/>
      <point x="470.428" y="394.708"/>
      <point x="488.702" y="378" type="curve" smooth="yes"/>
      <point x="534.112" y="336.483"/>
      <point x="546.812" y="255.352"/>
      <point x="546.812" y="194.103" type="curve" smooth="yes"/>
      <point x="546.812" y="86.6836"/>
      <point x="502.791" y="3"/>
      <point x="411.834" y="3" type="curve" smooth="yes"/>
      <point x="316.668" y="3"/>
      <point x="297.668" y="85"/>
      <point x="293.834" y="115" type="curve"/>
      <point x="290" y="85"/>
      <point x="271" y="3"/>
      <point x="175.834" y="3" type="curve" smooth="yes"/>
      <point x="70" y="3"/>
      <point x="40.8555" y="106.344"/>
    </contour>
    <contour>
      <point x="276.833" y="454" type="curve" smooth="yes"/>
      <point x="276.833" y="466.186"/>
      <point x="277.838" y="477.513"/>
      <point x="279.727" y="488" type="curve" smooth="yes"/>
      <point x="292.423" y="558.491"/>
      <point x="345.082" y="591"/>
      <point x="401.278" y="591" type="curve" smooth="yes"/>
      <point x="457.984" y="591"/>
      <point x="517.587" y="553"/>
      <point x="517.587" y="474" type="curve" smooth="yes"/>
      <point x="517.587" y="429.732"/>
      <point x="497.27" y="385.565"/>
      <point x="465.723" y="361" type="curve"/>
      <point x="439.723" y="382" type="line"/>
      <point x="466.723" y="402"/>
      <point x="484.111" y="437.959"/>
      <point x="484.111" y="474" type="curve" smooth="yes"/>
      <point x="484.111" y="530.043"/>
      <point x="441.663" y="557"/>
      <point x="401.278" y="557" type="curve" smooth="yes"/>
      <point x="352.916" y="557"/>
      <point x="310.834" y="524.746"/>
      <point x="310.834" y="454" type="curve" smooth="yes"/>
      <point x="310.834" y="426.857"/>
      <point x="318.932" y="404.29"/>
      <point x="326" y="384" type="curve"/>
      <point x="293.834" y="369" type="line"/>
      <point x="284.117" y="397.663"/>
      <point x="276.833" y="421.384"/>
    </contour>
  </outline>
</glyph>
<glyph name="si_Ra" format="1">
  <advance width="477"/>
  <unicode hex="0DBB"/>
  <outline>
    <contour>
      <point x="22" y="263" type="line"/>
      <point x="22" y="379"/>
      <point x="74" y="467.831"/>
      <point x="155" y="548" type="curve" smooth="yes"/>
      <point x="241.101" y="633.958"/>
      <point x="302" y="697.317"/>
      <point x="302" y="776" type="curve"/>
      <point x="338" y="776" type="line"/>
      <point x="338" y="688"/>
      <point x="273.689" y="615.532"/>
      <point x="179" y="521" type="curve" smooth="yes"/>
      <point x="129.528" y="471.61"/>
      <point x="59" y="379.1"/>
      <point x="59" y="263" type="curve"/>
      <point x="38" y="249" type="line"/>
    </contour>
    <contour>
      <point x="59" y="263" type="curve" smooth="yes"/>
      <point x="59" y="129"/>
      <point x="122.163" y="40"/>
      <point x="228.18" y="40" type="curve" smooth="yes"/>
      <point x="338.942" y="40"/>
      <point x="400" y="145.86"/>
      <point x="400" y="276.064" type="curve" smooth="yes"/>
      <point x="400" y="403.183"/>
      <point x="340.5" y="491"/>
      <point x="248" y="491" type="curve" smooth="yes"/>
      <point x="99.2178" y="491"/>
      <point x="59" y="341"/>
    </contour>
    <contour>
      <point x="22" y="263" type="curve" smooth="yes"/>
      <point x="22" y="309"/>
      <point x="36.6064" y="395.115"/>
      <point x="79.499" y="450" type="curve" smooth="yes"/>
      <point x="93.0381" y="467.323"/>
      <point x="115.395" y="475.629"/>
      <point x="135" y="488" type="curve"/>
      <point x="164" y="514"/>
      <point x="199.087" y="526.63"/>
      <point x="248" y="526.63" type="curve" smooth="yes"/>
      <point x="320.055" y="526.63"/>
      <point x="376.005" y="486.451"/>
      <point x="407.75" y="420" type="curve" smooth="yes"/>
      <point x="426.678" y="380.379"/>
      <point x="437" y="331.418"/>
      <point x="437" y="276.064" type="curve" smooth="yes"/>
      <point x="437" y="125.453"/>
      <point x="362.794" y="3"/>
      <point x="228.18" y="3" type="curve" smooth="yes"/>
      <point x="94.25" y="3"/>
      <point x="22" y="112.352"/>
    </contour>
  </outline>
</glyph>
<glyph name="si_La" format="1">
  <advance width="565"/>
  <unicode hex="0DBD"/>
  <outline>
    <contour>
      <point x="22" y="208" type="curve" smooth="yes"/>
      <point x="22" y="411.566"/>
      <point x="94.9336" y="591"/>
      <point x="287.279" y="591" type="curve" smooth="yes"/>
      <point x="450.801" y="591"/>
      <point x="525.445" y="451.985"/>
      <point x="525.445" y="332" type="curve" smooth="yes"/>
      <point x="525.445" y="201.864"/>
      <point x="472.449" y="100"/>
      <point x="357.445" y="100" type="curve" smooth="yes"/>
      <point x="271.445" y="100"/>
      <point x="232.445" y="166.723"/>
      <point x="232.445" y="228" type="curve" smooth="yes"/>
      <point x="232.445" y="272.068"/>
      <point x="254.116" y="313.815"/>
      <point x="297.319" y="335" type="curve"/>
      <point x="202.445" y="335.005" type="line"/>
      <point x="202.445" y="369.394" type="line"/>
      <point x="363.445" y="369.394" type="line"/>
      <point x="363.445" y="332.394" type="line"/>
      <point x="297.064" y="319.017"/>
      <point x="269.445" y="270.136"/>
      <point x="269.445" y="228" type="curve" smooth="yes"/>
      <point x="269.445" y="177.3"/>
      <point x="310.273" y="137"/>
      <point x="357.445" y="137" type="curve" smooth="yes"/>
      <point x="464.67" y="137"/>
      <point x="488.445" y="243.145"/>
      <point x="488.445" y="332" type="curve" smooth="yes"/>
      <point x="488.445" y="455.418"/>
      <point x="402.704" y="554"/>
      <point x="287.279" y="554" type="curve" smooth="yes"/>
      <point x="128.445" y="554"/>
      <point x="59" y="385"/>
      <point x="59" y="208" type="curve" smooth="yes"/>
      <point x="59" y="13"/>
      <point x="138.478" y="-112"/>
      <point x="283.279" y="-112" type="curve" smooth="yes"/>
      <point x="400.279" y="-112"/>
      <point x="462.954" y="-34.6641"/>
      <point x="481.279" y="37" type="curve"/>
      <point x="516.279" y="31" type="line"/>
      <point x="494.715" y="-55.5742"/>
      <point x="429.279" y="-149"/>
      <point x="283.279" y="-149" type="curve" smooth="yes"/>
      <point x="106.453" y="-149"/>
      <point x="22" y="0.277344"/>
    </contour>
  </outline>
</glyph>
<glyph name="si_Va" format="1">
  <advance width="501"/>
  <unicode hex="0DC0"/>
  <outline>
    <contour>
      <point x="22" y="219" type="curve" smooth="yes"/>
      <point x="22" y="284.815"/>
      <point x="43.0518" y="335.012"/>
      <point x="79.4033" y="363" type="curve" smooth="yes"/>
      <point x="100.493" y="379.237"/>
      <point x="126.733" y="388"/>
      <point x="157" y="388" type="curve" smooth="yes"/>
      <point x="206" y="388"/>
      <point x="274" y="388"/>
      <point x="274" y="388" type="curve"/>
      <point x="293" y="354" type="line"/>
      <point x="157" y="354" type="line" smooth="yes"/>
      <point x="94.041" y="354"/>
      <point x="58" y="298.873"/>
      <point x="58" y="219" type="curve" smooth="yes"/>
      <point x="58" y="154.403"/>
      <point x="88.0469" y="40"/>
      <point x="240" y="40" type="curve" smooth="yes"/>
      <point x="367.865" y="40"/>
      <point x="441" y="150.519"/>
      <point x="441" y="354" type="curve" smooth="yes"/>
      <point x="441" y="634.015"/>
      <point x="350.223" y="712"/>
      <point x="239" y="712" type="curve" smooth="yes"/>
      <point x="168.128" y="712"/>
      <point x="110.324" y="665.927"/>
      <point x="87" y="605" type="curve"/>
      <point x="53" y="618" type="line"/>
      <point x="91" y="716"/>
      <point x="178.968" y="749"/>
      <point x="239" y="749" type="curve" smooth="yes"/>
      <point x="371.146" y="749"/>
      <point x="479" y="662.955"/>
      <point x="479" y="354" type="curve" smooth="yes"/>
      <point x="479" y="126.541"/>
      <point x="392.039" y="3"/>
      <point x="240" y="3" type="curve" smooth="yes"/>
      <point x="57.9902" y="3"/>
      <point x="22" y="141.051"/>
    </contour>
    <contour>
      <point x="61" y="420" type="curve" smooth="yes"/>
      <point x="61" y="488"/>
      <point x="112.344" y="524"/>
      <point x="171" y="524" type="curve" smooth="yes"/>
      <point x="235.556" y="524"/>
      <point x="295.444" y="481.099"/>
      <point x="295.444" y="387" type="curve" smooth="yes"/>
      <point x="295.444" y="375.04"/>
      <point x="294.559" y="364.262"/>
      <point x="293" y="354" type="curve"/>
      <point x="261.62" y="379" type="line"/>
      <point x="261.527" y="381.638"/>
      <point x="261.444" y="384.229"/>
      <point x="261.444" y="387" type="curve" smooth="yes"/>
      <point x="261.444" y="457.746"/>
      <point x="219.362" y="490"/>
      <point x="171" y="490" type="curve" smooth="yes"/>
      <point x="129.043" y="490"/>
      <point x="94.4756" y="467"/>
      <point x="94.4756" y="420" type="curve" smooth="yes"/>
      <point x="94.4756" y="395.6"/>
      <point x="104" y="376"/>
      <point x="117" y="364" type="curve" smooth="yes"/>
      <point x="92.8184" y="344" type="line" smooth="yes"/>
      <point x="77" y="358"/>
      <point x="61" y="388.023"/>
    </contour>
  </outline>
</glyph>
<glyph name="si_Sha" format="1">
  <advance width="650"/>
  <unicode hex="0DC1"/>
  <outline>
    <contour>
      <point x="597" y="252" type="curve"/>
      <point x="590" y="216" type="line"/>
      <point x="566.396" y="243.635"/>
      <point x="541.188" y="250.33"/>
      <point x="522.398" y="250.33" type="curve" smooth="yes"/>
      <point x="472.921" y="250.33"/>
      <point x="448" y="200.199"/>
      <point x="448" y="146" type="curve" smooth="yes"/>
      <point x="448" y="83.1426"/>
      <point x="467" y="46"/>
      <point x="511" y="46" type="curve" smooth="yes"/>
      <point x="542" y="46"/>
      <point x="575" y="72"/>
      <point x="608" y="36" type="curve"/>
      <point x="598" y="3" type="line"/>
      <point x="568" y="38"/>
      <point x="562" y="8"/>
      <point x="504" y="8" type="curve" smooth="yes"/>
      <point x="429" y="8"/>
      <point x="411" y="94.9023"/>
      <point x="411" y="146" type="curve" smooth="yes"/>
      <point x="411" y="223.254"/>
      <point x="451.66" y="285.912"/>
      <point x="515.996" y="285.912" type="curve" smooth="yes"/>
      <point x="550.48" y="285.912"/>
      <point x="580.903" y="273.368"/>
    </contour>
    <contour>
      <point x="304.872" y="400.844" type="curve" smooth="yes"/>
      <point x="304.872" y="363"/>
      <point x="317.074" y="279.039"/>
      <point x="230" y="247" type="curve"/>
      <point x="218" y="276" type="line"/>
      <point x="280" y="303.793"/>
      <point x="267.872" y="374.303"/>
      <point x="267.872" y="400.844" type="curve" smooth="yes"/>
      <point x="267.872" y="512.851"/>
      <point x="351" y="581"/>
      <point x="431" y="581" type="curve" smooth="yes"/>
      <point x="523.438" y="581"/>
      <point x="608.5" y="528"/>
      <point x="608.5" y="292" type="curve" smooth="yes"/>
      <point x="608.5" y="115"/>
      <point x="573" y="96"/>
      <point x="628" y="24" type="curve"/>
      <point x="598" y="3" type="line"/>
      <point x="531" y="90"/>
      <point x="571" y="142"/>
      <point x="571" y="292" type="curve" smooth="yes"/>
      <point x="571" y="497.785"/>
      <point x="504.701" y="544"/>
      <point x="431" y="544" type="curve" smooth="yes"/>
      <point x="355.452" y="544"/>
      <point x="304.872" y="474.387"/>
    </contour>
    <contour>
      <point x="207" y="40" type="curve" smooth="yes"/>
      <point x="293.77" y="40"/>
      <point x="326.128" y="111.732"/>
      <point x="326.128" y="174" type="curve" smooth="yes"/>
      <point x="326.128" y="224.729"/>
      <point x="302.176" y="268.541"/>
      <point x="265" y="272" type="curve"/>
      <point x="282" y="301" type="line"/>
      <point x="318" y="298.771"/>
      <point x="363.128" y="249.754"/>
      <point x="363.128" y="174" type="curve" smooth="yes"/>
      <point x="363.128" y="94.5391"/>
      <point x="320.72" y="3"/>
      <point x="207" y="3" type="curve" smooth="yes"/>
      <point x="114.562" y="3"/>
      <point x="22" y="53.0654"/>
      <point x="22" y="276" type="curve" smooth="yes"/>
      <point x="22" y="524.011"/>
      <point x="104.331" y="581"/>
      <point x="190.372" y="581" type="curve" smooth="yes"/>
      <point x="264" y="581"/>
      <point x="304" y="531"/>
      <point x="314" y="473" type="curve"/>
      <point x="278" y="461" type="line"/>
      <point x="275" y="501"/>
      <point x="243" y="544"/>
      <point x="190.372" y="544" type="curve" smooth="yes"/>
      <point x="123.494" y="544"/>
      <point x="59.5" y="493.924"/>
      <point x="59.5" y="276" type="curve" smooth="yes"/>
      <point x="59.5" y="83.2803"/>
      <point x="133.299" y="40"/>
    </contour>
  </outline>
</glyph>
<glyph name="si_Ssa" format="1">
  <advance width="585"/>
  <unicode hex="0DC2"/>
  <outline>
    <contour>
      <point x="227" y="30" type="line"/>
      <point x="219.923" y="52.4465"/>
      <point x="216.724" y="73.7387"/>
      <point x="216.724" y="93.9622" type="curve" smooth="yes"/>
      <point x="216.724" y="221.833"/>
      <point x="344.628" y="306.975"/>
      <point x="429" y="371" type="curve"/>
      <point x="449" y="371" type="line"/>
      <point x="453" y="350" type="line"/>
      <point x="374.058" y="289.917"/>
      <point x="254.385" y="210.02"/>
      <point x="254.385" y="90.0231" type="curve" smooth="yes"/>
      <point x="254.385" y="71.0452"/>
      <point x="257.379" y="51.0642"/>
      <point x="264" y="30" type="curve"/>
      <point x="244" y="11" type="line"/>
    </contour>
    <contour>
      <point x="276.833" y="454" type="curve" smooth="yes"/>
      <point x="276.833" y="466.186"/>
      <point x="277.839" y="477.513"/>
      <point x="279.728" y="488" type="curve" smooth="yes"/>
      <point x="292.424" y="558.491"/>
      <point x="345.082" y="591"/>
      <point x="401.278" y="591" type="curve" smooth="yes"/>
      <point x="457.984" y="591"/>
      <point x="517.587" y="553"/>
      <point x="517.587" y="474" type="curve" smooth="yes"/>
      <point x="517.587" y="429.732"/>
      <point x="497.27" y="385.565"/>
      <point x="465.723" y="361" type="curve"/>
      <point x="439.723" y="382" type="line"/>
      <point x="466.723" y="402"/>
      <point x="484.111" y="437.959"/>
      <point x="484.111" y="474" type="curve" smooth="yes"/>
      <point x="484.111" y="530.043"/>
      <point x="441.663" y="557"/>
      <point x="401.278" y="557" type="curve" smooth="yes"/>
      <point x="352.916" y="557"/>
      <point x="310.834" y="524.746"/>
      <point x="310.834" y="454" type="curve" smooth="yes"/>
      <point x="310.834" y="435"/>
      <point x="310.834" y="416"/>
      <point x="310.834" y="402" type="curve"/>
      <point x="293.834" y="369" type="line"/>
      <point x="284.117" y="397.663"/>
      <point x="276.833" y="421.384"/>
    </contour>
    <contour>
      <point x="75" y="224.437" type="curve" smooth="yes"/>
      <point x="75" y="107.242"/>
      <point x="161.024" y="30"/>
      <point x="293.834" y="30" type="curve" smooth="yes"/>
      <point x="426.644" y="30"/>
      <point x="512.668" y="106.806"/>
      <point x="512.668" y="224" type="curve" smooth="yes"/>
      <point x="512.668" y="299.407"/>
      <point x="474.191" y="365"/>
      <point x="390" y="365" type="curve" smooth="yes"/>
      <point x="197.668" y="365" type="line" smooth="yes"/>
      <point x="113.477" y="365"/>
      <point x="75" y="299.844"/>
    </contour>
    <contour>
      <point x="38" y="224.437" type="curve" smooth="yes"/>
      <point x="38" y="319.693"/>
      <point x="90.9033" y="402"/>
      <point x="197.668" y="402" type="curve" smooth="yes"/>
      <point x="390" y="402" type="line" smooth="yes"/>
      <point x="496.765" y="402"/>
      <point x="549.668" y="319.257"/>
      <point x="549.668" y="224" type="curve" smooth="yes"/>
      <point x="549.668" y="84.5049"/>
      <point x="449.34" y="-7"/>
      <point x="293.834" y="-7" type="curve" smooth="yes"/>
      <point x="138.328" y="-7"/>
      <point x="38" y="84.9414"/>
    </contour>
    <contour>
      <point x="70.0801" y="474" type="curve" smooth="yes"/>
      <point x="70.0801" y="553"/>
      <point x="129.683" y="591"/>
      <point x="186.389" y="591" type="curve" smooth="yes"/>
      <point x="242.585" y="591"/>
      <point x="295.247" y="558.491"/>
      <point x="307.94" y="488" type="curve" smooth="yes"/>
      <point x="309.829" y="477.513"/>
      <point x="310.833" y="466.186"/>
      <point x="310.833" y="454" type="curve" smooth="yes"/>
      <point x="310.833" y="421.384"/>
      <point x="303.549" y="397.663"/>
      <point x="293.833" y="369" type="curve"/>
      <point x="276.833" y="402" type="line"/>
      <point x="276.833" y="416"/>
      <point x="276.833" y="435"/>
      <point x="276.833" y="454" type="curve" smooth="yes"/>
      <point x="276.833" y="524.746"/>
      <point x="234.751" y="557"/>
      <point x="186.389" y="557" type="curve" smooth="yes"/>
      <point x="146.004" y="557"/>
      <point x="103.556" y="530.043"/>
      <point x="103.556" y="474" type="curve" smooth="yes"/>
      <point x="103.556" y="437.959"/>
      <point x="120.944" y="402"/>
      <point x="147.944" y="382" type="curve"/>
      <point x="121.944" y="361" type="line"/>
      <point x="90.3972" y="385.565"/>
      <point x="70.0801" y="429.732"/>
    </contour>
  </outline>
</glyph>
<glyph name="si_Sa" format="1">
  <advance width="581"/>
  <unicode hex="0DC3"/>
  <outline>
    <contour>
      <point x="278.722" y="454" type="curve" smooth="yes"/>
      <point x="278.722" y="466.186"/>
      <point x="279.727" y="477.513"/>
      <point x="281.616" y="488" type="curve" smooth="yes"/>
      <point x="294.312" y="558.491"/>
      <point x="346.971" y="591"/>
      <point x="403.167" y="591" type="curve" smooth="yes"/>
      <point x="459.873" y="591"/>
      <point x="519.476" y="553"/>
      <point x="519.476" y="474" type="curve" smooth="yes"/>
      <point x="519.476" y="429.732"/>
      <point x="499.158" y="385.565"/>
      <point x="467.611" y="361" type="curve"/>
      <point x="441.611" y="382" type="line"/>
      <point x="468.611" y="402"/>
      <point x="486" y="437.959"/>
      <point x="486" y="474" type="curve" smooth="yes"/>
      <point x="486" y="530.043"/>
      <point x="443.552" y="557"/>
      <point x="403.167" y="557" type="curve" smooth="yes"/>
      <point x="354.805" y="557"/>
      <point x="312.723" y="524.746"/>
      <point x="312.723" y="454" type="curve" smooth="yes"/>
      <point x="312.723" y="435"/>
      <point x="312.723" y="416"/>
      <point x="312.723" y="402" type="curve"/>
      <point x="295.723" y="369" type="line"/>
      <point x="286.006" y="397.663"/>
      <point x="278.722" y="421.384"/>
    </contour>
    <contour>
      <point x="79.7441" y="194.103" type="curve" smooth="yes"/>
      <point x="79.7441" y="107.481"/>
      <point x="111.698" y="40"/>
      <point x="177.723" y="40" type="curve" smooth="yes"/>
      <point x="268.889" y="40"/>
      <point x="275.48" y="148.886"/>
      <point x="278.723" y="224.5" type="curve"/>
      <point x="312.723" y="224.5" type="line"/>
      <point x="315.965" y="148.886"/>
      <point x="322.557" y="40"/>
      <point x="413.723" y="40" type="curve" smooth="yes"/>
      <point x="479.747" y="40"/>
      <point x="511.701" y="107.481"/>
      <point x="511.701" y="194.103" type="curve" smooth="yes"/>
      <point x="511.701" y="252"/>
      <point x="500.571" y="369"/>
      <point x="416.723" y="369" type="curve" smooth="yes"/>
      <point x="190.572" y="369" type="line" smooth="yes"/>
      <point x="92.7969" y="369"/>
      <point x="79.7441" y="251.715"/>
    </contour>
    <contour>
      <point x="42.7441" y="194.103" type="curve" smooth="yes"/>
      <point x="42.7441" y="263"/>
      <point x="62.7227" y="342"/>
      <point x="96.7227" y="369" type="curve"/>
      <point x="33" y="369" type="line"/>
      <point x="33" y="405" type="line"/>
      <point x="418.572" y="405" type="line" smooth="yes"/>
      <point x="444" y="405"/>
      <point x="464.094" y="397.93"/>
      <point x="480.744" y="385.997" type="curve" smooth="yes"/>
      <point x="533.191" y="348.409"/>
      <point x="548.701" y="260.151"/>
      <point x="548.701" y="194.103" type="curve" smooth="yes"/>
      <point x="548.701" y="86.6836"/>
      <point x="504.68" y="3"/>
      <point x="413.723" y="3" type="curve" smooth="yes"/>
      <point x="318.557" y="3"/>
      <point x="299.557" y="85"/>
      <point x="295.723" y="115" type="curve"/>
      <point x="291.889" y="85"/>
      <point x="272.889" y="3"/>
      <point x="177.723" y="3" type="curve" smooth="yes"/>
      <point x="86.7656" y="3"/>
      <point x="42.7441" y="86.6836"/>
    </contour>
    <contour>
      <point x="71.9697" y="474" type="curve" smooth="yes"/>
      <point x="71.9697" y="553"/>
      <point x="131.572" y="591"/>
      <point x="188.278" y="591" type="curve" smooth="yes"/>
      <point x="244.475" y="591"/>
      <point x="297.134" y="558.491"/>
      <point x="309.83" y="488" type="curve" smooth="yes"/>
      <point x="311.719" y="477.513"/>
      <point x="312.724" y="466.186"/>
      <point x="312.724" y="454" type="curve" smooth="yes"/>
      <point x="312.724" y="421.384"/>
      <point x="305.439" y="397.663"/>
      <point x="295.723" y="369" type="curve"/>
      <point x="278.723" y="402" type="line"/>
      <point x="278.723" y="416"/>
      <point x="278.723" y="435"/>
      <point x="278.723" y="454" type="curve" smooth="yes"/>
      <point x="278.723" y="524.746"/>
      <point x="236.641" y="557"/>
      <point x="188.278" y="557" type="curve" smooth="yes"/>
      <point x="147.893" y="557"/>
      <point x="105.445" y="530.043"/>
      <point x="105.445" y="474" type="curve" smooth="yes"/>
      <point x="105.445" y="432"/>
      <point x="124.445" y="406"/>
      <point x="134.445" y="396" type="curve"/>
      <point x="112.445" y="376" type="line"/>
      <point x="100.445" y="387"/>
      <point x="71.9697" y="419"/>
    </contour>
  </outline>
</glyph>
<glyph name="si_Ha" format="1">
  <advance width="1024"/>
  <unicode hex="0DC4"/>
  <outline>
    <contour>
      <point x="238.372" y="238" type="line"/>
      <point x="286.4" y="264.464"/>
      <point x="291.657" y="324.425"/>
      <point x="291.657" y="368.48" type="curve" smooth="yes"/>
      <point x="291.657" y="478.833"/>
      <point x="323.05" y="580.844"/>
      <point x="440.372" y="580.844" type="curve" smooth="yes"/>
      <point x="532.811" y="580.844"/>
      <point x="615.744" y="527.844"/>
      <point x="615.744" y="291.844" type="curve" smooth="yes"/>
      <point x="615.744" y="56.8438"/>
      <point x="533.413" y="2.84375"/>
      <point x="447.372" y="2.84375" type="curve" smooth="yes"/>
      <point x="391.607" y="2.84375"/>
      <point x="355.133" y="31.5254"/>
      <point x="336.372" y="70.6406" type="curve"/>
      <point x="359.744" y="122.844" type="line"/>
      <point x="362.744" y="82.8438"/>
      <point x="394.744" y="39.8438"/>
      <point x="447.372" y="39.8438" type="curve" smooth="yes"/>
      <point x="514.25" y="39.8438"/>
      <point x="578.244" y="86.9307"/>
      <point x="578.244" y="291.844" type="curve" smooth="yes"/>
      <point x="578.244" y="497.629"/>
      <point x="514.073" y="543.844"/>
      <point x="440.372" y="543.844" type="curve" smooth="yes"/>
      <point x="345.96" y="543.844"/>
      <point x="328.853" y="455.258"/>
      <point x="328.853" y="362.739" type="curve" smooth="yes"/>
      <point x="328.853" y="310.831"/>
      <point x="321.11" y="240.181"/>
      <point x="250.372" y="209" type="curve"/>
    </contour>
    <contour>
      <point x="52.7246" y="210" type="curve" smooth="yes"/>
      <point x="52.7246" y="265.954"/>
      <point x="65.4249" y="340.071"/>
      <point x="110.835" y="378" type="curve" smooth="yes"/>
      <point x="129.839" y="393.873"/>
      <point x="152.681" y="405"/>
      <point x="182.854" y="405" type="curve" smooth="yes"/>
      <point x="313.537" y="405" type="line"/>
      <point x="305.703" y="369" type="line"/>
      <point x="184.703" y="369" type="line" smooth="yes"/>
      <point x="100.854" y="369"/>
      <point x="89.7246" y="262.635"/>
      <point x="89.7246" y="210" type="curve" smooth="yes"/>
      <point x="89.7246" y="101.002"/>
      <point x="137.022" y="40"/>
      <point x="227.372" y="40" type="curve" smooth="yes"/>
      <point x="316.233" y="40"/>
      <point x="349.372" y="103.167"/>
      <point x="349.372" y="158" type="curve" smooth="yes"/>
      <point x="349.372" y="200.669"/>
      <point x="333.968" y="231.955"/>
      <point x="304.896" y="231.955" type="curve" smooth="yes"/>
      <point x="295.729" y="231.955"/>
      <point x="285.203" y="228.845"/>
      <point x="273.372" y="222" type="curve"/>
      <point x="264.372" y="249" type="line"/>
      <point x="281.866" y="257.285"/>
      <point x="297.996" y="261.202"/>
      <point x="312.408" y="261.202" type="curve" smooth="yes"/>
      <point x="357.978" y="261.202"/>
      <point x="386.372" y="222.041"/>
      <point x="386.372" y="158" type="curve" smooth="yes"/>
      <point x="386.372" y="85.9736"/>
      <point x="343.184" y="3"/>
      <point x="227.372" y="3" type="curve" smooth="yes"/>
      <point x="113.276" y="3"/>
      <point x="52.7246" y="81.3619"/>
    </contour>
    <contour>
      <point x="81.9502" y="474" type="curve" smooth="yes"/>
      <point x="81.9502" y="553"/>
      <point x="141.553" y="591"/>
      <point x="198.259" y="591" type="curve" smooth="yes"/>
      <point x="254.455" y="591"/>
      <point x="307.115" y="558.491"/>
      <point x="319.81" y="488" type="curve" smooth="yes"/>
      <point x="321.698" y="477.513"/>
      <point x="322.704" y="466.186"/>
      <point x="322.704" y="454" type="curve" smooth="yes"/>
      <point x="322.704" y="421.384"/>
      <point x="315.42" y="397.663"/>
      <point x="305.703" y="369" type="curve"/>
      <point x="289" y="404" type="line"/>
      <point x="288.836" y="419.017"/>
      <point x="288.703" y="435.438"/>
      <point x="288.703" y="454" type="curve" smooth="yes"/>
      <point x="288.703" y="524.746"/>
      <point x="246.621" y="557"/>
      <point x="198.259" y="557" type="curve" smooth="yes"/>
      <point x="157.874" y="557"/>
      <point x="115.426" y="530.043"/>
      <point x="115.426" y="474" type="curve" smooth="yes"/>
      <point x="115.426" y="437.959"/>
      <point x="132.814" y="402"/>
      <point x="159.814" y="382" type="curve"/>
      <point x="133.814" y="361" type="line"/>
      <point x="102.268" y="385.565"/>
      <point x="81.9502" y="429.732"/>
    </contour>
  </outline>
</glyph>
<glyph name="si_Lla" format="1">
  <advance width="522"/>
  <unicode hex="0DC5"/>
  <outline>
    <contour>
      <point x="214.666" y="591" type="curve" smooth="yes"/>
      <point x="267.736" y="591"/>
      <point x="290.331" y="564.188"/>
      <point x="299.666" y="526" type="curve"/>
      <point x="308.56" y="565"/>
      <point x="332.691" y="591"/>
      <point x="378.666" y="591" type="curve" smooth="yes"/>
      <point x="466.666" y="591"/>
      <point x="485.666" y="471"/>
      <point x="455.666" y="343.5" type="curve"/>
      <point x="420.666" y="354" type="line"/>
      <point x="439.757" y="426.081"/>
      <point x="448.881" y="554"/>
      <point x="378.666" y="554" type="curve" smooth="yes"/>
      <point x="319.389" y="554"/>
      <point x="317.666" y="475.769"/>
      <point x="317.666" y="435" type="curve" smooth="yes"/>
      <point x="317.666" y="369" type="line"/>
      <point x="281.666" y="369" type="line"/>
      <point x="281.666" y="435" type="line" smooth="yes"/>
      <point x="281.666" y="487.812"/>
      <point x="266.893" y="554"/>
      <point x="214.666" y="554" type="curve" smooth="yes"/>
      <point x="154.044" y="554"/>
      <point x="144.256" y="464"/>
      <point x="171.666" y="387" type="curve" smooth="yes"/>
      <point x="178.389" y="368.115"/>
      <point x="180.969" y="350.518"/>
      <point x="180.969" y="323" type="curve" smooth="yes"/>
      <point x="180.969" y="264"/>
      <point x="223.809" y="200"/>
      <point x="303.666" y="200" type="curve" smooth="yes"/>
      <point x="376.429" y="200"/>
      <point x="408.666" y="233"/>
      <point x="408.666" y="269" type="curve"/>
      <point x="445.688" y="269" type="line"/>
      <point x="445.688" y="216"/>
      <point x="398.329" y="163"/>
      <point x="303.666" y="163" type="curve" smooth="yes"/>
      <point x="199.082" y="163"/>
      <point x="133.391" y="242.277"/>
      <point x="143.969" y="323" type="curve" smooth="yes"/>
      <point x="147.987" y="353.671"/>
      <point x="143.526" y="353.061"/>
      <point x="136.666" y="376" type="curve" smooth="yes"/>
      <point x="111.749" y="459.319"/>
      <point x="109.666" y="591"/>
    </contour>
    <contour>
      <point x="59" y="133" type="curve" smooth="yes"/>
      <point x="59" y="-39"/>
      <point x="137.69" y="-112"/>
      <point x="267.5" y="-112" type="curve" smooth="yes"/>
      <point x="384.5" y="-112"/>
      <point x="447.175" y="-34.6641"/>
      <point x="465.5" y="37" type="curve"/>
      <point x="500.5" y="31" type="line"/>
      <point x="478.936" y="-55.5742"/>
      <point x="413.5" y="-149"/>
      <point x="267.5" y="-149" type="curve" smooth="yes"/>
      <point x="105.666" y="-149"/>
      <point x="22" y="-51.7227"/>
      <point x="22" y="133" type="curve" smooth="yes"/>
      <point x="22" y="286"/>
      <point x="117.666" y="380.5"/>
      <point x="211.666" y="380.5" type="curve" smooth="yes"/>
      <point x="455.666" y="380.5" type="line"/>
      <point x="455.666" y="343.5" type="line"/>
      <point x="211.666" y="343.5" type="line" smooth="yes"/>
      <point x="130.822" y="343.5"/>
      <point x="59" y="262.359"/>
    </contour>
  </outline>
</glyph>
